<svg width="12" height="12" viewBox="0 0 12 12" fill="none" xmlns="http://www.w3.org/2000/svg">
<path d="M5.70635 10.9508C5.80484 11.0049 5.91571 11.0326 6.02811 11.0311C6.14051 11.0296 6.2506 10.9989 6.3476 10.9421C7.6916 10.1745 10.0263 8.40675 10.9432 6.11063C12.2895 3.12075 9.12897 0.734254 6.94497 2.45063C6.71697 2.62988 6.43047 2.835 6.2336 3.02888C6.14435 3.11663 5.98722 3.12563 5.8946 3.04163C5.63585 2.80538 5.23047 2.50313 4.97022 2.32725C3.10835 1.06725 -0.279778 2.72813 1.16547 6.27225C1.69497 7.863 4.21797 10.1198 5.70635 10.9508Z" fill="url(#paint0_radial_20_33)"/>
<path d="M5.70635 10.9508C5.80484 11.0049 5.91571 11.0326 6.02811 11.0311C6.14051 11.0296 6.2506 10.9989 6.3476 10.9421C7.6916 10.1745 10.0263 8.40675 10.9432 6.11063C12.2895 3.12075 9.12897 0.734254 6.94497 2.45063C6.71697 2.62988 6.43047 2.835 6.2336 3.02888C6.14435 3.11663 5.98722 3.12563 5.8946 3.04163C5.63585 2.80538 5.23047 2.50313 4.97022 2.32725C3.10835 1.06725 -0.279778 2.72813 1.16547 6.27225C1.69497 7.863 4.21797 10.1198 5.70635 10.9508Z" fill="url(#paint1_radial_20_33)"/>
<path d="M5.70635 10.9508C5.80484 11.0049 5.91571 11.0326 6.02811 11.0311C6.14051 11.0296 6.2506 10.9989 6.3476 10.9421C7.6916 10.1745 10.0263 8.40675 10.9432 6.11063C12.2895 3.12075 9.12897 0.734254 6.94497 2.45063C6.71697 2.62988 6.43047 2.835 6.2336 3.02888C6.14435 3.11663 5.98722 3.12563 5.8946 3.04163C5.63585 2.80538 5.23047 2.50313 4.97022 2.32725C3.10835 1.06725 -0.279778 2.72813 1.16547 6.27225C1.69497 7.863 4.21797 10.1198 5.70635 10.9508Z" fill="url(#paint2_radial_20_33)"/>
<path d="M5.70635 10.9508C5.80484 11.0049 5.91571 11.0326 6.02811 11.0311C6.14051 11.0296 6.2506 10.9989 6.3476 10.9421C7.6916 10.1745 10.0263 8.40675 10.9432 6.11063C12.2895 3.12075 9.12897 0.734254 6.94497 2.45063C6.71697 2.62988 6.43047 2.835 6.2336 3.02888C6.14435 3.11663 5.98722 3.12563 5.8946 3.04163C5.63585 2.80538 5.23047 2.50313 4.97022 2.32725C3.10835 1.06725 -0.279778 2.72813 1.16547 6.27225C1.69497 7.863 4.21797 10.1198 5.70635 10.9508Z" fill="url(#paint3_radial_20_33)"/>
<path d="M5.70635 10.9508C5.80484 11.0049 5.91571 11.0326 6.02811 11.0311C6.14051 11.0296 6.2506 10.9989 6.3476 10.9421C7.6916 10.1745 10.0263 8.40675 10.9432 6.11063C12.2895 3.12075 9.12897 0.734254 6.94497 2.45063C6.71697 2.62988 6.43047 2.835 6.2336 3.02888C6.14435 3.11663 5.98722 3.12563 5.8946 3.04163C5.63585 2.80538 5.23047 2.50313 4.97022 2.32725C3.10835 1.06725 -0.279778 2.72813 1.16547 6.27225C1.69497 7.863 4.21797 10.1198 5.70635 10.9508Z" fill="url(#paint4_linear_20_33)"/>
<path d="M5.70635 10.9508C5.80484 11.0049 5.91571 11.0326 6.02811 11.0311C6.14051 11.0296 6.2506 10.9989 6.3476 10.9421C7.6916 10.1745 10.0263 8.40675 10.9432 6.11063C12.2895 3.12075 9.12897 0.734254 6.94497 2.45063C6.71697 2.62988 6.43047 2.835 6.2336 3.02888C6.14435 3.11663 5.98722 3.12563 5.8946 3.04163C5.63585 2.80538 5.23047 2.50313 4.97022 2.32725C3.10835 1.06725 -0.279778 2.72813 1.16547 6.27225C1.69497 7.863 4.21797 10.1198 5.70635 10.9508Z" fill="url(#paint5_linear_20_33)"/>
<path d="M5.70635 10.9508C5.80484 11.0049 5.91571 11.0326 6.02811 11.0311C6.14051 11.0296 6.2506 10.9989 6.3476 10.9421C7.6916 10.1745 10.0263 8.40675 10.9432 6.11063C12.2895 3.12075 9.12897 0.734254 6.94497 2.45063C6.71697 2.62988 6.43047 2.835 6.2336 3.02888C6.14435 3.11663 5.98722 3.12563 5.8946 3.04163C5.63585 2.80538 5.23047 2.50313 4.97022 2.32725C3.10835 1.06725 -0.279778 2.72813 1.16547 6.27225C1.69497 7.863 4.21797 10.1198 5.70635 10.9508Z" fill="url(#paint6_radial_20_33)" fill-opacity="0.6"/>
<g filter="url(#filter0_f_20_33)">
<path d="M5.96545 3.9525V6.51113C5.96545 6.8505 6.37645 7.01138 6.58795 6.74625C7.24233 5.925 7.77033 4.92713 7.1812 4.11188C6.95545 3.79913 6.5227 3.59888 6.16908 3.66263C6.03708 3.68625 5.96545 3.81825 5.96545 3.95288" fill="#FA1C56"/>
</g>
<g filter="url(#filter1_f_20_33)">
<path d="M10.2157 5.26126C10.8783 4.61712 10.9825 3.64952 10.4484 3.10006C9.91422 2.5506 8.94406 2.62736 8.28144 3.2715C7.61882 3.91564 7.51467 4.88324 8.04881 5.4327C8.58295 5.98216 9.55311 5.9054 10.2157 5.26126Z" fill="url(#paint7_radial_20_33)"/>
</g>
<g filter="url(#filter2_f_20_33)">
<path d="M8.78082 2.40759C9.12871 2.45133 9.41819 2.42748 9.42739 2.35432C9.43658 2.28117 9.16201 2.18641 8.81412 2.14268C8.46623 2.09894 8.17675 2.1228 8.16755 2.19595C8.15836 2.2691 8.43293 2.36386 8.78082 2.40759Z" fill="#FF7383"/>
</g>
<g filter="url(#filter3_f_20_33)">
<path d="M3.52199 2.36325C3.83656 2.35942 4.09106 2.31452 4.09044 2.26295C4.08981 2.21138 3.83429 2.17268 3.51972 2.17651C3.20515 2.18034 2.95064 2.22524 2.95127 2.27681C2.9519 2.32838 3.20742 2.36708 3.52199 2.36325Z" fill="#FF93BA" fill-opacity="0.5"/>
</g>
<g filter="url(#filter4_f_20_33)">
<path d="M5.56686 3.73575L5.68423 7.5795C3.10611 5.0715 2.60998 3.3105 3.59811 2.91525C4.53561 2.54025 5.28561 3.14962 5.56686 3.73575Z" fill="url(#paint8_radial_20_33)"/>
</g>
<g filter="url(#filter5_f_20_33)">
<path d="M5.37933 3.51075C5.06433 3.46575 4.96683 3.20437 4.95746 3.0795C5.13746 3.267 5.31371 3.28275 5.37933 3.267V3.51075Z" fill="#FF7383"/>
</g>
<defs>
<filter id="filter0_f_20_33" x="5.21545" y="2.9008" width="2.97113" height="4.72791" filterUnits="userSpaceOnUse" color-interpolation-filters="sRGB">
<feFlood flood-opacity="0" result="BackgroundImageFix"/>
<feBlend mode="normal" in="SourceGraphic" in2="BackgroundImageFix" result="shape"/>
<feGaussianBlur stdDeviation="0.375" result="effect1_foregroundBlur_20_33"/>
</filter>
<filter id="filter1_f_20_33" x="7.14496" y="2.17085" width="4.20721" height="4.19106" filterUnits="userSpaceOnUse" color-interpolation-filters="sRGB">
<feFlood flood-opacity="0" result="BackgroundImageFix"/>
<feBlend mode="normal" in="SourceGraphic" in2="BackgroundImageFix" result="shape"/>
<feGaussianBlur stdDeviation="0.28125" result="effect1_foregroundBlur_20_33"/>
</filter>
<filter id="filter2_f_20_33" x="7.41736" y="1.37079" width="2.76025" height="1.80869" filterUnits="userSpaceOnUse" color-interpolation-filters="sRGB">
<feFlood flood-opacity="0" result="BackgroundImageFix"/>
<feBlend mode="normal" in="SourceGraphic" in2="BackgroundImageFix" result="shape"/>
<feGaussianBlur stdDeviation="0.375" result="effect1_foregroundBlur_20_33"/>
</filter>
<filter id="filter3_f_20_33" x="2.38879" y="1.61375" width="2.26416" height="1.31226" filterUnits="userSpaceOnUse" color-interpolation-filters="sRGB">
<feFlood flood-opacity="0" result="BackgroundImageFix"/>
<feBlend mode="normal" in="SourceGraphic" in2="BackgroundImageFix" result="shape"/>
<feGaussianBlur stdDeviation="0.28125" result="effect1_foregroundBlur_20_33"/>
</filter>
<filter id="filter4_f_20_33" x="1.99982" y="1.67487" width="4.80939" height="7.02963" filterUnits="userSpaceOnUse" color-interpolation-filters="sRGB">
<feFlood flood-opacity="0" result="BackgroundImageFix"/>
<feBlend mode="normal" in="SourceGraphic" in2="BackgroundImageFix" result="shape"/>
<feGaussianBlur stdDeviation="0.5625" result="effect1_foregroundBlur_20_33"/>
</filter>
<filter id="filter5_f_20_33" x="4.58246" y="2.7045" width="1.17188" height="1.18124" filterUnits="userSpaceOnUse" color-interpolation-filters="sRGB">
<feFlood flood-opacity="0" result="BackgroundImageFix"/>
<feBlend mode="normal" in="SourceGraphic" in2="BackgroundImageFix" result="shape"/>
<feGaussianBlur stdDeviation="0.1875" result="effect1_foregroundBlur_20_33"/>
</filter>
<radialGradient id="paint0_radial_20_33" cx="0" cy="0" r="1" gradientUnits="userSpaceOnUse" gradientTransform="translate(5.9561 2.11275) rotate(90) scale(8.61919 9.15079)">
<stop stop-color="#FC0000"/>
<stop offset="0.528" stop-color="#FF3B79"/>
<stop offset="1" stop-color="#F724B3"/>
</radialGradient>
<radialGradient id="paint1_radial_20_33" cx="0" cy="0" r="1" gradientUnits="userSpaceOnUse" gradientTransform="translate(8.63435 4.26113) rotate(134.402) scale(7.97426 14.9365)">
<stop offset="0.798" stop-color="#C82092" stop-opacity="0"/>
<stop offset="0.908" stop-color="#C82092"/>
</radialGradient>
<radialGradient id="paint2_radial_20_33" cx="0" cy="0" r="1" gradientUnits="userSpaceOnUse" gradientTransform="translate(7.49885 6.67088) rotate(-158.663) scale(8.53087 12.0596)">
<stop offset="0.41" stop-color="#B91D43" stop-opacity="0"/>
<stop offset="0.834" stop-color="#B91D43"/>
</radialGradient>
<radialGradient id="paint3_radial_20_33" cx="0" cy="0" r="1" gradientUnits="userSpaceOnUse" gradientTransform="translate(5.83497 5.181) rotate(90) scale(7.4247)">
<stop offset="0.671" stop-color="#FF7AF2" stop-opacity="0"/>
<stop offset="0.934" stop-color="#FFBCE6"/>
</radialGradient>
<linearGradient id="paint4_linear_20_33" x1="6.65435" y1="6.04988" x2="9.65922" y2="9.62588" gradientUnits="userSpaceOnUse">
<stop offset="0.694" stop-color="#FF7AF2" stop-opacity="0"/>
<stop offset="0.934" stop-color="#FFBCE6"/>
</linearGradient>
<linearGradient id="paint5_linear_20_33" x1="6.28197" y1="6.19875" x2="2.75585" y2="10.1719" gradientUnits="userSpaceOnUse">
<stop offset="0.694" stop-color="#FF7AF2" stop-opacity="0"/>
<stop offset="0.934" stop-color="#FFBCE6"/>
</linearGradient>
<radialGradient id="paint6_radial_20_33" cx="0" cy="0" r="1" gradientUnits="userSpaceOnUse" gradientTransform="translate(6.8801 4.836) rotate(164.618) scale(6.45547 6.81757)">
<stop offset="0.802" stop-color="#FF73A6" stop-opacity="0"/>
<stop offset="1" stop-color="#FF93BA"/>
</radialGradient>
<radialGradient id="paint7_radial_20_33" cx="0" cy="0" r="1" gradientUnits="userSpaceOnUse" gradientTransform="translate(10.4143 3.068) rotate(128.737) scale(2.73426 3.63586)">
<stop stop-color="#FF7383"/>
<stop offset="1" stop-color="#FF7383" stop-opacity="0"/>
</radialGradient>
<radialGradient id="paint8_radial_20_33" cx="0" cy="0" r="1" gradientUnits="userSpaceOnUse" gradientTransform="translate(6.12936 5.19) rotate(-135.591) scale(4.75729 8.445)">
<stop stop-color="#FF6274"/>
<stop offset="1" stop-color="#FF6274" stop-opacity="0"/>
</radialGradient>
</defs>
</svg>
