<svg width="12" height="12" viewBox="0 0 12 12" fill="none" xmlns="http://www.w3.org/2000/svg">
<g filter="url(#filter0_iii_17_22)">
<path d="M5.26313 1.332L6.86213 4.0635L4.60613 4.70475C3.048 4.18988 2.13038 3.19875 1.57688 2.18025C1.34363 1.7505 1.3455 0.961502 2.27288 0.961502H4.61588C4.74674 0.961479 4.87534 0.995699 4.98888 1.06076C5.10243 1.12582 5.19697 1.21909 5.26313 1.332Z" fill="#4686EC"/>
<path d="M5.26313 1.332L6.86213 4.0635L4.60613 4.70475C3.048 4.18988 2.13038 3.19875 1.57688 2.18025C1.34363 1.7505 1.3455 0.961502 2.27288 0.961502H4.61588C4.74674 0.961479 4.87534 0.995699 4.98888 1.06076C5.10243 1.12582 5.19697 1.21909 5.26313 1.332Z" fill="url(#paint0_radial_17_22)"/>
<path d="M5.26313 1.332L6.86213 4.0635L4.60613 4.70475C3.048 4.18988 2.13038 3.19875 1.57688 2.18025C1.34363 1.7505 1.3455 0.961502 2.27288 0.961502H4.61588C4.74674 0.961479 4.87534 0.995699 4.98888 1.06076C5.10243 1.12582 5.19697 1.21909 5.26313 1.332Z" fill="url(#paint1_linear_17_22)"/>
</g>
<g filter="url(#filter1_iii_17_22)">
<path d="M6.67951 1.332L5.08051 4.0635L7.33651 4.70475C8.89463 4.1895 9.81226 3.19837 10.3658 2.17987C10.599 1.75012 10.5971 0.961121 9.66976 0.961121H7.32676C7.19589 0.961098 7.0673 0.995317 6.95375 1.06038C6.8402 1.12544 6.74566 1.21908 6.67951 1.332Z" fill="#4686EC"/>
<path d="M6.67951 1.332L5.08051 4.0635L7.33651 4.70475C8.89463 4.1895 9.81226 3.19837 10.3658 2.17987C10.599 1.75012 10.5971 0.961121 9.66976 0.961121H7.32676C7.19589 0.961098 7.0673 0.995317 6.95375 1.06038C6.8402 1.12544 6.74566 1.21908 6.67951 1.332Z" fill="url(#paint2_radial_17_22)"/>
<path d="M6.67951 1.332L5.08051 4.0635L7.33651 4.70475C8.89463 4.1895 9.81226 3.19837 10.3658 2.17987C10.599 1.75012 10.5971 0.961121 9.66976 0.961121H7.32676C7.19589 0.961098 7.0673 0.995317 6.95375 1.06038C6.8402 1.12544 6.74566 1.21908 6.67951 1.332Z" fill="url(#paint3_linear_17_22)"/>
</g>
<path d="M6.67951 1.332L5.08051 4.0635L7.33651 4.70475C8.89463 4.1895 9.81226 3.19837 10.3658 2.17987C10.599 1.75012 10.5971 0.961121 9.66976 0.961121H7.32676C7.19589 0.961098 7.0673 0.995317 6.95375 1.06038C6.8402 1.12544 6.74566 1.21908 6.67951 1.332Z" fill="url(#paint4_linear_17_22)"/>
<path d="M6.01763 11.3175C8.09864 11.3175 9.78563 9.6305 9.78563 7.54949C9.78563 5.46849 8.09864 3.78149 6.01763 3.78149C3.93663 3.78149 2.24963 5.46849 2.24963 7.54949C2.24963 9.6305 3.93663 11.3175 6.01763 11.3175Z" fill="url(#paint5_linear_17_22)"/>
<path d="M6.01763 11.3175C8.09864 11.3175 9.78563 9.6305 9.78563 7.54949C9.78563 5.46849 8.09864 3.78149 6.01763 3.78149C3.93663 3.78149 2.24963 5.46849 2.24963 7.54949C2.24963 9.6305 3.93663 11.3175 6.01763 11.3175Z" fill="url(#paint6_linear_17_22)"/>
<path d="M6.01764 10.8075C7.81699 10.8075 9.27564 9.34883 9.27564 7.54949C9.27564 5.75014 7.81699 4.29149 6.01764 4.29149C4.2183 4.29149 2.75964 5.75014 2.75964 7.54949C2.75964 9.34883 4.2183 10.8075 6.01764 10.8075Z" fill="url(#paint7_linear_17_22)"/>
<path d="M6.01765 10.3939C7.58856 10.3939 8.86203 9.1204 8.86203 7.5495C8.86203 5.97859 7.58856 4.70512 6.01765 4.70512C4.44675 4.70512 3.17328 5.97859 3.17328 7.5495C3.17328 9.1204 4.44675 10.3939 6.01765 10.3939Z" fill="url(#paint8_linear_17_22)"/>
<path d="M6.01765 10.3939C7.58856 10.3939 8.86203 9.1204 8.86203 7.5495C8.86203 5.97859 7.58856 4.70512 6.01765 4.70512C4.44675 4.70512 3.17328 5.97859 3.17328 7.5495C3.17328 9.1204 4.44675 10.3939 6.01765 10.3939Z" fill="url(#paint9_radial_17_22)"/>
<path d="M6.01765 10.3939C7.58856 10.3939 8.86203 9.1204 8.86203 7.5495C8.86203 5.97859 7.58856 4.70512 6.01765 4.70512C4.44675 4.70512 3.17328 5.97859 3.17328 7.5495C3.17328 9.1204 4.44675 10.3939 6.01765 10.3939Z" fill="url(#paint10_radial_17_22)"/>
<g filter="url(#filter2_ii_17_22)">
<path d="M6.45753 6.3C6.45753 6.22043 6.42592 6.14413 6.36966 6.08787C6.3134 6.03161 6.23709 6 6.15753 6H5.43003C5.39025 6 5.35209 6.0158 5.32396 6.04393C5.29583 6.07206 5.28003 6.11022 5.28003 6.15V6.59137C5.28003 6.67387 5.34678 6.74137 5.43003 6.74137H5.59615C5.62102 6.74137 5.64486 6.75125 5.66245 6.76883C5.68003 6.78641 5.6899 6.81026 5.6899 6.83512V9C5.6899 9.04973 5.70966 9.09742 5.74482 9.13258C5.77998 9.16775 5.82768 9.1875 5.8774 9.1875H6.27003C6.31976 9.1875 6.36745 9.16775 6.40261 9.13258C6.43777 9.09742 6.45753 9.04973 6.45753 9V6.3Z" fill="#6F3955"/>
</g>
<path d="M6.45753 6.3C6.45753 6.22043 6.42592 6.14413 6.36966 6.08787C6.3134 6.03161 6.23709 6 6.15753 6H5.43003C5.39025 6 5.35209 6.0158 5.32396 6.04393C5.29583 6.07206 5.28003 6.11022 5.28003 6.15V6.59137C5.28003 6.67387 5.34678 6.74137 5.43003 6.74137H5.59615C5.62102 6.74137 5.64486 6.75125 5.66245 6.76883C5.68003 6.78641 5.6899 6.81026 5.6899 6.83512V9C5.6899 9.04973 5.70966 9.09742 5.74482 9.13258C5.77998 9.16775 5.82768 9.1875 5.8774 9.1875H6.27003C6.31976 9.1875 6.36745 9.16775 6.40261 9.13258C6.43777 9.09742 6.45753 9.04973 6.45753 9V6.3Z" fill="url(#paint11_linear_17_22)"/>
<defs>
<filter id="filter0_iii_17_22" x="1.35382" y="0.886502" width="5.5833" height="3.91201" filterUnits="userSpaceOnUse" color-interpolation-filters="sRGB">
<feFlood flood-opacity="0" result="BackgroundImageFix"/>
<feBlend mode="normal" in="SourceGraphic" in2="BackgroundImageFix" result="shape"/>
<feColorMatrix in="SourceAlpha" type="matrix" values="0 0 0 0 0 0 0 0 0 0 0 0 0 0 0 0 0 0 127 0" result="hardAlpha"/>
<feOffset dx="-0.075" dy="-0.075"/>
<feGaussianBlur stdDeviation="0.075"/>
<feComposite in2="hardAlpha" operator="arithmetic" k2="-1" k3="1"/>
<feColorMatrix type="matrix" values="0 0 0 0 0.317647 0 0 0 0 0.458824 0 0 0 0 0.886275 0 0 0 1 0"/>
<feBlend mode="normal" in2="shape" result="effect1_innerShadow_17_22"/>
<feColorMatrix in="SourceAlpha" type="matrix" values="0 0 0 0 0 0 0 0 0 0 0 0 0 0 0 0 0 0 127 0" result="hardAlpha"/>
<feOffset dx="0.075" dy="0.075"/>
<feGaussianBlur stdDeviation="0.075"/>
<feComposite in2="hardAlpha" operator="arithmetic" k2="-1" k3="1"/>
<feColorMatrix type="matrix" values="0 0 0 0 0.317647 0 0 0 0 0.458824 0 0 0 0 0.886275 0 0 0 1 0"/>
<feBlend mode="normal" in2="effect1_innerShadow_17_22" result="effect2_innerShadow_17_22"/>
<feColorMatrix in="SourceAlpha" type="matrix" values="0 0 0 0 0 0 0 0 0 0 0 0 0 0 0 0 0 0 127 0" result="hardAlpha"/>
<feOffset dx="-0.09375" dy="0.09375"/>
<feGaussianBlur stdDeviation="0.09375"/>
<feComposite in2="hardAlpha" operator="arithmetic" k2="-1" k3="1"/>
<feColorMatrix type="matrix" values="0 0 0 0 0.372549 0 0 0 0 0.607843 0 0 0 0 0.960784 0 0 0 1 0"/>
<feBlend mode="normal" in2="effect2_innerShadow_17_22" result="effect3_innerShadow_17_22"/>
</filter>
<filter id="filter1_iii_17_22" x="4.98676" y="0.886121" width="5.5833" height="3.91237" filterUnits="userSpaceOnUse" color-interpolation-filters="sRGB">
<feFlood flood-opacity="0" result="BackgroundImageFix"/>
<feBlend mode="normal" in="SourceGraphic" in2="BackgroundImageFix" result="shape"/>
<feColorMatrix in="SourceAlpha" type="matrix" values="0 0 0 0 0 0 0 0 0 0 0 0 0 0 0 0 0 0 127 0" result="hardAlpha"/>
<feOffset dx="-0.075" dy="-0.075"/>
<feGaussianBlur stdDeviation="0.075"/>
<feComposite in2="hardAlpha" operator="arithmetic" k2="-1" k3="1"/>
<feColorMatrix type="matrix" values="0 0 0 0 0.317647 0 0 0 0 0.458824 0 0 0 0 0.886275 0 0 0 1 0"/>
<feBlend mode="normal" in2="shape" result="effect1_innerShadow_17_22"/>
<feColorMatrix in="SourceAlpha" type="matrix" values="0 0 0 0 0 0 0 0 0 0 0 0 0 0 0 0 0 0 127 0" result="hardAlpha"/>
<feOffset dx="0.075" dy="0.075"/>
<feGaussianBlur stdDeviation="0.075"/>
<feComposite in2="hardAlpha" operator="arithmetic" k2="-1" k3="1"/>
<feColorMatrix type="matrix" values="0 0 0 0 0.317647 0 0 0 0 0.458824 0 0 0 0 0.886275 0 0 0 1 0"/>
<feBlend mode="normal" in2="effect1_innerShadow_17_22" result="effect2_innerShadow_17_22"/>
<feColorMatrix in="SourceAlpha" type="matrix" values="0 0 0 0 0 0 0 0 0 0 0 0 0 0 0 0 0 0 127 0" result="hardAlpha"/>
<feOffset dx="-0.09375" dy="0.09375"/>
<feGaussianBlur stdDeviation="0.09375"/>
<feComposite in2="hardAlpha" operator="arithmetic" k2="-1" k3="1"/>
<feColorMatrix type="matrix" values="0 0 0 0 0.372549 0 0 0 0 0.607843 0 0 0 0 0.960784 0 0 0 1 0"/>
<feBlend mode="normal" in2="effect2_innerShadow_17_22" result="effect3_innerShadow_17_22"/>
</filter>
<filter id="filter2_ii_17_22" x="5.16753" y="5.925" width="1.36499" height="3.375" filterUnits="userSpaceOnUse" color-interpolation-filters="sRGB">
<feFlood flood-opacity="0" result="BackgroundImageFix"/>
<feBlend mode="normal" in="SourceGraphic" in2="BackgroundImageFix" result="shape"/>
<feColorMatrix in="SourceAlpha" type="matrix" values="0 0 0 0 0 0 0 0 0 0 0 0 0 0 0 0 0 0 127 0" result="hardAlpha"/>
<feOffset dx="-0.1125" dy="0.1125"/>
<feGaussianBlur stdDeviation="0.1125"/>
<feComposite in2="hardAlpha" operator="arithmetic" k2="-1" k3="1"/>
<feColorMatrix type="matrix" values="0 0 0 0 0.392157 0 0 0 0 0.164706 0 0 0 0 0.254902 0 0 0 1 0"/>
<feBlend mode="normal" in2="shape" result="effect1_innerShadow_17_22"/>
<feColorMatrix in="SourceAlpha" type="matrix" values="0 0 0 0 0 0 0 0 0 0 0 0 0 0 0 0 0 0 127 0" result="hardAlpha"/>
<feOffset dx="0.075" dy="-0.075"/>
<feGaussianBlur stdDeviation="0.075"/>
<feComposite in2="hardAlpha" operator="arithmetic" k2="-1" k3="1"/>
<feColorMatrix type="matrix" values="0 0 0 0 0.501961 0 0 0 0 0.333333 0 0 0 0 0.360784 0 0 0 1 0"/>
<feBlend mode="normal" in2="effect1_innerShadow_17_22" result="effect2_innerShadow_17_22"/>
</filter>
<radialGradient id="paint0_radial_17_22" cx="0" cy="0" r="1" gradientUnits="userSpaceOnUse" gradientTransform="translate(4.91386 4.44046) rotate(-123.321) scale(1.72632 6.44711)">
<stop stop-color="#3669D9"/>
<stop offset="1" stop-color="#3669D9" stop-opacity="0"/>
</radialGradient>
<linearGradient id="paint1_linear_17_22" x1="2.46825" y1="0.758627" x2="3.14138" y2="2.43488" gradientUnits="userSpaceOnUse">
<stop stop-color="#3D89EC"/>
<stop offset="1" stop-color="#3D89EC" stop-opacity="0"/>
</linearGradient>
<radialGradient id="paint2_radial_17_22" cx="0" cy="0" r="1" gradientUnits="userSpaceOnUse" gradientTransform="translate(7.02887 4.44072) rotate(-57.265) scale(1.14326 2.50775)">
<stop stop-color="#3669D9"/>
<stop offset="1" stop-color="#3669D9" stop-opacity="0"/>
</radialGradient>
<linearGradient id="paint3_linear_17_22" x1="9.47438" y1="0.75862" x2="8.80126" y2="2.43487" gradientUnits="userSpaceOnUse">
<stop stop-color="#3D89EC"/>
<stop offset="1" stop-color="#3D89EC" stop-opacity="0"/>
</linearGradient>
<linearGradient id="paint4_linear_17_22" x1="5.90588" y1="2.64862" x2="6.03226" y2="2.71875" gradientUnits="userSpaceOnUse">
<stop stop-color="#1A6DD8"/>
<stop offset="1" stop-color="#1A6DD8" stop-opacity="0"/>
</linearGradient>
<linearGradient id="paint5_linear_17_22" x1="8.03176" y1="6.21374" x2="5.40488" y2="8.78774" gradientUnits="userSpaceOnUse">
<stop stop-color="#F4C654"/>
<stop offset="1" stop-color="#DC9729"/>
</linearGradient>
<linearGradient id="paint6_linear_17_22" x1="4.70101" y1="11.5005" x2="5.55076" y2="6.57262" gradientUnits="userSpaceOnUse">
<stop stop-color="#FA8547"/>
<stop offset="1" stop-color="#FA8547" stop-opacity="0"/>
</linearGradient>
<linearGradient id="paint7_linear_17_22" x1="8.98614" y1="6.97986" x2="6.01764" y2="6.97986" gradientUnits="userSpaceOnUse">
<stop stop-color="#F9A842"/>
<stop offset="1" stop-color="#FAA742"/>
</linearGradient>
<linearGradient id="paint8_linear_17_22" x1="4.7029" y1="7.18875" x2="8.94565" y2="7.18875" gradientUnits="userSpaceOnUse">
<stop stop-color="#FAA945"/>
<stop offset="1" stop-color="#EC9936"/>
</linearGradient>
<radialGradient id="paint9_radial_17_22" cx="0" cy="0" r="1" gradientUnits="userSpaceOnUse" gradientTransform="translate(7.12053 7.5495) rotate(180) scale(3.94714 3.36339)">
<stop offset="0.893" stop-color="#F7B44D" stop-opacity="0"/>
<stop offset="1" stop-color="#F7B44D"/>
</radialGradient>
<radialGradient id="paint10_radial_17_22" cx="0" cy="0" r="1" gradientUnits="userSpaceOnUse" gradientTransform="translate(5.27928 7.5495) scale(3.798 3.33051)">
<stop offset="0.879" stop-color="#D2801F" stop-opacity="0"/>
<stop offset="0.983" stop-color="#D2801F"/>
</radialGradient>
<linearGradient id="paint11_linear_17_22" x1="6.15865" y1="9.1875" x2="6.15865" y2="8.88112" gradientUnits="userSpaceOnUse">
<stop stop-color="#693B2E"/>
<stop offset="1" stop-color="#693B2E" stop-opacity="0"/>
</linearGradient>
</defs>
</svg>
