<svg width="12" height="12" viewBox="0 0 12 12" fill="none" xmlns="http://www.w3.org/2000/svg">
<g filter="url(#filter0_i_15_60)">
<path d="M4.50298 6.20924C4.7497 6.08085 4.94619 5.87336 5.06097 5.62002C5.17574 5.36667 5.20215 5.08213 5.13598 4.81199C5.06981 4.54185 4.91487 4.30173 4.696 4.13012C4.47713 3.9585 4.20699 3.86532 3.92885 3.86549C3.64959 3.86548 3.37846 3.95953 3.15919 4.13247C2.93992 4.30541 2.78528 4.54716 2.72023 4.81874C2.70215 4.89175 2.66465 4.9585 2.6117 5.01191C2.55875 5.06532 2.49232 5.10341 2.41948 5.12212C2.24068 5.1665 2.0741 5.25039 1.93198 5.36761C1.78986 5.48483 1.67581 5.63241 1.59822 5.7995C1.52063 5.96658 1.48146 6.14894 1.48361 6.33315C1.48575 6.51736 1.52915 6.69876 1.6106 6.86399C1.63993 6.92582 1.6489 6.99535 1.63623 7.06259C1.62356 7.12983 1.58991 7.19133 1.5401 7.23824C1.36318 7.40031 1.23932 7.61203 1.18476 7.84568C1.13021 8.07933 1.14749 8.324 1.23435 8.54766C1.32121 8.77132 1.4736 8.96353 1.67155 9.09911C1.86951 9.23469 2.1038 9.30733 2.34373 9.30749H4.5026L4.50298 6.20924Z" fill="url(#paint0_linear_15_60)"/>
<path d="M4.50298 6.20924C4.7497 6.08085 4.94619 5.87336 5.06097 5.62002C5.17574 5.36667 5.20215 5.08213 5.13598 4.81199C5.06981 4.54185 4.91487 4.30173 4.696 4.13012C4.47713 3.9585 4.20699 3.86532 3.92885 3.86549C3.64959 3.86548 3.37846 3.95953 3.15919 4.13247C2.93992 4.30541 2.78528 4.54716 2.72023 4.81874C2.70215 4.89175 2.66465 4.9585 2.6117 5.01191C2.55875 5.06532 2.49232 5.10341 2.41948 5.12212C2.24068 5.1665 2.0741 5.25039 1.93198 5.36761C1.78986 5.48483 1.67581 5.63241 1.59822 5.7995C1.52063 5.96658 1.48146 6.14894 1.48361 6.33315C1.48575 6.51736 1.52915 6.69876 1.6106 6.86399C1.63993 6.92582 1.6489 6.99535 1.63623 7.06259C1.62356 7.12983 1.58991 7.19133 1.5401 7.23824C1.36318 7.40031 1.23932 7.61203 1.18476 7.84568C1.13021 8.07933 1.14749 8.324 1.23435 8.54766C1.32121 8.77132 1.4736 8.96353 1.67155 9.09911C1.86951 9.23469 2.1038 9.30733 2.34373 9.30749H4.5026L4.50298 6.20924Z" fill="url(#paint1_linear_15_60)"/>
<path d="M4.50298 6.20924C4.7497 6.08085 4.94619 5.87336 5.06097 5.62002C5.17574 5.36667 5.20215 5.08213 5.13598 4.81199C5.06981 4.54185 4.91487 4.30173 4.696 4.13012C4.47713 3.9585 4.20699 3.86532 3.92885 3.86549C3.64959 3.86548 3.37846 3.95953 3.15919 4.13247C2.93992 4.30541 2.78528 4.54716 2.72023 4.81874C2.70215 4.89175 2.66465 4.9585 2.6117 5.01191C2.55875 5.06532 2.49232 5.10341 2.41948 5.12212C2.24068 5.1665 2.0741 5.25039 1.93198 5.36761C1.78986 5.48483 1.67581 5.63241 1.59822 5.7995C1.52063 5.96658 1.48146 6.14894 1.48361 6.33315C1.48575 6.51736 1.52915 6.69876 1.6106 6.86399C1.63993 6.92582 1.6489 6.99535 1.63623 7.06259C1.62356 7.12983 1.58991 7.19133 1.5401 7.23824C1.36318 7.40031 1.23932 7.61203 1.18476 7.84568C1.13021 8.07933 1.14749 8.324 1.23435 8.54766C1.32121 8.77132 1.4736 8.96353 1.67155 9.09911C1.86951 9.23469 2.1038 9.30733 2.34373 9.30749H4.5026L4.50298 6.20924Z" fill="url(#paint2_radial_15_60)"/>
</g>
<g filter="url(#filter1_f_15_60)">
<path d="M2.65625 9.07092C3.04789 8.86969 3.16518 8.31695 2.91823 7.83634C2.67128 7.35573 2.15361 7.12925 1.76198 7.33048C1.37034 7.53171 1.25305 8.08445 1.49999 8.56506C1.74694 9.04567 2.26461 9.27215 2.65625 9.07092Z" fill="url(#paint3_radial_15_60)"/>
</g>
<g filter="url(#filter2_f_15_60)">
<path d="M1.80503 6.7583C2.08315 7.09589 2.64735 7.09051 3.06519 6.74628C3.48303 6.40205 3.59629 5.84931 3.31817 5.51171C3.04004 5.17411 2.47585 5.17949 2.05801 5.52373C1.64016 5.86796 1.5269 6.4207 1.80503 6.7583Z" fill="url(#paint4_radial_15_60)"/>
</g>
<path d="M3.76502 2.86199C3.76502 2.82718 3.77885 2.7938 3.80347 2.76919C3.82808 2.74457 3.86146 2.73074 3.89627 2.73074H4.75277C4.78758 2.73074 4.82097 2.74457 4.84558 2.76919C4.8702 2.7938 4.88402 2.82718 4.88402 2.86199V5.96774H3.76465L3.76502 2.86199Z" fill="url(#paint5_radial_15_60)"/>
<path d="M3.76502 2.86199C3.76502 2.82718 3.77885 2.7938 3.80347 2.76919C3.82808 2.74457 3.86146 2.73074 3.89627 2.73074H4.75277C4.78758 2.73074 4.82097 2.74457 4.84558 2.76919C4.8702 2.7938 4.88402 2.82718 4.88402 2.86199V5.96774H3.76465L3.76502 2.86199Z" fill="url(#paint6_linear_15_60)"/>
<path d="M3.76502 2.86199C3.76502 2.82718 3.77885 2.7938 3.80347 2.76919C3.82808 2.74457 3.86146 2.73074 3.89627 2.73074H4.75277C4.78758 2.73074 4.82097 2.74457 4.84558 2.76919C4.8702 2.7938 4.88402 2.82718 4.88402 2.86199V5.96774H3.76465L3.76502 2.86199Z" fill="url(#paint7_linear_15_60)"/>
<path d="M3.76502 2.86199C3.76502 2.82718 3.77885 2.7938 3.80347 2.76919C3.82808 2.74457 3.86146 2.73074 3.89627 2.73074H4.75277C4.78758 2.73074 4.82097 2.74457 4.84558 2.76919C4.8702 2.7938 4.88402 2.82718 4.88402 2.86199V5.96774H3.76465L3.76502 2.86199Z" fill="url(#paint8_linear_15_60)"/>
<path d="M3.76502 2.86199C3.76502 2.82718 3.77885 2.7938 3.80347 2.76919C3.82808 2.74457 3.86146 2.73074 3.89627 2.73074H4.75277C4.78758 2.73074 4.82097 2.74457 4.84558 2.76919C4.8702 2.7938 4.88402 2.82718 4.88402 2.86199V5.96774H3.76465L3.76502 2.86199Z" fill="url(#paint9_radial_15_60)"/>
<path d="M10.0988 10.5124H3.31238V6.27863L6.70538 2.89238L10.098 6.27863L10.0988 10.5124Z" fill="url(#paint10_linear_15_60)"/>
<path d="M10.0988 10.5124H3.31238V6.27863L6.70538 2.89238L10.098 6.27863L10.0988 10.5124Z" fill="url(#paint11_linear_15_60)"/>
<path d="M10.0988 10.5124H3.31238V6.27863L6.70538 2.89238L10.098 6.27863L10.0988 10.5124Z" fill="url(#paint12_radial_15_60)"/>
<path d="M10.0988 10.5124H3.31238V6.27863L6.70538 2.89238L10.098 6.27863L10.0988 10.5124Z" fill="url(#paint13_linear_15_60)"/>
<path d="M10.0988 10.5124H3.31238V6.27863L6.70538 2.89238L10.098 6.27863L10.0988 10.5124Z" fill="url(#paint14_radial_15_60)"/>
<path d="M10.0988 10.5124H3.31238V6.27863L6.70538 2.89238L10.098 6.27863L10.0988 10.5124Z" fill="url(#paint15_linear_15_60)"/>
<path d="M10.0988 10.5124H3.31238V6.27863L6.70538 2.89238L10.098 6.27863L10.0988 10.5124Z" fill="url(#paint16_linear_15_60)"/>
<g filter="url(#filter3_f_15_60)">
<path d="M6.36491 10.5124H4.17828V7.401C4.17828 7.164 4.34591 6.96938 4.54991 6.96938H5.99328C6.19728 6.96938 6.36453 7.164 6.36453 7.401L6.36491 10.5124Z" fill="url(#paint17_linear_15_60)"/>
</g>
<g filter="url(#filter4_f_15_60)">
<path d="M3.85876 10.2878H6.89626V10.644H3.85876V10.2878Z" fill="#68552B"/>
</g>
<g filter="url(#filter5_i_15_60)">
<path d="M9.06824 8.694H7.74899C7.7143 8.69405 7.67995 8.68725 7.6479 8.674C7.61585 8.66075 7.58672 8.64131 7.5622 8.61678C7.53768 8.59226 7.51823 8.56314 7.50498 8.53108C7.49173 8.49903 7.48494 8.46468 7.48499 8.43V7.11075C7.48499 6.96262 7.60536 6.84712 7.74899 6.84712H9.06786C9.21599 6.84712 9.33186 6.96712 9.33186 7.11075V8.43C9.33226 8.46478 9.32571 8.49929 9.31258 8.5315C9.29946 8.56371 9.28003 8.59297 9.25543 8.61757C9.23084 8.64216 9.20158 8.6616 9.16936 8.67472C9.13715 8.68784 9.10302 8.6944 9.06824 8.694Z" fill="url(#paint18_linear_15_60)"/>
<path d="M9.06824 8.694H7.74899C7.7143 8.69405 7.67995 8.68725 7.6479 8.674C7.61585 8.66075 7.58672 8.64131 7.5622 8.61678C7.53768 8.59226 7.51823 8.56314 7.50498 8.53108C7.49173 8.49903 7.48494 8.46468 7.48499 8.43V7.11075C7.48499 6.96262 7.60536 6.84712 7.74899 6.84712H9.06786C9.21599 6.84712 9.33186 6.96712 9.33186 7.11075V8.43C9.33226 8.46478 9.32571 8.49929 9.31258 8.5315C9.29946 8.56371 9.28003 8.59297 9.25543 8.61757C9.23084 8.64216 9.20158 8.6616 9.16936 8.67472C9.13715 8.68784 9.10302 8.6944 9.06824 8.694Z" fill="url(#paint19_linear_15_60)"/>
</g>
<path d="M9.06824 8.694H7.74899C7.7143 8.69405 7.67995 8.68725 7.6479 8.674C7.61585 8.66075 7.58672 8.64131 7.5622 8.61678C7.53768 8.59226 7.51823 8.56314 7.50498 8.53108C7.49173 8.49903 7.48494 8.46468 7.48499 8.43V7.11075C7.48499 6.96262 7.60536 6.84712 7.74899 6.84712H9.06786C9.21599 6.84712 9.33186 6.96712 9.33186 7.11075V8.43C9.33226 8.46478 9.32571 8.49929 9.31258 8.5315C9.29946 8.56371 9.28003 8.59297 9.25543 8.61757C9.23084 8.64216 9.20158 8.6616 9.16936 8.67472C9.13715 8.68784 9.10302 8.6944 9.06824 8.694Z" fill="url(#paint20_linear_15_60)"/>
<path d="M9.06824 8.694H7.74899C7.7143 8.69405 7.67995 8.68725 7.6479 8.674C7.61585 8.66075 7.58672 8.64131 7.5622 8.61678C7.53768 8.59226 7.51823 8.56314 7.50498 8.53108C7.49173 8.49903 7.48494 8.46468 7.48499 8.43V7.11075C7.48499 6.96262 7.60536 6.84712 7.74899 6.84712H9.06786C9.21599 6.84712 9.33186 6.96712 9.33186 7.11075V8.43C9.33226 8.46478 9.32571 8.49929 9.31258 8.5315C9.29946 8.56371 9.28003 8.59297 9.25543 8.61757C9.23084 8.64216 9.20158 8.6616 9.16936 8.67472C9.13715 8.68784 9.10302 8.6944 9.06824 8.694Z" fill="url(#paint21_linear_15_60)"/>
<g filter="url(#filter6_ii_15_60)">
<path d="M6.73989 10.1557H4.30127V7.20637C4.30127 6.98137 4.48802 6.79724 4.71564 6.79724H6.32514C6.55277 6.79724 6.73989 6.98174 6.73989 7.20599V10.1557Z" fill="url(#paint22_linear_15_60)"/>
</g>
<g filter="url(#filter7_f_15_60)">
<path d="M6.129 8.71087C6.17559 8.71087 6.22028 8.69236 6.25323 8.65941C6.28617 8.62647 6.30468 8.58178 6.30468 8.53518C6.30468 8.48859 6.28617 8.4439 6.25323 8.41095C6.22028 8.37801 6.17559 8.3595 6.129 8.3595C6.0824 8.3595 6.03771 8.37801 6.00477 8.41095C5.97182 8.4439 5.95331 8.48859 5.95331 8.53518C5.95331 8.58178 5.97182 8.62647 6.00477 8.65941C6.03771 8.69236 6.0824 8.71087 6.129 8.71087Z" fill="#62393D"/>
</g>
<g filter="url(#filter8_ii_15_60)">
<path d="M6.17475 8.68425C6.22179 8.68425 6.26691 8.66556 6.30017 8.6323C6.33344 8.59903 6.35213 8.55392 6.35213 8.50687C6.35213 8.45983 6.33344 8.41471 6.30017 8.38145C6.26691 8.34819 6.22179 8.3295 6.17475 8.3295C6.12771 8.3295 6.08259 8.34819 6.04933 8.38145C6.01606 8.41471 5.99738 8.45983 5.99738 8.50687C5.99738 8.55392 6.01606 8.59903 6.04933 8.6323C6.08259 8.66556 6.12771 8.68425 6.17475 8.68425Z" fill="#895D56"/>
</g>
<path d="M10.9857 6.3195L6.97315 2.36625C6.90146 2.2948 6.80437 2.25468 6.70315 2.25468C6.60193 2.25468 6.50485 2.2948 6.43315 2.36625C6.43315 2.36625 6.4294 2.36625 6.4294 2.37037L2.40753 6.32775C2.37218 6.36238 2.34411 6.40372 2.32494 6.44934C2.30577 6.49496 2.2959 6.54395 2.2959 6.59344C2.2959 6.64292 2.30577 6.69191 2.32494 6.73753C2.34411 6.78315 2.37218 6.82449 2.40753 6.85912C2.47969 6.92967 2.5766 6.96917 2.67753 6.96917C2.77845 6.96917 2.87536 6.92967 2.94753 6.85912L6.6349 3.22612C6.65244 3.20883 6.67608 3.19914 6.70071 3.19914C6.72534 3.19914 6.74898 3.20883 6.76653 3.22612L10.4415 6.84637C10.5132 6.91782 10.6103 6.95794 10.7115 6.95794C10.8127 6.95794 10.9098 6.91782 10.9815 6.84637C11.13 6.6975 11.1345 6.46387 10.9857 6.3195Z" fill="url(#paint23_linear_15_60)"/>
<path d="M3.98737 10.437C3.98737 10.3624 4.017 10.2909 4.06974 10.2381C4.12249 10.1854 4.19402 10.1557 4.26862 10.1557H6.74362C6.81821 10.1557 6.88974 10.1854 6.94249 10.2381C6.99523 10.2909 7.02487 10.3624 7.02487 10.437V10.512H3.98737V10.437Z" fill="url(#paint24_linear_15_60)"/>
<path d="M3.98737 10.437C3.98737 10.3624 4.017 10.2909 4.06974 10.2381C4.12249 10.1854 4.19402 10.1557 4.26862 10.1557H6.74362C6.81821 10.1557 6.88974 10.1854 6.94249 10.2381C6.99523 10.2909 7.02487 10.3624 7.02487 10.437V10.512H3.98737V10.437Z" fill="url(#paint25_linear_15_60)"/>
<path d="M3.98737 10.437C3.98737 10.3624 4.017 10.2909 4.06974 10.2381C4.12249 10.1854 4.19402 10.1557 4.26862 10.1557H6.74362C6.81821 10.1557 6.88974 10.1854 6.94249 10.2381C6.99523 10.2909 7.02487 10.3624 7.02487 10.437V10.512H3.98737V10.437Z" fill="url(#paint26_linear_15_60)"/>
<g filter="url(#filter9_i_15_60)">
<path d="M0.778503 11.268C0.778503 10.8506 1.11675 10.5124 1.53413 10.5124H10.4663C10.8836 10.5124 11.2219 10.8506 11.2219 11.268H0.778503Z" fill="#3FD47B"/>
</g>
<path d="M0.778503 11.268C0.778503 10.8506 1.11675 10.5124 1.53413 10.5124H10.4663C10.8836 10.5124 11.2219 10.8506 11.2219 11.268H0.778503Z" fill="url(#paint27_linear_15_60)"/>
<path d="M0.778503 11.268C0.778503 10.8506 1.11675 10.5124 1.53413 10.5124H10.4663C10.8836 10.5124 11.2219 10.8506 11.2219 11.268H0.778503Z" fill="url(#paint28_radial_15_60)"/>
<path d="M0.778503 11.268C0.778503 10.8506 1.11675 10.5124 1.53413 10.5124H10.4663C10.8836 10.5124 11.2219 10.8506 11.2219 11.268H0.778503Z" fill="url(#paint29_radial_15_60)"/>
<g filter="url(#filter10_i_15_60)">
<path d="M9.71136 11.268C9.93405 11.1881 10.1268 11.0415 10.2633 10.8483C10.3999 10.6551 10.4738 10.4246 10.4749 10.188C10.4749 9.55163 9.95099 9.036 9.30524 9.036C9.11827 9.03543 8.93387 9.07954 8.7674 9.16466C8.60094 9.24979 8.45722 9.37346 8.34824 9.52538C8.21886 9.7065 8.03174 9.85388 7.84499 9.97463C7.73484 10.0451 7.64416 10.1422 7.58126 10.2568C7.51836 10.3715 7.48526 10.5001 7.48499 10.6309C7.48499 10.8934 7.61549 11.1259 7.81611 11.2684L9.71136 11.268Z" fill="#2EAD69"/>
<path d="M9.71136 11.268C9.93405 11.1881 10.1268 11.0415 10.2633 10.8483C10.3999 10.6551 10.4738 10.4246 10.4749 10.188C10.4749 9.55163 9.95099 9.036 9.30524 9.036C9.11827 9.03543 8.93387 9.07954 8.7674 9.16466C8.60094 9.24979 8.45722 9.37346 8.34824 9.52538C8.21886 9.7065 8.03174 9.85388 7.84499 9.97463C7.73484 10.0451 7.64416 10.1422 7.58126 10.2568C7.51836 10.3715 7.48526 10.5001 7.48499 10.6309C7.48499 10.8934 7.61549 11.1259 7.81611 11.2684L9.71136 11.268Z" fill="url(#paint30_linear_15_60)"/>
<path d="M9.71136 11.268C9.93405 11.1881 10.1268 11.0415 10.2633 10.8483C10.3999 10.6551 10.4738 10.4246 10.4749 10.188C10.4749 9.55163 9.95099 9.036 9.30524 9.036C9.11827 9.03543 8.93387 9.07954 8.7674 9.16466C8.60094 9.24979 8.45722 9.37346 8.34824 9.52538C8.21886 9.7065 8.03174 9.85388 7.84499 9.97463C7.73484 10.0451 7.64416 10.1422 7.58126 10.2568C7.51836 10.3715 7.48526 10.5001 7.48499 10.6309C7.48499 10.8934 7.61549 11.1259 7.81611 11.2684L9.71136 11.268Z" fill="url(#paint31_radial_15_60)"/>
<path d="M9.71136 11.268C9.93405 11.1881 10.1268 11.0415 10.2633 10.8483C10.3999 10.6551 10.4738 10.4246 10.4749 10.188C10.4749 9.55163 9.95099 9.036 9.30524 9.036C9.11827 9.03543 8.93387 9.07954 8.7674 9.16466C8.60094 9.24979 8.45722 9.37346 8.34824 9.52538C8.21886 9.7065 8.03174 9.85388 7.84499 9.97463C7.73484 10.0451 7.64416 10.1422 7.58126 10.2568C7.51836 10.3715 7.48526 10.5001 7.48499 10.6309C7.48499 10.8934 7.61549 11.1259 7.81611 11.2684L9.71136 11.268Z" fill="url(#paint32_radial_15_60)"/>
</g>
<path d="M9.71136 11.268C9.93405 11.1881 10.1268 11.0415 10.2633 10.8483C10.3999 10.6551 10.4738 10.4246 10.4749 10.188C10.4749 9.55163 9.95099 9.036 9.30524 9.036C9.11827 9.03543 8.93387 9.07954 8.7674 9.16466C8.60094 9.24979 8.45722 9.37346 8.34824 9.52538C8.21886 9.7065 8.03174 9.85388 7.84499 9.97463C7.73484 10.0451 7.64416 10.1422 7.58126 10.2568C7.51836 10.3715 7.48526 10.5001 7.48499 10.6309C7.48499 10.8934 7.61549 11.1259 7.81611 11.2684L9.71136 11.268Z" fill="url(#paint33_radial_15_60)"/>
<g filter="url(#filter11_f_15_60)">
<path d="M6.76575 2.55562L10.7895 6.51787" stroke="url(#paint34_linear_15_60)" stroke-width="0.1125" stroke-linecap="round"/>
</g>
<g filter="url(#filter12_f_15_60)">
<path d="M6.76576 2.55562L2.74164 6.51787" stroke="url(#paint35_linear_15_60)" stroke-opacity="0.5" stroke-width="0.1125" stroke-linecap="round"/>
</g>
<g filter="url(#filter13_f_15_60)">
<path d="M8.70862 10.974C8.52653 10.739 8.39919 10.4664 8.33587 10.176C8.33354 10.1642 8.32869 10.153 8.32166 10.1432C8.31464 10.1334 8.30559 10.1253 8.29513 10.1193C8.28467 10.1133 8.27306 10.1097 8.26106 10.1086C8.24907 10.1075 8.23698 10.109 8.22562 10.113L8.15887 10.1381C8.05339 10.1778 7.9652 10.2532 7.90968 10.3513C7.85417 10.4493 7.83486 10.5638 7.85514 10.6746C7.87541 10.7855 7.93398 10.8857 8.02061 10.9577C8.10724 11.0298 8.21643 11.0691 8.32912 11.0689H8.66512C8.71274 11.0689 8.73824 11.0111 8.70862 10.974Z" fill="#31B570"/>
</g>
<defs>
<filter id="filter0_i_15_60" x="1.15356" y="3.86549" width="4.09307" height="5.517" filterUnits="userSpaceOnUse" color-interpolation-filters="sRGB">
<feFlood flood-opacity="0" result="BackgroundImageFix"/>
<feBlend mode="normal" in="SourceGraphic" in2="BackgroundImageFix" result="shape"/>
<feColorMatrix in="SourceAlpha" type="matrix" values="0 0 0 0 0 0 0 0 0 0 0 0 0 0 0 0 0 0 127 0" result="hardAlpha"/>
<feOffset dx="0.075" dy="0.075"/>
<feGaussianBlur stdDeviation="0.1875"/>
<feComposite in2="hardAlpha" operator="arithmetic" k2="-1" k3="1"/>
<feColorMatrix type="matrix" values="0 0 0 0 0.301961 0 0 0 0 0.592157 0 0 0 0 0.392157 0 0 0 1 0"/>
<feBlend mode="normal" in2="shape" result="effect1_innerShadow_15_60"/>
</filter>
<filter id="filter1_f_15_60" x="0.995667" y="6.88203" width="2.42688" height="2.63733" filterUnits="userSpaceOnUse" color-interpolation-filters="sRGB">
<feFlood flood-opacity="0" result="BackgroundImageFix"/>
<feBlend mode="normal" in="SourceGraphic" in2="BackgroundImageFix" result="shape"/>
<feGaussianBlur stdDeviation="0.1875" result="effect1_foregroundBlur_15_60"/>
</filter>
<filter id="filter2_f_15_60" x="1.27765" y="4.88699" width="2.56787" height="2.49602" filterUnits="userSpaceOnUse" color-interpolation-filters="sRGB">
<feFlood flood-opacity="0" result="BackgroundImageFix"/>
<feBlend mode="normal" in="SourceGraphic" in2="BackgroundImageFix" result="shape"/>
<feGaussianBlur stdDeviation="0.1875" result="effect1_foregroundBlur_15_60"/>
</filter>
<filter id="filter3_f_15_60" x="3.99078" y="6.78188" width="2.56165" height="3.918" filterUnits="userSpaceOnUse" color-interpolation-filters="sRGB">
<feFlood flood-opacity="0" result="BackgroundImageFix"/>
<feBlend mode="normal" in="SourceGraphic" in2="BackgroundImageFix" result="shape"/>
<feGaussianBlur stdDeviation="0.09375" result="effect1_foregroundBlur_15_60"/>
</filter>
<filter id="filter4_f_15_60" x="3.67126" y="10.1003" width="3.41248" height="0.731247" filterUnits="userSpaceOnUse" color-interpolation-filters="sRGB">
<feFlood flood-opacity="0" result="BackgroundImageFix"/>
<feBlend mode="normal" in="SourceGraphic" in2="BackgroundImageFix" result="shape"/>
<feGaussianBlur stdDeviation="0.09375" result="effect1_foregroundBlur_15_60"/>
</filter>
<filter id="filter5_i_15_60" x="7.29749" y="6.84712" width="2.03436" height="2.03439" filterUnits="userSpaceOnUse" color-interpolation-filters="sRGB">
<feFlood flood-opacity="0" result="BackgroundImageFix"/>
<feBlend mode="normal" in="SourceGraphic" in2="BackgroundImageFix" result="shape"/>
<feColorMatrix in="SourceAlpha" type="matrix" values="0 0 0 0 0 0 0 0 0 0 0 0 0 0 0 0 0 0 127 0" result="hardAlpha"/>
<feOffset dx="-0.1875" dy="0.1875"/>
<feGaussianBlur stdDeviation="0.09375"/>
<feComposite in2="hardAlpha" operator="arithmetic" k2="-1" k3="1"/>
<feColorMatrix type="matrix" values="0 0 0 0 0.0470588 0 0 0 0 0.47451 0 0 0 0 0.792157 0 0 0 1 0"/>
<feBlend mode="normal" in2="shape" result="effect1_innerShadow_15_60"/>
</filter>
<filter id="filter6_ii_15_60" x="4.22627" y="6.79724" width="2.60735" height="3.35851" filterUnits="userSpaceOnUse" color-interpolation-filters="sRGB">
<feFlood flood-opacity="0" result="BackgroundImageFix"/>
<feBlend mode="normal" in="SourceGraphic" in2="BackgroundImageFix" result="shape"/>
<feColorMatrix in="SourceAlpha" type="matrix" values="0 0 0 0 0 0 0 0 0 0 0 0 0 0 0 0 0 0 127 0" result="hardAlpha"/>
<feOffset dx="0.09375"/>
<feGaussianBlur stdDeviation="0.09375"/>
<feComposite in2="hardAlpha" operator="arithmetic" k2="-1" k3="1"/>
<feColorMatrix type="matrix" values="0 0 0 0 0.254902 0 0 0 0 0.188235 0 0 0 0 0.141176 0 0 0 1 0"/>
<feBlend mode="normal" in2="shape" result="effect1_innerShadow_15_60"/>
<feColorMatrix in="SourceAlpha" type="matrix" values="0 0 0 0 0 0 0 0 0 0 0 0 0 0 0 0 0 0 127 0" result="hardAlpha"/>
<feOffset dx="-0.075"/>
<feGaussianBlur stdDeviation="0.05625"/>
<feComposite in2="hardAlpha" operator="arithmetic" k2="-1" k3="1"/>
<feColorMatrix type="matrix" values="0 0 0 0 0.694118 0 0 0 0 0.470588 0 0 0 0 0.407843 0 0 0 1 0"/>
<feBlend mode="normal" in2="effect1_innerShadow_15_60" result="effect2_innerShadow_15_60"/>
</filter>
<filter id="filter7_f_15_60" x="5.89706" y="8.30325" width="0.463879" height="0.463879" filterUnits="userSpaceOnUse" color-interpolation-filters="sRGB">
<feFlood flood-opacity="0" result="BackgroundImageFix"/>
<feBlend mode="normal" in="SourceGraphic" in2="BackgroundImageFix" result="shape"/>
<feGaussianBlur stdDeviation="0.028125" result="effect1_foregroundBlur_15_60"/>
</filter>
<filter id="filter8_ii_15_60" x="5.95988" y="8.3295" width="0.429736" height="0.354752" filterUnits="userSpaceOnUse" color-interpolation-filters="sRGB">
<feFlood flood-opacity="0" result="BackgroundImageFix"/>
<feBlend mode="normal" in="SourceGraphic" in2="BackgroundImageFix" result="shape"/>
<feColorMatrix in="SourceAlpha" type="matrix" values="0 0 0 0 0 0 0 0 0 0 0 0 0 0 0 0 0 0 127 0" result="hardAlpha"/>
<feOffset dx="-0.0375"/>
<feGaussianBlur stdDeviation="0.0375"/>
<feComposite in2="hardAlpha" operator="arithmetic" k2="-1" k3="1"/>
<feColorMatrix type="matrix" values="0 0 0 0 0.694118 0 0 0 0 0.482353 0 0 0 0 0.419608 0 0 0 1 0"/>
<feBlend mode="normal" in2="shape" result="effect1_innerShadow_15_60"/>
<feColorMatrix in="SourceAlpha" type="matrix" values="0 0 0 0 0 0 0 0 0 0 0 0 0 0 0 0 0 0 127 0" result="hardAlpha"/>
<feOffset dx="0.0375"/>
<feGaussianBlur stdDeviation="0.0375"/>
<feComposite in2="hardAlpha" operator="arithmetic" k2="-1" k3="1"/>
<feColorMatrix type="matrix" values="0 0 0 0 0.290196 0 0 0 0 0.184314 0 0 0 0 0.164706 0 0 0 1 0"/>
<feBlend mode="normal" in2="effect1_innerShadow_15_60" result="effect2_innerShadow_15_60"/>
</filter>
<filter id="filter9_i_15_60" x="0.778503" y="10.5124" width="10.6309" height="0.75563" filterUnits="userSpaceOnUse" color-interpolation-filters="sRGB">
<feFlood flood-opacity="0" result="BackgroundImageFix"/>
<feBlend mode="normal" in="SourceGraphic" in2="BackgroundImageFix" result="shape"/>
<feColorMatrix in="SourceAlpha" type="matrix" values="0 0 0 0 0 0 0 0 0 0 0 0 0 0 0 0 0 0 127 0" result="hardAlpha"/>
<feOffset dx="0.1875"/>
<feGaussianBlur stdDeviation="0.1875"/>
<feComposite in2="hardAlpha" operator="arithmetic" k2="-1" k3="1"/>
<feColorMatrix type="matrix" values="0 0 0 0 0.25098 0 0 0 0 0.545098 0 0 0 0 0.352941 0 0 0 1 0"/>
<feBlend mode="normal" in2="shape" result="effect1_innerShadow_15_60"/>
</filter>
<filter id="filter10_i_15_60" x="7.48499" y="9.036" width="3.06487" height="2.30738" filterUnits="userSpaceOnUse" color-interpolation-filters="sRGB">
<feFlood flood-opacity="0" result="BackgroundImageFix"/>
<feBlend mode="normal" in="SourceGraphic" in2="BackgroundImageFix" result="shape"/>
<feColorMatrix in="SourceAlpha" type="matrix" values="0 0 0 0 0 0 0 0 0 0 0 0 0 0 0 0 0 0 127 0" result="hardAlpha"/>
<feOffset dx="0.075" dy="0.075"/>
<feGaussianBlur stdDeviation="0.1125"/>
<feComposite in2="hardAlpha" operator="arithmetic" k2="-1" k3="1"/>
<feColorMatrix type="matrix" values="0 0 0 0 0.309804 0 0 0 0 0.564706 0 0 0 0 0.329412 0 0 0 1 0"/>
<feBlend mode="normal" in2="shape" result="effect1_innerShadow_15_60"/>
</filter>
<filter id="filter11_f_15_60" x="6.48447" y="2.27437" width="4.58629" height="4.52474" filterUnits="userSpaceOnUse" color-interpolation-filters="sRGB">
<feFlood flood-opacity="0" result="BackgroundImageFix"/>
<feBlend mode="normal" in="SourceGraphic" in2="BackgroundImageFix" result="shape"/>
<feGaussianBlur stdDeviation="0.1125" result="effect1_foregroundBlur_15_60"/>
</filter>
<filter id="filter12_f_15_60" x="2.46036" y="2.27437" width="4.58666" height="4.52474" filterUnits="userSpaceOnUse" color-interpolation-filters="sRGB">
<feFlood flood-opacity="0" result="BackgroundImageFix"/>
<feBlend mode="normal" in="SourceGraphic" in2="BackgroundImageFix" result="shape"/>
<feGaussianBlur stdDeviation="0.1125" result="effect1_foregroundBlur_15_60"/>
</filter>
<filter id="filter13_f_15_60" x="7.56604" y="9.827" width="1.43652" height="1.52312" filterUnits="userSpaceOnUse" color-interpolation-filters="sRGB">
<feFlood flood-opacity="0" result="BackgroundImageFix"/>
<feBlend mode="normal" in="SourceGraphic" in2="BackgroundImageFix" result="shape"/>
<feGaussianBlur stdDeviation="0.140625" result="effect1_foregroundBlur_15_60"/>
</filter>
<linearGradient id="paint0_linear_15_60" x1="3.16198" y1="3.86512" x2="3.16198" y2="9.30787" gradientUnits="userSpaceOnUse">
<stop stop-color="#29884D"/>
<stop offset="1" stop-color="#227341"/>
</linearGradient>
<linearGradient id="paint1_linear_15_60" x1="2.34073" y1="9.36637" x2="2.34073" y2="9.07912" gradientUnits="userSpaceOnUse">
<stop stop-color="#4E7978"/>
<stop offset="1" stop-color="#4E7978" stop-opacity="0"/>
</linearGradient>
<radialGradient id="paint2_radial_15_60" cx="0" cy="0" r="1" gradientUnits="userSpaceOnUse" gradientTransform="translate(3.82648 3.58874) rotate(90) scale(1.05631 0.984521)">
<stop offset="0.097" stop-color="#4DB56F"/>
<stop offset="1" stop-color="#4DB56F" stop-opacity="0"/>
</radialGradient>
<radialGradient id="paint3_radial_15_60" cx="0" cy="0" r="1" gradientUnits="userSpaceOnUse" gradientTransform="translate(1.987 8.48558) rotate(-37.7036) scale(1.51906 2.54183)">
<stop stop-color="#279D5A"/>
<stop offset="1" stop-color="#279D5A" stop-opacity="0"/>
</radialGradient>
<radialGradient id="paint4_radial_15_60" cx="0" cy="0" r="1" gradientUnits="userSpaceOnUse" gradientTransform="translate(2.17741 5.71348) rotate(40.6049) scale(1.14644 1.93416)">
<stop stop-color="#2EA75B"/>
<stop offset="1" stop-color="#2EA75B" stop-opacity="0"/>
</radialGradient>
<radialGradient id="paint5_radial_15_60" cx="0" cy="0" r="1" gradientUnits="userSpaceOnUse" gradientTransform="translate(4.73252 2.91187) rotate(90) scale(1.43744 0.713663)">
<stop stop-color="#FFD1A3"/>
<stop offset="1" stop-color="#DFA276"/>
</radialGradient>
<linearGradient id="paint6_linear_15_60" x1="3.6874" y1="3.98099" x2="4.15577" y2="3.98099" gradientUnits="userSpaceOnUse">
<stop stop-color="#8E694B"/>
<stop offset="1" stop-color="#8E694B" stop-opacity="0"/>
</linearGradient>
<linearGradient id="paint7_linear_15_60" x1="4.60427" y1="4.34924" x2="4.39952" y2="4.10774" gradientUnits="userSpaceOnUse">
<stop stop-color="#C77958"/>
<stop offset="1" stop-color="#C77958" stop-opacity="0"/>
</linearGradient>
<linearGradient id="paint8_linear_15_60" x1="4.32415" y1="2.71312" x2="4.32415" y2="2.76562" gradientUnits="userSpaceOnUse">
<stop stop-color="#D5AD80"/>
<stop offset="1" stop-color="#D5AD80" stop-opacity="0"/>
</linearGradient>
<radialGradient id="paint9_radial_15_60" cx="0" cy="0" r="1" gradientUnits="userSpaceOnUse" gradientTransform="translate(5.01527 2.78849) rotate(180) scale(0.775365 0.166669)">
<stop stop-color="#FFE9B1"/>
<stop offset="1" stop-color="#FFE9B1" stop-opacity="0"/>
</radialGradient>
<linearGradient id="paint10_linear_15_60" x1="3.5595" y1="7.87238" x2="9.91125" y2="7.87238" gradientUnits="userSpaceOnUse">
<stop stop-color="#D7905F"/>
<stop offset="1" stop-color="#E8BC97"/>
</linearGradient>
<linearGradient id="paint11_linear_15_60" x1="3.73838" y1="10.6894" x2="6.22725" y2="7.10213" gradientUnits="userSpaceOnUse">
<stop stop-color="#BA8951"/>
<stop offset="1" stop-color="#BA8951" stop-opacity="0"/>
</linearGradient>
<radialGradient id="paint12_radial_15_60" cx="0" cy="0" r="1" gradientUnits="userSpaceOnUse" gradientTransform="translate(8.00724 10.2663) rotate(-117.235) scale(1.19128 1.44098)">
<stop stop-color="#BEAB75"/>
<stop offset="1" stop-color="#BEAB75" stop-opacity="0"/>
</radialGradient>
<linearGradient id="paint13_linear_15_60" x1="10.0984" y1="8.91151" x2="9.8805" y2="8.91151" gradientUnits="userSpaceOnUse">
<stop stop-color="#FFE6B1"/>
<stop offset="1" stop-color="#FFE6B1" stop-opacity="0"/>
</linearGradient>
<radialGradient id="paint14_radial_15_60" cx="0" cy="0" r="1" gradientUnits="userSpaceOnUse" gradientTransform="translate(10.1786 6.02626) rotate(90) scale(1.48565 0.314272)">
<stop offset="0.35" stop-color="#9E413E"/>
<stop offset="1" stop-color="#9E413E" stop-opacity="0"/>
</radialGradient>
<linearGradient id="paint15_linear_15_60" x1="7.84763" y1="4.20338" x2="7.70138" y2="4.34963" gradientUnits="userSpaceOnUse">
<stop stop-color="#B55852"/>
<stop offset="1" stop-color="#B55852" stop-opacity="0"/>
</linearGradient>
<linearGradient id="paint16_linear_15_60" x1="3.27113" y1="9.63826" x2="3.50288" y2="9.63826" gradientUnits="userSpaceOnUse">
<stop stop-color="#845F3D"/>
<stop offset="1" stop-color="#845F3D" stop-opacity="0"/>
</linearGradient>
<linearGradient id="paint17_linear_15_60" x1="5.27141" y1="6.96938" x2="5.27141" y2="10.512" gradientUnits="userSpaceOnUse">
<stop stop-color="#805139"/>
<stop offset="1" stop-color="#6D4D2F"/>
</linearGradient>
<linearGradient id="paint18_linear_15_60" x1="7.48499" y1="8.8335" x2="9.47811" y2="6.84712" gradientUnits="userSpaceOnUse">
<stop stop-color="#4CCCFF"/>
<stop offset="1" stop-color="#3A9EE6"/>
</linearGradient>
<linearGradient id="paint19_linear_15_60" x1="8.40861" y1="8.80987" x2="8.40861" y2="8.4465" gradientUnits="userSpaceOnUse">
<stop stop-color="#1E9FE4"/>
<stop offset="1" stop-color="#1E9FE4" stop-opacity="0"/>
</linearGradient>
<linearGradient id="paint20_linear_15_60" x1="7.48499" y1="8.2245" x2="7.85586" y2="8.2245" gradientUnits="userSpaceOnUse">
<stop stop-color="#48E0FF"/>
<stop offset="1" stop-color="#48E0FF" stop-opacity="0"/>
</linearGradient>
<linearGradient id="paint21_linear_15_60" x1="7.76436" y1="6.52387" x2="8.01299" y2="7.26937" gradientUnits="userSpaceOnUse">
<stop stop-color="#43B3F2"/>
<stop offset="1" stop-color="#43B3F2" stop-opacity="0"/>
</linearGradient>
<linearGradient id="paint22_linear_15_60" x1="4.30127" y1="8.90362" x2="6.73989" y2="8.88787" gradientUnits="userSpaceOnUse">
<stop stop-color="#70504D"/>
<stop offset="1" stop-color="#9B665E"/>
</linearGradient>
<linearGradient id="paint23_linear_15_60" x1="6.69565" y1="2.2545" x2="6.69565" y2="6.96937" gradientUnits="userSpaceOnUse">
<stop stop-color="#EA6D2E"/>
<stop offset="1" stop-color="#CA222B"/>
</linearGradient>
<linearGradient id="paint24_linear_15_60" x1="4.06912" y1="10.5124" x2="6.91424" y2="10.5124" gradientUnits="userSpaceOnUse">
<stop stop-color="#9FA1A3"/>
<stop offset="1" stop-color="#C4C1C7"/>
</linearGradient>
<linearGradient id="paint25_linear_15_60" x1="3.93637" y1="10.5124" x2="4.29862" y2="10.5124" gradientUnits="userSpaceOnUse">
<stop stop-color="#59675C"/>
<stop offset="1" stop-color="#59675C" stop-opacity="0"/>
</linearGradient>
<linearGradient id="paint26_linear_15_60" x1="7.02487" y1="10.3339" x2="6.68849" y2="10.5124" gradientUnits="userSpaceOnUse">
<stop stop-color="#C8CAC6"/>
<stop offset="1" stop-color="#C8CAC6" stop-opacity="0"/>
</linearGradient>
<linearGradient id="paint27_linear_15_60" x1="6" y1="11.4686" x2="6" y2="10.89" gradientUnits="userSpaceOnUse">
<stop offset="0.107" stop-color="#3FD17B"/>
<stop offset="1" stop-color="#3FD17B" stop-opacity="0"/>
</linearGradient>
<radialGradient id="paint28_radial_15_60" cx="0" cy="0" r="1" gradientUnits="userSpaceOnUse" gradientTransform="translate(7.79025 10.89) rotate(128.096) scale(0.721763 0.910531)">
<stop offset="0.171" stop-color="#228051"/>
<stop offset="1" stop-color="#228051" stop-opacity="0"/>
</radialGradient>
<radialGradient id="paint29_radial_15_60" cx="0" cy="0" r="1" gradientUnits="userSpaceOnUse" gradientTransform="translate(11.2218 10.4031) rotate(147.147) scale(1.25291 2.05446)">
<stop stop-color="#5CEE92"/>
<stop offset="1" stop-color="#5CEE92" stop-opacity="0"/>
</radialGradient>
<linearGradient id="paint30_linear_15_60" x1="8.63999" y1="11.4953" x2="8.63999" y2="10.722" gradientUnits="userSpaceOnUse">
<stop stop-color="#3B8478"/>
<stop offset="1" stop-color="#3B8478" stop-opacity="0"/>
</linearGradient>
<radialGradient id="paint31_radial_15_60" cx="0" cy="0" r="1" gradientUnits="userSpaceOnUse" gradientTransform="translate(9.38549 12.3833) rotate(-110.329) scale(2.55018 1.16164)">
<stop stop-color="#2C785B"/>
<stop offset="1" stop-color="#2C785B" stop-opacity="0"/>
</radialGradient>
<radialGradient id="paint32_radial_15_60" cx="0" cy="0" r="1" gradientUnits="userSpaceOnUse" gradientTransform="translate(9.76724 9.819) rotate(142.112) scale(2.83837 3.84184)">
<stop offset="0.641" stop-color="#2C785B" stop-opacity="0"/>
<stop offset="0.966" stop-color="#2C785B"/>
</radialGradient>
<radialGradient id="paint33_radial_15_60" cx="0" cy="0" r="1" gradientUnits="userSpaceOnUse" gradientTransform="translate(10.3645 9.58836) rotate(148.884) scale(1.61787 1.54017)">
<stop stop-color="#60FB9A"/>
<stop offset="1" stop-color="#60FB9A" stop-opacity="0"/>
</radialGradient>
<linearGradient id="paint34_linear_15_60" x1="6.642" y1="2.49412" x2="10.9579" y2="6.93787" gradientUnits="userSpaceOnUse">
<stop stop-color="#FF8337"/>
<stop offset="1" stop-color="#F24747"/>
</linearGradient>
<linearGradient id="paint35_linear_15_60" x1="6.88914" y1="2.49412" x2="2.57326" y2="6.93787" gradientUnits="userSpaceOnUse">
<stop stop-color="#FF8337"/>
<stop offset="1" stop-color="#F24747"/>
</linearGradient>
</defs>
</svg>
