<svg width="80" height="96" viewBox="0 0 80 96" fill="none" xmlns="http://www.w3.org/2000/svg">
<path d="M47.3 86.95L47.45 81.95H35.55L35.4 86.95H47.25H47.3Z" fill="#4C4EAA"/>
<path d="M53 92.95L47.25 86.95H35.4L35.15 92.95H53Z" fill="white"/>
<path d="M52.9 95.95L53 92.95H35.15L35 95.95H52.9Z" fill="#EEA160"/>
<path d="M47.9 72.75C47.9 71.15 47.2667 69.7833 46 68.65C44.7667 67.5166 43.25 66.95 41.45 66.95C39.6833 66.95 38.1667 67.5166 36.9 68.65C35.6333 69.7833 35 71.15 35 72.75L35.55 81.95H47.45L47.9 72.75Z" fill="#676AC6"/>
<path d="M20.7 86.95L20.55 81.95H32.45L32.6 86.95H20.75H20.7Z" fill="#4C4EAA"/>
<path d="M15 92.95L20.75 86.95H32.6L32.85 92.95H15Z" fill="white"/>
<path d="M15.1 95.95L15 92.95H32.85L33 95.95H15.1Z" fill="#EEA160"/>
<path d="M20.1 72.75C20.1 71.15 20.7333 69.7833 22 68.65C23.2333 67.5166 24.75 66.95 26.55 66.95C28.3167 66.95 29.8333 67.5166 31.1 68.65C32.3667 69.7833 33 71.15 33 72.75L32.45 81.95H20.55L20.1 72.75Z" fill="#676AC6"/>
<path d="M54.8352 69.2453C52.8293 67.845 50.9482 66.2367 49.1918 64.4202C51.0274 61.0471 53.9079 58.2818 57.8334 56.1243C58.556 56.9046 59.312 57.6248 60.1014 58.285C61.8946 59.8352 63.9479 61.0583 66.2615 61.9543C67.7638 62.5294 68.8501 63.5625 69.5204 65.0534C70.1498 66.5679 70.1888 68.0967 69.6373 69.6399C69.03 71.1336 67.9648 72.2112 66.4416 72.8729C64.9829 73.5518 63.4702 73.595 61.9035 73.0027C60.0964 72.2769 58.4044 71.4439 56.8273 70.5037C56.1386 70.1121 55.4745 69.6926 54.8352 69.2453Z" fill="#BF7958"/>
<path d="M43.2222 52.3127C43.6771 50.7437 44.619 49.5467 46.0479 48.7218C47.5003 47.9377 48.9906 47.7849 50.5188 48.2634C52.0965 48.6861 53.286 49.5915 54.0874 50.9795C55.1543 52.9218 56.403 54.6368 57.8334 56.1243C53.9079 58.2818 51.0274 61.0471 49.1918 64.4202C47.1354 62.1783 45.3144 59.6371 43.7289 56.7966C43.0006 55.3936 42.8317 53.899 43.2222 52.3127Z" fill="#E7F3FC"/>
<path d="M49.427 67.0196L46.4803 64.1077L57.0634 53.5886L59.9748 56.4392L49.427 67.0196Z" fill="#BFD4E5"/>
<path d="M3.09999 64.4001C3.93332 62.1001 4.99999 59.8667 6.29999 57.7001C10.0333 58.6001 13.45 60.6667 16.55 63.9001C15.9833 64.8001 15.4833 65.7167 15.05 66.6501C14.0167 68.7834 13.3667 71.0834 13.1 73.5501C12.9333 75.1501 12.2167 76.4667 10.95 77.5001C9.64999 78.5001 8.18332 78.9334 6.54999 78.8001C4.94999 78.6001 3.63332 77.8501 2.59999 76.5501C1.56665 75.3167 1.13332 73.8667 1.29999 72.2001C1.53332 70.2667 1.89999 68.4167 2.39999 66.6501C2.59999 65.8834 2.83332 65.1334 3.09999 64.4001Z" fill="#BF7958"/>
<path d="M16.45 48.8C18.0833 48.8334 19.4833 49.4334 20.65 50.6C21.7833 51.8 22.3167 53.2 22.25 54.8C22.25 56.4334 21.6833 57.8167 20.55 58.95C18.95 60.4834 17.6167 62.1334 16.55 63.9C13.45 60.6667 10.0333 58.6 6.3 57.7C7.93333 55.1334 9.91667 52.7167 12.25 50.45C13.4167 49.3834 14.8167 48.8334 16.45 48.8Z" fill="#E7F3FC"/>
<path d="M3.84999 58.6L5.89999 55L18.8 62.5L16.8 66.05L3.84999 58.6Z" fill="#BFD4E5"/>
<path d="M48.6 72.85V67.9H18.55V72.85H48.6Z" fill="#BFD4E5"/>
<path d="M47.1 78.05C48.0333 76.7833 48.5333 75.05 48.6 72.85H18.55C18.6167 75.05 19.1167 76.7833 20.05 78.05H47.1Z" fill="#676AC6"/>
<path d="M51.8 54.25C52.5 50.65 51.6333 48.9167 49.2 49.05H17.9C15.4667 48.9167 14.6 50.65 15.3 54.25L18.55 67.9H48.6L51.8 54.25Z" fill="#E7F3FC"/>
<path d="M41.6 41.6C39.5 39.9 36.9834 39.05 34.05 39.05C31.1167 39.05 28.6 39.9 26.5 41.6C24.4334 43.4 23.4 45.55 23.4 48.05C23.4 48.2167 23.4167 48.3834 23.45 48.55C23.55 50.8167 24.5667 52.75 26.5 54.35C28.6 56.15 31.1167 57.05 34.05 57.05C36.9834 57.05 39.5 56.15 41.6 54.35C43.5334 52.75 44.55 50.8167 44.65 48.55C44.6834 48.3834 44.7 48.2167 44.7 48.05C44.7 45.55 43.6667 43.4 41.6 41.6Z" fill="#A8603F"/>
<path d="M30.85 68.1001L16.75 69.3501C17.0167 70.9834 17.3 72.7168 17.6 74.5501L30.05 73.0501C30.3833 71.5168 30.65 69.8668 30.85 68.1001Z" fill="#D78B49"/>
<path d="M30.85 68.1C31.0834 65.7667 31.1667 63.25 31.1 60.55C26.6 57.7167 23.0334 53.4167 20.4 47.65L15.85 46.8C14.4834 49.2667 14.7834 56.7834 16.75 69.35L30.85 68.1Z" fill="#EEA160"/>
<path d="M50.85 69.3501L36.75 68.1001C36.95 69.8668 37.2167 71.5168 37.55 73.0501L50 74.5501C50.3 72.7168 50.5833 70.9834 50.85 69.3501Z" fill="#D78B49"/>
<path d="M36.5 60.55C36.4333 63.25 36.5167 65.7667 36.75 68.1L50.85 69.35C52.8167 56.7834 53.1167 49.2667 51.75 46.8L47.2 47.65C44.5667 53.4167 41 57.7167 36.5 60.55Z" fill="#EEA160"/>
<path d="M20.95 48.05L18.9 51.65L32 59.25L34.05 55.6L20.95 48.05ZM47.15 48.05L34.05 55.6L36.1 59.25L49.2 51.65L47.15 48.05Z" fill="#BFD4E5"/>
<path d="M36.1 59.2501L34.05 55.6001L32 59.2501H36.1Z" fill="#E7F3FC"/>
<path d="M73.1497 57.7L72.1997 57.65C68.0665 57.9834 64.8665 59.2501 62.5999 61.4501C66.8998 55.6501 70.433 54.3834 73.1997 57.65L73.1497 57.7Z" fill="#A8603F"/>
<path d="M63.9001 73.8999C63.0001 73.8665 62.5501 73.3665 62.5501 72.3999L62.5999 61.4501C64.8665 59.2501 68.0665 57.9834 72.1997 57.65L73.1497 57.7L73.1997 57.65C74.2997 57.6166 75.4663 57.6166 76.6996 57.6499L77.0996 57.6499C78.033 57.6499 78.633 58.3665 78.8996 59.7998C79.3663 61.8998 79.583 63.9498 79.5497 65.9497C79.5165 71.6163 74.5999 74.2664 64.8001 73.8998L63.9001 73.8999Z" fill="#BF7958"/>
<path d="M16.85 83.5001L16.9 82.5501C16.5667 78.4167 15.3 75.2167 13.1 72.9501C18.9 77.2501 20.1667 80.7834 16.9 83.5501L16.85 83.5001Z" fill="#A8603F"/>
<path d="M0.650049 74.25C0.683382 73.35 1.18338 72.9 2.15005 72.9L13.1 72.95C15.3 75.2167 16.5667 78.4167 16.9 82.55L16.85 83.5L16.9 83.55C16.9334 84.65 16.9334 85.8167 16.9 87.05V87.45C16.9 88.3834 16.1834 88.9834 14.75 89.25C12.65 89.7167 10.6 89.9334 8.60005 89.9C2.93338 89.8667 0.283382 84.95 0.650049 75.15V74.25Z" fill="#BF7958"/>
<path d="M48.6448 40.55C44.7256 37.95 39.9773 36.65 34.4 36.65C28.8227 36.65 24.0242 37.95 20.0045 40.55C16.0853 43.2167 14.1257 46.4 14.1257 50.1C14.1257 53.8 16.0853 56.95 20.0045 59.55C24.0242 62.2167 28.8227 63.55 34.4 63.55C39.9773 63.55 44.7256 62.2167 48.6448 59.55C52.6645 56.95 54.6743 53.8 54.6743 50.1C54.6743 46.4 52.6645 43.2167 48.6448 40.55Z" fill="url(#paint0_radial_2026_3)"/>
<path d="M45.5616 6.22546L42.2957 1.93061C32.5325 1.97051 23.4719 3.02248 15.114 5.08652C10.4187 6.1446 8.4467 8.58244 9.19792 12.4L9.53765 14.0777C9.97333 11.6668 11.9643 10.0636 15.5107 9.26797C23.8714 7.23715 32.9333 6.20179 42.6966 6.16189L45.5616 6.22546ZM56.3889 9.7431L56.4352 8.485C56.5891 4.69272 54.5915 2.58389 50.4422 2.15849L46.2176 6.27143L50.839 6.33995C53.7398 6.63467 55.5898 7.76906 56.3889 9.7431Z" fill="#454A51"/>
<path d="M50.8389 6.33995L46.2176 6.27144L45.8437 6.60345L45.5615 6.22547L42.6966 6.1619C32.9333 6.2018 23.8713 7.23715 15.5107 9.26797C11.9643 10.0636 9.9733 11.6668 9.53762 14.0777L13.3823 33.2252C13.9872 36.085 16.0004 37.3731 19.422 37.0895L50.4152 34.5208C53.87 34.2345 55.6437 32.6325 55.7363 29.7149L56.3889 9.74311C55.5898 7.76907 53.7398 6.63468 50.8389 6.33995Z" fill="#3C3E41"/>
<path d="M10.3554 33.0246C8.9235 34.7153 8.29979 36.6735 8.48425 38.8991C8.66872 41.1248 9.60629 42.9536 11.297 44.3854C13.0264 45.881 14.9707 46.5393 17.1299 46.3604C19.3224 46.1787 21.1484 45.2079 22.608 43.448C24.0067 41.7601 24.6138 39.8033 24.4293 37.5776C24.2449 35.3519 23.3239 33.5218 21.6664 32.0871C19.937 30.5916 17.9761 29.9346 15.7836 30.1163C13.6244 30.2953 11.815 31.2647 10.3554 33.0246ZM13.4032 41.9532C12.396 41.1002 11.836 39.9927 11.7231 38.6307C11.6157 37.3351 11.9858 36.1505 12.8333 35.0769C13.6864 34.0697 14.7607 33.5124 16.0562 33.405C17.4182 33.2921 18.6028 33.6622 19.61 34.5152C20.6227 35.4347 21.1828 36.5422 21.2901 37.8378C21.403 39.1997 21.0329 40.3843 20.1799 41.3916C19.3296 42.432 18.2235 43.0086 16.8615 43.1215C15.566 43.2289 14.4132 42.8395 13.4032 41.9532ZM47.2284 29.9685C45.7965 31.6592 45.1728 33.6174 45.3572 35.8431C45.5417 38.0687 46.4793 39.8975 48.1699 41.3294C49.8994 42.825 51.8437 43.4833 54.0029 43.3043C56.1954 43.1226 58.0214 42.1518 59.481 40.3919C60.8797 38.704 61.4868 36.7472 61.3023 34.5215C61.1178 32.2959 60.1969 30.4657 58.5394 29.0311C56.81 27.5355 54.849 26.8786 52.6566 27.0603C50.4974 27.2392 48.688 28.2087 47.2284 29.9685ZM49.7063 32.0208C50.5593 31.0136 51.6336 30.4563 52.9292 30.349C54.2579 30.2388 55.4425 30.6089 56.483 31.4592C57.4957 32.3787 58.0557 33.4862 58.1631 34.7817C58.276 36.1437 57.9059 37.3283 57.0529 38.3355C56.1694 39.3787 55.0632 39.9554 53.7345 40.0655C52.4389 40.1729 51.2862 39.7834 50.2762 38.8972C49.2358 38.0469 48.6591 36.9407 48.5462 35.5788C48.4389 34.2832 48.8256 33.0973 49.7063 32.0208Z" fill="#BF7958"/>
<path d="M11.7231 38.6307C11.836 39.9927 12.396 41.1002 13.4032 41.9532C14.4132 42.8395 15.566 43.2289 16.8615 43.1216C18.2235 43.0087 19.3296 42.432 20.1799 41.3916C21.0329 40.3844 21.403 39.1998 21.2901 37.8378C21.1828 36.5423 20.6227 35.4347 19.61 34.5153C18.6028 33.6622 17.4182 33.2922 16.0562 33.405C14.7607 33.5124 13.6864 34.0697 12.8333 35.0769C11.9858 36.1506 11.6157 37.3352 11.7231 38.6307ZM52.9292 30.349C51.6336 30.4564 50.5594 31.0137 49.7063 32.0209C48.8256 33.0973 48.4389 34.2833 48.5462 35.5788C48.6591 36.9408 49.2358 38.0469 50.2762 38.8972C51.2862 39.7834 52.4389 40.1729 53.7345 40.0655C55.0632 39.9554 56.1694 39.3787 57.0529 38.3355C57.9059 37.3283 58.276 36.1437 58.1631 34.7817C58.0557 33.4862 57.4957 32.3787 56.483 31.4592C55.4425 30.6089 54.2579 30.2389 52.9292 30.349Z" fill="#A8603F"/>
<path d="M48.1706 49.2062C51.7197 48.4438 53.5863 46.3491 53.7706 42.9222L54.264 16.7926L12.5577 20.2493L18.3732 51.6758L48.1706 49.2062Z" fill="#BF7958"/>
<path d="M22.2713 35.1477C22.3677 36.3103 22.8157 37.2766 23.6153 38.0465C24.4869 38.8773 25.5206 39.2432 26.7165 39.1441C27.846 39.0505 28.7555 38.5236 29.4452 37.5633C30.1404 36.6695 30.4399 35.6413 30.3435 34.4786C30.2471 33.316 29.7825 32.3511 28.9497 31.5839C28.114 30.7836 27.1315 30.4302 26.0021 30.5238C24.8062 30.6229 23.8454 31.1373 23.1197 32.0671C22.4577 32.9582 22.1749 33.985 22.2713 35.1477ZM24.7751 35.0907L24.7545 34.8415C24.7299 34.1412 24.9128 33.524 25.3034 32.9899C25.7244 32.4198 26.2671 32.1073 26.9315 32.0522C27.6291 31.9944 28.2324 32.212 28.7415 32.7049C29.2147 33.1674 29.4968 33.7461 29.5878 34.4409L29.6085 34.6901C29.6303 35.3572 29.4459 35.9578 29.0554 36.4919C28.6344 37.0619 28.0751 37.3759 27.3775 37.4337C26.7131 37.4887 26.1264 37.2698 25.6172 36.7768C25.1441 36.3143 24.8634 35.7523 24.7751 35.0907ZM40.5071 36.6465C41.4119 37.4746 42.4457 37.8404 43.6083 37.7441C44.771 37.6477 45.6639 37.1222 46.2872 36.1675C47.0488 35.2682 47.3815 34.2372 47.2851 33.0745C47.1888 31.9118 46.6909 30.9497 45.7916 30.1881C45.0224 29.3822 44.0565 29.0274 42.8939 29.1238C41.7312 29.2201 40.7704 29.7346 40.0115 30.6671C39.3496 31.5582 39.0667 32.585 39.1631 33.7477C39.2595 34.9103 39.7075 35.8766 40.5071 36.6465ZM43.6402 31.4701C44.1466 31.9299 44.4453 32.5071 44.5363 33.202L44.557 33.4511C44.5788 34.1183 44.3778 34.7202 43.9541 35.2571C43.5663 35.8244 43.0402 36.1355 42.3758 36.1906C41.7114 36.2457 41.0915 36.0295 40.5159 35.542C40.076 35.0768 39.8119 34.5133 39.7236 33.8517L39.6947 33.5029C39.6756 32.869 39.8447 32.2864 40.2021 31.7551C40.6895 31.1795 41.2654 30.8642 41.9298 30.8091C42.5942 30.7541 43.1643 30.9744 43.6402 31.4701Z" fill="white"/>
<path d="M24.7545 34.8416L24.7751 35.0907C24.8634 35.7523 25.1441 36.3144 25.6173 36.7769C26.1264 37.2698 26.7131 37.4888 27.3775 37.4337C28.0751 37.3759 28.6344 37.062 29.0554 36.4919C29.446 35.9578 29.6303 35.3572 29.6085 34.6901L29.5878 34.441C29.4968 33.7461 29.2147 33.1675 28.7416 32.705C28.2324 32.212 27.6291 31.9944 26.9315 32.0523C26.2671 32.1073 25.7244 32.4199 25.3034 32.9899C24.9129 33.524 24.7299 34.1412 24.7545 34.8416ZM44.5363 33.202C44.4453 32.5072 44.1466 31.9299 43.6402 31.4702C43.1643 30.9745 42.5942 30.7541 41.9298 30.8092C41.2654 30.8643 40.6895 31.1796 40.2021 31.7551C39.8448 32.2864 39.6756 32.8691 39.6947 33.503L39.7236 33.8518C39.8119 34.5134 40.076 35.0768 40.5159 35.5421C41.0915 36.0295 41.7115 36.2457 42.3758 36.1907C43.0402 36.1356 43.5663 35.8244 43.9541 35.2571C44.3779 34.7203 44.5788 34.1183 44.557 33.4512L44.5363 33.202Z" fill="#3C3E41"/>
<path d="M31.5283 31.2196L31.4922 28.3629L20.688 28.7567L20.7739 31.6093L31.5283 31.2196ZM37.5713 27.8591L38.006 30.6828L48.6778 29.2966L48.2929 26.4687L37.5713 27.8591Z" fill="#3C3E41"/>
<path d="M34.8798 38.9691C32.5213 39.1646 30.5681 39.8115 29.0202 40.9097C27.5637 41.9001 26.7854 43.0014 26.6852 44.2138C26.6325 44.3854 26.6476 44.5681 26.7306 44.762C26.8108 44.9225 26.9228 45.0638 27.0667 45.1856C27.2106 45.3075 27.3836 45.3768 27.5857 45.3935C30.4783 45.5885 33.1415 45.0333 35.5753 43.7279C38.1575 44.6176 40.8758 44.7268 43.73 44.0554C43.9266 44.0057 44.0858 43.9089 44.2077 43.765C44.3295 43.6211 44.4168 43.4633 44.4695 43.2917C44.5194 43.0869 44.5209 42.9028 44.4739 42.7395C44.1422 41.5629 43.1766 40.6061 41.5769 39.869C39.8361 39.0433 37.8031 38.7269 35.4778 38.9196C35.3781 38.9278 35.2785 38.9361 35.1788 38.9444C35.0791 38.9526 34.9795 38.9609 34.8798 38.9691Z" fill="#3C3E41"/>
<path d="M37.662 38.6382C38.2878 38.1181 38.5746 37.5424 38.5223 36.9113C38.4727 36.3133 38.0951 35.7927 37.3894 35.3495C36.6892 34.9727 35.8575 34.8243 34.8941 34.9041C33.964 34.9812 33.1846 35.2632 32.5561 35.7501C31.933 36.3035 31.6462 36.8791 31.6958 37.477C31.7481 38.1082 32.1257 38.6288 32.8286 39.0388C33.5343 39.482 34.3522 39.6651 35.2823 39.588C36.2457 39.5081 37.0389 39.1915 37.662 38.6382Z" fill="#955435"/>
<path d="M13.3962 20.6815L13.3464 20.6856C12.6903 20.8403 12.1697 21.218 11.7846 21.8185C11.3941 22.3525 11.2762 22.9476 11.4309 23.6038L14.6459 39.3919C14.7647 40.0176 15.1091 40.5409 15.6791 40.9619C16.2436 41.3165 16.854 41.4164 17.5101 41.2617L17.5599 41.2576C18.2188 41.136 18.7255 40.793 19.0801 40.2285C19.4347 39.6639 19.5498 39.0356 19.4256 38.3435L16.2188 22.6551C16.0613 21.9657 15.7003 21.4438 15.1358 21.0892C14.6045 20.7319 14.0246 20.596 13.3962 20.6815ZM51.8095 18.0497C51.3442 18.4896 51.0907 19.0625 51.0488 19.7683L50.4686 35.7707C50.46 36.4738 50.677 37.0746 51.1197 37.573C51.5624 38.0715 52.1187 38.3264 52.7886 38.3378L52.8384 38.3337C53.4778 38.381 54.0467 38.1833 54.5452 37.7407C55.0714 37.2288 55.3415 36.6545 55.3557 36.0179L55.9276 19.9159C55.9722 19.2432 55.7579 18.6757 55.2848 18.2132C54.8061 17.6842 54.2305 17.3975 53.5578 17.3529L53.508 17.357C52.8409 17.3789 52.2747 17.6097 51.8095 18.0497Z" fill="#3C3E41"/>
<path d="M48.806 21.1583C52.9452 19.4439 54.9404 17.6898 54.7917 15.896C54.6458 14.1354 52.4001 12.8666 48.0544 12.0895C43.7752 11.307 38.6362 11.2479 32.6374 11.9123C26.7077 12.6045 21.6733 13.8077 17.5342 15.5221C13.431 17.267 11.4524 19.0197 11.5983 20.7803C11.747 22.5741 13.9761 23.8443 18.2858 24.5909C22.6342 25.4011 27.7732 25.4602 33.7028 24.7681C39.7017 24.1036 44.7361 22.9004 48.806 21.1583Z" fill="#3C3E41"/>
<defs>
<radialGradient id="paint0_radial_2026_3" cx="0" cy="0" r="1" gradientUnits="userSpaceOnUse" gradientTransform="translate(34.4 50.1) scale(20.4816 13.5875)">
<stop stop-opacity="0.301961"/>
<stop offset="1" stop-opacity="0"/>
</radialGradient>
</defs>
</svg>
