<svg width="12" height="12" viewBox="0 0 12 12" fill="none" xmlns="http://www.w3.org/2000/svg">
<path d="M6.27185 1.42613L3.2126 6.49988C3.19673 6.52629 3.18816 6.55644 3.18776 6.58724C3.18736 6.61805 3.19515 6.64841 3.21033 6.67523C3.22551 6.70204 3.24753 6.72434 3.27416 6.73985C3.30078 6.75536 3.33104 6.76352 3.36185 6.7635H4.90948C5.0246 6.7635 5.11835 6.85725 5.11835 6.97238V10.2116H4.93423V11.0891H5.21623C5.23528 11.0906 5.25436 11.0866 5.27127 11.0778C5.28818 11.0689 5.30225 11.0554 5.31185 11.0389L8.71423 5.4645C8.72386 5.44867 8.72911 5.43057 8.72945 5.41205C8.72979 5.39353 8.72521 5.37525 8.71617 5.35908C8.70713 5.34291 8.69396 5.32943 8.678 5.32001C8.66205 5.3106 8.64388 5.30559 8.62535 5.3055H6.85948C6.81333 5.3055 6.76907 5.28717 6.73644 5.25454C6.70381 5.22191 6.68548 5.17765 6.68548 5.1315V1.11563C6.6857 1.08893 6.67561 1.06318 6.6573 1.04376C6.63899 1.02433 6.61389 1.01273 6.58723 1.01138L6.27185 1.011V1.42613Z" fill="url(#paint0_linear_20_11)"/>
<g filter="url(#filter0_i_20_11)">
<path d="M6.18487 1.06163L2.90625 6.4995C2.8903 6.52589 2.88165 6.55605 2.88118 6.58688C2.88072 6.61771 2.88846 6.64811 2.9036 6.67497C2.91875 6.70183 2.94076 6.72418 2.96738 6.73974C2.99401 6.7553 3.02429 6.7635 3.05512 6.7635H4.60275C4.71825 6.7635 4.81162 6.85725 4.81162 6.97238V10.9849C4.81162 11.0899 4.95037 11.1289 5.00512 11.0389L8.40787 5.4645C8.41752 5.44865 8.42277 5.43052 8.4231 5.41196C8.42342 5.39341 8.41881 5.3751 8.40972 5.35892C8.40064 5.34274 8.38742 5.32926 8.37141 5.31987C8.3554 5.31049 8.33718 5.30553 8.31862 5.3055H6.55275C6.5066 5.3055 6.46234 5.28717 6.42971 5.25454C6.39708 5.22191 6.37875 5.17765 6.37875 5.1315V1.11563C6.37875 1.00988 6.23962 0.971254 6.18487 1.06163Z" fill="url(#paint1_linear_20_11)"/>
</g>
<path d="M6.18487 1.06163L2.90625 6.4995C2.8903 6.52589 2.88165 6.55605 2.88118 6.58688C2.88072 6.61771 2.88846 6.64811 2.9036 6.67497C2.91875 6.70183 2.94076 6.72418 2.96738 6.73974C2.99401 6.7553 3.02429 6.7635 3.05512 6.7635H4.60275C4.71825 6.7635 4.81162 6.85725 4.81162 6.97238V10.9849C4.81162 11.0899 4.95037 11.1289 5.00512 11.0389L8.40787 5.4645C8.41752 5.44865 8.42277 5.43052 8.4231 5.41196C8.42342 5.39341 8.41881 5.3751 8.40972 5.35892C8.40064 5.34274 8.38742 5.32926 8.37141 5.31987C8.3554 5.31049 8.33718 5.30553 8.31862 5.3055H6.55275C6.5066 5.3055 6.46234 5.28717 6.42971 5.25454C6.39708 5.22191 6.37875 5.17765 6.37875 5.1315V1.11563C6.37875 1.00988 6.23962 0.971254 6.18487 1.06163Z" fill="url(#paint2_linear_20_11)"/>
<path d="M6.18487 1.06163L2.90625 6.4995C2.8903 6.52589 2.88165 6.55605 2.88118 6.58688C2.88072 6.61771 2.88846 6.64811 2.9036 6.67497C2.91875 6.70183 2.94076 6.72418 2.96738 6.73974C2.99401 6.7553 3.02429 6.7635 3.05512 6.7635H4.60275C4.71825 6.7635 4.81162 6.85725 4.81162 6.97238V10.9849C4.81162 11.0899 4.95037 11.1289 5.00512 11.0389L8.40787 5.4645C8.41752 5.44865 8.42277 5.43052 8.4231 5.41196C8.42342 5.39341 8.41881 5.3751 8.40972 5.35892C8.40064 5.34274 8.38742 5.32926 8.37141 5.31987C8.3554 5.31049 8.33718 5.30553 8.31862 5.3055H6.55275C6.5066 5.3055 6.46234 5.28717 6.42971 5.25454C6.39708 5.22191 6.37875 5.17765 6.37875 5.1315V1.11563C6.37875 1.00988 6.23962 0.971254 6.18487 1.06163Z" fill="url(#paint3_radial_20_11)"/>
<path d="M6.18487 1.06163L2.90625 6.4995C2.8903 6.52589 2.88165 6.55605 2.88118 6.58688C2.88072 6.61771 2.88846 6.64811 2.9036 6.67497C2.91875 6.70183 2.94076 6.72418 2.96738 6.73974C2.99401 6.7553 3.02429 6.7635 3.05512 6.7635H4.60275C4.71825 6.7635 4.81162 6.85725 4.81162 6.97238V10.9849C4.81162 11.0899 4.95037 11.1289 5.00512 11.0389L8.40787 5.4645C8.41752 5.44865 8.42277 5.43052 8.4231 5.41196C8.42342 5.39341 8.41881 5.3751 8.40972 5.35892C8.40064 5.34274 8.38742 5.32926 8.37141 5.31987C8.3554 5.31049 8.33718 5.30553 8.31862 5.3055H6.55275C6.5066 5.3055 6.46234 5.28717 6.42971 5.25454C6.39708 5.22191 6.37875 5.17765 6.37875 5.1315V1.11563C6.37875 1.00988 6.23962 0.971254 6.18487 1.06163Z" fill="url(#paint4_linear_20_11)"/>
<path d="M6.18487 1.06163L2.90625 6.4995C2.8903 6.52589 2.88165 6.55605 2.88118 6.58688C2.88072 6.61771 2.88846 6.64811 2.9036 6.67497C2.91875 6.70183 2.94076 6.72418 2.96738 6.73974C2.99401 6.7553 3.02429 6.7635 3.05512 6.7635H4.60275C4.71825 6.7635 4.81162 6.85725 4.81162 6.97238V10.9849C4.81162 11.0899 4.95037 11.1289 5.00512 11.0389L8.40787 5.4645C8.41752 5.44865 8.42277 5.43052 8.4231 5.41196C8.42342 5.39341 8.41881 5.3751 8.40972 5.35892C8.40064 5.34274 8.38742 5.32926 8.37141 5.31987C8.3554 5.31049 8.33718 5.30553 8.31862 5.3055H6.55275C6.5066 5.3055 6.46234 5.28717 6.42971 5.25454C6.39708 5.22191 6.37875 5.17765 6.37875 5.1315V1.11563C6.37875 1.00988 6.23962 0.971254 6.18487 1.06163Z" fill="url(#paint5_radial_20_11)"/>
<defs>
<filter id="filter0_i_20_11" x="2.88116" y="1.01108" width="5.54193" height="10.078" filterUnits="userSpaceOnUse" color-interpolation-filters="sRGB">
<feFlood flood-opacity="0" result="BackgroundImageFix"/>
<feBlend mode="normal" in="SourceGraphic" in2="BackgroundImageFix" result="shape"/>
<feColorMatrix in="SourceAlpha" type="matrix" values="0 0 0 0 0 0 0 0 0 0 0 0 0 0 0 0 0 0 127 0" result="hardAlpha"/>
<feOffset/>
<feGaussianBlur stdDeviation="0.09375"/>
<feComposite in2="hardAlpha" operator="arithmetic" k2="-1" k3="1"/>
<feColorMatrix type="matrix" values="0 0 0 0 0.968627 0 0 0 0 0.431373 0 0 0 0 0.337255 0 0 0 1 0"/>
<feBlend mode="normal" in2="shape" result="effect1_innerShadow_20_11"/>
</filter>
<linearGradient id="paint0_linear_20_11" x1="6.9026" y1="2.98725" x2="6.9026" y2="8.892" gradientUnits="userSpaceOnUse">
<stop stop-color="#FFBD61"/>
<stop offset="1" stop-color="#EB5C74"/>
</linearGradient>
<linearGradient id="paint1_linear_20_11" x1="5.652" y1="4.14375" x2="5.652" y2="9.96975" gradientUnits="userSpaceOnUse">
<stop stop-color="#FFA547"/>
<stop offset="1" stop-color="#F14B49"/>
</linearGradient>
<linearGradient id="paint2_linear_20_11" x1="5.652" y1="1.011" x2="5.652" y2="5.16038" gradientUnits="userSpaceOnUse">
<stop stop-color="#DF9844"/>
<stop offset="1" stop-color="#DF9844" stop-opacity="0"/>
</linearGradient>
<radialGradient id="paint3_radial_20_11" cx="0" cy="0" r="1" gradientUnits="userSpaceOnUse" gradientTransform="translate(6.4125 2.9715) rotate(90) scale(2.42098 0.528214)">
<stop stop-color="#FE9052"/>
<stop offset="1" stop-color="#FE9052" stop-opacity="0"/>
</radialGradient>
<linearGradient id="paint4_linear_20_11" x1="4.89862" y1="3.1395" x2="5.05987" y2="3.23625" gradientUnits="userSpaceOnUse">
<stop stop-color="#C76C38"/>
<stop offset="1" stop-color="#C76C38" stop-opacity="0"/>
</linearGradient>
<radialGradient id="paint5_radial_20_11" cx="0" cy="0" r="1" gradientUnits="userSpaceOnUse" gradientTransform="translate(6.43387 2.8935) rotate(90) scale(2.50781 0.914062)">
<stop stop-color="#FFB54B"/>
<stop offset="1" stop-color="#FFB54B" stop-opacity="0"/>
</radialGradient>
</defs>
</svg>
