<svg width="12" height="12" viewBox="0 0 12 12" fill="none" xmlns="http://www.w3.org/2000/svg">
<g filter="url(#filter0_ii_18_38)">
<path d="M5.26462 11.25C7.75798 11.25 9.77925 9.22873 9.77925 6.73537C9.77925 4.24202 7.75798 2.22075 5.26462 2.22075C2.77127 2.22075 0.75 4.24202 0.75 6.73537C0.75 9.22873 2.77127 11.25 5.26462 11.25Z" fill="url(#paint0_linear_18_38)"/>
<path d="M5.26462 11.25C7.75798 11.25 9.77925 9.22873 9.77925 6.73537C9.77925 4.24202 7.75798 2.22075 5.26462 2.22075C2.77127 2.22075 0.75 4.24202 0.75 6.73537C0.75 9.22873 2.77127 11.25 5.26462 11.25Z" fill="url(#paint1_radial_18_38)"/>
</g>
<path d="M5.26464 10.0373C7.08822 10.0373 8.56652 8.55895 8.56652 6.73538C8.56652 4.9118 7.08822 3.4335 5.26464 3.4335C3.44107 3.4335 1.96277 4.9118 1.96277 6.73538C1.96277 8.55895 3.44107 10.0373 5.26464 10.0373Z" fill="url(#paint2_linear_18_38)"/>
<path d="M5.26464 10.0373C7.08822 10.0373 8.56652 8.55895 8.56652 6.73538C8.56652 4.9118 7.08822 3.4335 5.26464 3.4335C3.44107 3.4335 1.96277 4.9118 1.96277 6.73538C1.96277 8.55895 3.44107 10.0373 5.26464 10.0373Z" fill="url(#paint3_radial_18_38)"/>
<path d="M5.26464 10.0373C7.08822 10.0373 8.56652 8.55895 8.56652 6.73538C8.56652 4.9118 7.08822 3.4335 5.26464 3.4335C3.44107 3.4335 1.96277 4.9118 1.96277 6.73538C1.96277 8.55895 3.44107 10.0373 5.26464 10.0373Z" fill="url(#paint4_radial_18_38)"/>
<path d="M5.2646 8.89463C6.45712 8.89463 7.42385 7.9279 7.42385 6.73538C7.42385 5.54286 6.45712 4.57613 5.2646 4.57613C4.07208 4.57613 3.10535 5.54286 3.10535 6.73538C3.10535 7.9279 4.07208 8.89463 5.2646 8.89463Z" fill="url(#paint5_linear_18_38)"/>
<path d="M5.2646 8.89463C6.45712 8.89463 7.42385 7.9279 7.42385 6.73538C7.42385 5.54286 6.45712 4.57613 5.2646 4.57613C4.07208 4.57613 3.10535 5.54286 3.10535 6.73538C3.10535 7.9279 4.07208 8.89463 5.2646 8.89463Z" fill="url(#paint6_radial_18_38)"/>
<path d="M5.26463 7.80749C5.85675 7.80749 6.33676 7.32748 6.33676 6.73536C6.33676 6.14325 5.85675 5.66324 5.26463 5.66324C4.67251 5.66324 4.1925 6.14325 4.1925 6.73536C4.1925 7.32748 4.67251 7.80749 5.26463 7.80749Z" fill="#B7ABC8"/>
<path d="M5.26463 7.80749C5.85675 7.80749 6.33676 7.32748 6.33676 6.73536C6.33676 6.14325 5.85675 5.66324 5.26463 5.66324C4.67251 5.66324 4.1925 6.14325 4.1925 6.73536C4.1925 7.32748 4.67251 7.80749 5.26463 7.80749Z" fill="url(#paint7_radial_18_38)"/>
<path d="M5.26463 7.80749C5.85675 7.80749 6.33676 7.32748 6.33676 6.73536C6.33676 6.14325 5.85675 5.66324 5.26463 5.66324C4.67251 5.66324 4.1925 6.14325 4.1925 6.73536C4.1925 7.32748 4.67251 7.80749 5.26463 7.80749Z" fill="url(#paint8_radial_18_38)"/>
<g filter="url(#filter1_f_18_38)">
<path d="M5.35575 10.8487C7.62712 10.8487 9.46875 9.00712 9.46875 6.73499C9.46875 4.46362 7.6275 2.62199 5.35575 2.62199C3.084 2.62199 1.24237 4.46362 1.24237 6.73537C1.24237 9.00712 3.084 10.8487 5.35575 10.8487Z" stroke="url(#paint9_linear_18_38)" stroke-width="0.24375"/>
</g>
<path d="M5.30027 6.70313C5.17352 6.576 5.12664 6.432 5.25339 6.30488L5.89652 5.65875C5.92655 5.62786 5.96242 5.60324 6.00205 5.58633C6.04167 5.56942 6.08427 5.56056 6.12735 5.56025C6.17043 5.55994 6.21314 5.56821 6.25301 5.58455C6.29287 5.6009 6.32908 5.625 6.35955 5.65547C6.39001 5.68593 6.41412 5.72215 6.43047 5.76201C6.44681 5.80187 6.45507 5.84459 6.45477 5.88767C6.45446 5.93075 6.4456 5.97335 6.42869 6.01297C6.41178 6.0526 6.38716 6.08847 6.35627 6.1185L5.71314 6.76463C5.58639 6.89175 5.42739 6.82988 5.30064 6.70313" fill="#7C7088"/>
<path d="M5.30027 6.70313C5.17352 6.576 5.12664 6.432 5.25339 6.30488L5.89652 5.65875C5.92655 5.62786 5.96242 5.60324 6.00205 5.58633C6.04167 5.56942 6.08427 5.56056 6.12735 5.56025C6.17043 5.55994 6.21314 5.56821 6.25301 5.58455C6.29287 5.6009 6.32908 5.625 6.35955 5.65547C6.39001 5.68593 6.41412 5.72215 6.43047 5.76201C6.44681 5.80187 6.45507 5.84459 6.45477 5.88767C6.45446 5.93075 6.4456 5.97335 6.42869 6.01297C6.41178 6.0526 6.38716 6.08847 6.35627 6.1185L5.71314 6.76463C5.58639 6.89175 5.42739 6.82988 5.30064 6.70313" fill="url(#paint10_linear_18_38)"/>
<path d="M5.30027 6.70313C5.17352 6.576 5.12664 6.432 5.25339 6.30488L5.89652 5.65875C5.92655 5.62786 5.96242 5.60324 6.00205 5.58633C6.04167 5.56942 6.08427 5.56056 6.12735 5.56025C6.17043 5.55994 6.21314 5.56821 6.25301 5.58455C6.29287 5.6009 6.32908 5.625 6.35955 5.65547C6.39001 5.68593 6.41412 5.72215 6.43047 5.76201C6.44681 5.80187 6.45507 5.84459 6.45477 5.88767C6.45446 5.93075 6.4456 5.97335 6.42869 6.01297C6.41178 6.0526 6.38716 6.08847 6.35627 6.1185L5.71314 6.76463C5.58639 6.89175 5.42739 6.82988 5.30064 6.70313" fill="url(#paint11_linear_18_38)"/>
<path d="M8.49901 1.0395L8.95913 2.256L7.27763 3.4335C6.77701 2.10937 7.38938 1.32712 7.95788 0.873745C8.14426 0.725245 8.41463 0.81637 8.49901 1.0395Z" fill="#2983DF"/>
<path d="M8.49901 1.0395L8.95913 2.256L7.27763 3.4335C6.77701 2.10937 7.38938 1.32712 7.95788 0.873745C8.14426 0.725245 8.41463 0.81637 8.49901 1.0395Z" fill="url(#paint12_radial_18_38)"/>
<path d="M8.49901 1.0395L8.95913 2.256L7.27763 3.4335C6.77701 2.10937 7.38938 1.32712 7.95788 0.873745C8.14426 0.725245 8.41463 0.81637 8.49901 1.0395Z" fill="url(#paint13_linear_18_38)"/>
<path d="M10.9489 3.49162L9.72676 3.04649L8.56989 4.74262C9.90039 5.22712 10.6748 4.60499 11.121 4.03124C11.2673 3.84299 11.1728 3.57337 10.9485 3.49162" fill="#2980EB"/>
<path d="M10.9489 3.49162L9.72676 3.04649L8.56989 4.74262C9.90039 5.22712 10.6748 4.60499 11.121 4.03124C11.2673 3.84299 11.1728 3.57337 10.9485 3.49162" fill="url(#paint14_linear_18_38)"/>
<path d="M10.9489 3.49162L9.72676 3.04649L8.56989 4.74262C9.90039 5.22712 10.6748 4.60499 11.121 4.03124C11.2673 3.84299 11.1728 3.57337 10.9485 3.49162" fill="url(#paint15_radial_18_38)"/>
<g filter="url(#filter2_f_18_38)">
<path d="M8.39057 1.02574C8.35623 0.933997 8.25402 0.887465 8.16227 0.921809C8.07053 0.956153 8.024 1.05837 8.05834 1.15011L8.62523 2.66448C8.65958 2.75623 8.76179 2.80276 8.85353 2.76841C8.94528 2.73407 8.99181 2.63186 8.95747 2.54011L8.39057 1.02574Z" fill="url(#paint16_radial_18_38)"/>
</g>
<g filter="url(#filter3_f_18_38)">
<path d="M10.8248 3.9146C10.9165 3.94909 11.0188 3.90272 11.0533 3.81102C11.0878 3.71933 11.0414 3.61705 10.9497 3.58256L9.43621 3.01332C9.34452 2.97883 9.24224 3.0252 9.20775 3.11689C9.17326 3.20858 9.21964 3.31087 9.31133 3.34536L10.8248 3.9146Z" fill="url(#paint17_radial_18_38)"/>
</g>
<g filter="url(#filter4_i_18_38)">
<path d="M6.255 4.01624L8.73975 2.17499C9.06975 1.92861 9.5625 1.99274 9.81113 2.24886C10.0875 2.54549 10.1201 2.98236 9.88313 3.30486L8.04938 5.79674C7.94051 5.94452 7.80108 6.06712 7.64057 6.15617C7.48006 6.24522 7.30225 6.29864 7.11925 6.3128C6.93624 6.32695 6.75233 6.3015 6.58004 6.23819C6.40775 6.17488 6.25112 6.07518 6.12082 5.94589C5.99053 5.8166 5.88962 5.66076 5.82497 5.48896C5.76032 5.31717 5.73345 5.13346 5.74618 4.95035C5.75891 4.76724 5.81095 4.58902 5.89876 4.42782C5.98656 4.26663 6.10807 4.12625 6.255 4.01624Z" fill="#52BCF0"/>
</g>
<path d="M6.255 4.01624L8.73975 2.17499C9.06975 1.92861 9.5625 1.99274 9.81113 2.24886C10.0875 2.54549 10.1201 2.98236 9.88313 3.30486L8.04938 5.79674C7.94051 5.94452 7.80108 6.06712 7.64057 6.15617C7.48006 6.24522 7.30225 6.29864 7.11925 6.3128C6.93624 6.32695 6.75233 6.3015 6.58004 6.23819C6.40775 6.17488 6.25112 6.07518 6.12082 5.94589C5.99053 5.8166 5.88962 5.66076 5.82497 5.48896C5.76032 5.31717 5.73345 5.13346 5.74618 4.95035C5.75891 4.76724 5.81095 4.58902 5.89876 4.42782C5.98656 4.26663 6.10807 4.12625 6.255 4.01624Z" fill="url(#paint18_radial_18_38)"/>
<path d="M6.255 4.01624L8.73975 2.17499C9.06975 1.92861 9.5625 1.99274 9.81113 2.24886C10.0875 2.54549 10.1201 2.98236 9.88313 3.30486L8.04938 5.79674C7.94051 5.94452 7.80108 6.06712 7.64057 6.15617C7.48006 6.24522 7.30225 6.29864 7.11925 6.3128C6.93624 6.32695 6.75233 6.3015 6.58004 6.23819C6.40775 6.17488 6.25112 6.07518 6.12082 5.94589C5.99053 5.8166 5.88962 5.66076 5.82497 5.48896C5.76032 5.31717 5.73345 5.13346 5.74618 4.95035C5.75891 4.76724 5.81095 4.58902 5.89876 4.42782C5.98656 4.26663 6.10807 4.12625 6.255 4.01624Z" fill="url(#paint19_radial_18_38)"/>
<path d="M6.255 4.01624L8.73975 2.17499C9.06975 1.92861 9.5625 1.99274 9.81113 2.24886C10.0875 2.54549 10.1201 2.98236 9.88313 3.30486L8.04938 5.79674C7.94051 5.94452 7.80108 6.06712 7.64057 6.15617C7.48006 6.24522 7.30225 6.29864 7.11925 6.3128C6.93624 6.32695 6.75233 6.3015 6.58004 6.23819C6.40775 6.17488 6.25112 6.07518 6.12082 5.94589C5.99053 5.8166 5.88962 5.66076 5.82497 5.48896C5.76032 5.31717 5.73345 5.13346 5.74618 4.95035C5.75891 4.76724 5.81095 4.58902 5.89876 4.42782C5.98656 4.26663 6.10807 4.12625 6.255 4.01624Z" fill="url(#paint20_radial_18_38)"/>
<g filter="url(#filter5_ii_18_38)">
<path d="M9.99338 2.48146C10.1228 2.352 10.1228 2.14211 9.99338 2.01265C9.86392 1.88319 9.65403 1.88319 9.52457 2.01265L7.59682 3.9404C7.46736 4.06986 7.46736 4.27975 7.59682 4.40921C7.72628 4.53867 7.93617 4.53867 8.06563 4.40921L9.99338 2.48146Z" fill="#2984E4"/>
</g>
<path d="M9.99338 2.48146C10.1228 2.352 10.1228 2.14211 9.99338 2.01265C9.86392 1.88319 9.65403 1.88319 9.52457 2.01265L7.59682 3.9404C7.46736 4.06986 7.46736 4.27975 7.59682 4.40921C7.72628 4.53867 7.93617 4.53867 8.06563 4.40921L9.99338 2.48146Z" fill="url(#paint21_radial_18_38)"/>
<defs>
<filter id="filter0_ii_18_38" x="0.75" y="2.03325" width="9.21674" height="9.40425" filterUnits="userSpaceOnUse" color-interpolation-filters="sRGB">
<feFlood flood-opacity="0" result="BackgroundImageFix"/>
<feBlend mode="normal" in="SourceGraphic" in2="BackgroundImageFix" result="shape"/>
<feColorMatrix in="SourceAlpha" type="matrix" values="0 0 0 0 0 0 0 0 0 0 0 0 0 0 0 0 0 0 127 0" result="hardAlpha"/>
<feOffset dx="0.1875" dy="-0.1875"/>
<feGaussianBlur stdDeviation="0.1875"/>
<feComposite in2="hardAlpha" operator="arithmetic" k2="-1" k3="1"/>
<feColorMatrix type="matrix" values="0 0 0 0 0.737255 0 0 0 0 0.160784 0 0 0 0 0.329412 0 0 0 1 0"/>
<feBlend mode="normal" in2="shape" result="effect1_innerShadow_18_38"/>
<feColorMatrix in="SourceAlpha" type="matrix" values="0 0 0 0 0 0 0 0 0 0 0 0 0 0 0 0 0 0 127 0" result="hardAlpha"/>
<feOffset dx="0.1875" dy="0.1875"/>
<feGaussianBlur stdDeviation="0.1875"/>
<feComposite in2="hardAlpha" operator="arithmetic" k2="-1" k3="1"/>
<feColorMatrix type="matrix" values="0 0 0 0 0.74902 0 0 0 0 0.341176 0 0 0 0 0.490196 0 0 0 1 0"/>
<feBlend mode="normal" in2="effect1_innerShadow_18_38" result="effect2_innerShadow_18_38"/>
</filter>
<filter id="filter1_f_18_38" x="0.876733" y="2.25637" width="8.95765" height="8.95799" filterUnits="userSpaceOnUse" color-interpolation-filters="sRGB">
<feFlood flood-opacity="0" result="BackgroundImageFix"/>
<feBlend mode="normal" in="SourceGraphic" in2="BackgroundImageFix" result="shape"/>
<feGaussianBlur stdDeviation="0.121875" result="effect1_foregroundBlur_18_38"/>
</filter>
<filter id="filter2_f_18_38" x="7.85956" y="0.723007" width="1.29669" height="2.24422" filterUnits="userSpaceOnUse" color-interpolation-filters="sRGB">
<feFlood flood-opacity="0" result="BackgroundImageFix"/>
<feBlend mode="normal" in="SourceGraphic" in2="BackgroundImageFix" result="shape"/>
<feGaussianBlur stdDeviation="0.09375" result="effect1_foregroundBlur_18_38"/>
</filter>
<filter id="filter3_f_18_38" x="9.00885" y="2.81441" width="2.24335" height="1.2991" filterUnits="userSpaceOnUse" color-interpolation-filters="sRGB">
<feFlood flood-opacity="0" result="BackgroundImageFix"/>
<feBlend mode="normal" in="SourceGraphic" in2="BackgroundImageFix" result="shape"/>
<feGaussianBlur stdDeviation="0.09375" result="effect1_foregroundBlur_18_38"/>
</filter>
<filter id="filter4_i_18_38" x="5.7431" y="2.01997" width="4.39227" height="4.39038" filterUnits="userSpaceOnUse" color-interpolation-filters="sRGB">
<feFlood flood-opacity="0" result="BackgroundImageFix"/>
<feBlend mode="normal" in="SourceGraphic" in2="BackgroundImageFix" result="shape"/>
<feColorMatrix in="SourceAlpha" type="matrix" values="0 0 0 0 0 0 0 0 0 0 0 0 0 0 0 0 0 0 127 0" result="hardAlpha"/>
<feOffset dx="0.09375" dy="0.09375"/>
<feGaussianBlur stdDeviation="0.1875"/>
<feComposite in2="hardAlpha" operator="arithmetic" k2="-1" k3="1"/>
<feColorMatrix type="matrix" values="0 0 0 0 0.45098 0 0 0 0 0.65098 0 0 0 0 0.737255 0 0 0 1 0"/>
<feBlend mode="normal" in2="shape" result="effect1_innerShadow_18_38"/>
</filter>
<filter id="filter5_ii_18_38" x="7.44344" y="1.85931" width="2.70326" height="2.70324" filterUnits="userSpaceOnUse" color-interpolation-filters="sRGB">
<feFlood flood-opacity="0" result="BackgroundImageFix"/>
<feBlend mode="normal" in="SourceGraphic" in2="BackgroundImageFix" result="shape"/>
<feColorMatrix in="SourceAlpha" type="matrix" values="0 0 0 0 0 0 0 0 0 0 0 0 0 0 0 0 0 0 127 0" result="hardAlpha"/>
<feOffset dx="0.05625" dy="0.05625"/>
<feGaussianBlur stdDeviation="0.05625"/>
<feComposite in2="hardAlpha" operator="arithmetic" k2="-1" k3="1"/>
<feColorMatrix type="matrix" values="0 0 0 0 0.160784 0 0 0 0 0.521569 0 0 0 0 0.764706 0 0 0 1 0"/>
<feBlend mode="normal" in2="shape" result="effect1_innerShadow_18_38"/>
<feColorMatrix in="SourceAlpha" type="matrix" values="0 0 0 0 0 0 0 0 0 0 0 0 0 0 0 0 0 0 127 0" result="hardAlpha"/>
<feOffset dx="-0.05625" dy="-0.05625"/>
<feGaussianBlur stdDeviation="0.084375"/>
<feComposite in2="hardAlpha" operator="arithmetic" k2="-1" k3="1"/>
<feColorMatrix type="matrix" values="0 0 0 0 0.235294 0 0 0 0 0.435294 0 0 0 0 0.831373 0 0 0 1 0"/>
<feBlend mode="normal" in2="effect1_innerShadow_18_38" result="effect2_innerShadow_18_38"/>
</filter>
<linearGradient id="paint0_linear_18_38" x1="7.32525" y1="2.67037" x2="3.53738" y2="10.3747" gradientUnits="userSpaceOnUse">
<stop stop-color="#E6378B"/>
<stop offset="1" stop-color="#EF3A5C"/>
</linearGradient>
<radialGradient id="paint1_radial_18_38" cx="0" cy="0" r="1" gradientUnits="userSpaceOnUse" gradientTransform="translate(7.4895 3.87375) rotate(124.825) scale(2.0005 2.90929)">
<stop offset="0.219" stop-color="#B82974"/>
<stop offset="1" stop-color="#B82974" stop-opacity="0"/>
</radialGradient>
<linearGradient id="paint2_linear_18_38" x1="7.63239" y1="8.39588" x2="2.72964" y2="3.30225" gradientUnits="userSpaceOnUse">
<stop stop-color="#CEC3DF"/>
<stop offset="1" stop-color="#C5BCD3"/>
</linearGradient>
<radialGradient id="paint3_radial_18_38" cx="0" cy="0" r="1" gradientUnits="userSpaceOnUse" gradientTransform="translate(4.20527 6.735) scale(4.36125)">
<stop offset="0.861" stop-color="#CBC4DF" stop-opacity="0"/>
<stop offset="1" stop-color="#CBC4DF"/>
</radialGradient>
<radialGradient id="paint4_radial_18_38" cx="0" cy="0" r="1" gradientUnits="userSpaceOnUse" gradientTransform="translate(6.82314 3.65963) rotate(118.217) scale(2.21484 1.21228)">
<stop stop-color="#9DA8B4"/>
<stop offset="1" stop-color="#9DA8B4" stop-opacity="0"/>
</radialGradient>
<linearGradient id="paint5_linear_18_38" x1="6.70422" y1="5.27775" x2="4.1576" y2="8.70525" gradientUnits="userSpaceOnUse">
<stop stop-color="#D2347A"/>
<stop offset="1" stop-color="#ED3963"/>
</linearGradient>
<radialGradient id="paint6_radial_18_38" cx="0" cy="0" r="1" gradientUnits="userSpaceOnUse" gradientTransform="translate(6.37082 5.34936) rotate(131.253) scale(1.67785)">
<stop stop-color="#962359"/>
<stop offset="0.947" stop-color="#962359" stop-opacity="0"/>
</radialGradient>
<radialGradient id="paint7_radial_18_38" cx="0" cy="0" r="1" gradientUnits="userSpaceOnUse" gradientTransform="translate(5.06201 6.37289) rotate(67.204) scale(1.78137)">
<stop offset="0.613" stop-color="#C9BED9" stop-opacity="0"/>
<stop offset="1" stop-color="#C9BED9"/>
</radialGradient>
<radialGradient id="paint8_radial_18_38" cx="0" cy="0" r="1" gradientUnits="userSpaceOnUse" gradientTransform="translate(5.75244 5.66299) rotate(103.843) scale(1.39265)">
<stop stop-color="#857D97"/>
<stop offset="1" stop-color="#857D97" stop-opacity="0"/>
</radialGradient>
<linearGradient id="paint9_linear_18_38" x1="8.7825" y1="4.04362" x2="6.31087" y2="6.57149" gradientUnits="userSpaceOnUse">
<stop stop-color="#FF6AA2"/>
<stop offset="1" stop-color="#FF6AA2" stop-opacity="0"/>
</linearGradient>
<linearGradient id="paint10_linear_18_38" x1="6.05552" y1="6.48038" x2="5.81514" y2="6.23325" gradientUnits="userSpaceOnUse">
<stop stop-color="#7E5F8A"/>
<stop offset="1" stop-color="#7E5F8A" stop-opacity="0"/>
</linearGradient>
<linearGradient id="paint11_linear_18_38" x1="5.58789" y1="5.93363" x2="5.67714" y2="6.01763" gradientUnits="userSpaceOnUse">
<stop stop-color="#746D7C"/>
<stop offset="1" stop-color="#746D7C" stop-opacity="0"/>
</linearGradient>
<radialGradient id="paint12_radial_18_38" cx="0" cy="0" r="1" gradientUnits="userSpaceOnUse" gradientTransform="translate(8.09218 2.30843) rotate(-157.278) scale(1.01638 1.84536)">
<stop offset="0.75" stop-color="#6897C2" stop-opacity="0"/>
<stop offset="1" stop-color="#6897C2"/>
</radialGradient>
<linearGradient id="paint13_linear_18_38" x1="8.80126" y1="1.61737" x2="8.20351" y2="1.82812" gradientUnits="userSpaceOnUse">
<stop stop-color="#58C3FF"/>
<stop offset="1" stop-color="#58C3FF" stop-opacity="0"/>
</linearGradient>
<linearGradient id="paint14_linear_18_38" x1="10.5473" y1="3.19912" x2="10.3245" y2="3.67949" gradientUnits="userSpaceOnUse">
<stop stop-color="#49B6FF"/>
<stop offset="1" stop-color="#49B6FF" stop-opacity="0"/>
</linearGradient>
<radialGradient id="paint15_radial_18_38" cx="0" cy="0" r="1" gradientUnits="userSpaceOnUse" gradientTransform="translate(9.60976 3.46274) rotate(79.5793) scale(1.55495 2.00305)">
<stop offset="0.814" stop-color="#5066D2" stop-opacity="0"/>
<stop offset="0.926" stop-color="#5066D2"/>
</radialGradient>
<radialGradient id="paint16_radial_18_38" cx="0" cy="0" r="1" gradientUnits="userSpaceOnUse" gradientTransform="translate(8.2154 1.03165) rotate(66.402) scale(1.87347 0.395557)">
<stop stop-color="#61CEFF"/>
<stop offset="1" stop-color="#3CB8FF" stop-opacity="0"/>
</radialGradient>
<radialGradient id="paint17_radial_18_38" cx="0" cy="0" r="1" gradientUnits="userSpaceOnUse" gradientTransform="translate(10.9357 3.77904) rotate(-162.463) scale(1.87347 0.395557)">
<stop stop-color="#61CEFF"/>
<stop offset="1" stop-color="#3CB8FF" stop-opacity="0"/>
</radialGradient>
<radialGradient id="paint18_radial_18_38" cx="0" cy="0" r="1" gradientUnits="userSpaceOnUse" gradientTransform="translate(10.1839 2.20311) rotate(143.326) scale(1.37344 1.41526)">
<stop offset="0.423" stop-color="#6BFFFF"/>
<stop offset="1" stop-color="#6BFFFF" stop-opacity="0"/>
</radialGradient>
<radialGradient id="paint19_radial_18_38" cx="0" cy="0" r="1" gradientUnits="userSpaceOnUse" gradientTransform="translate(9.00263 3.20474) rotate(137.684) scale(4.06759 4.12061)">
<stop offset="0.838" stop-color="#5E9BDB" stop-opacity="0"/>
<stop offset="1" stop-color="#5E9BDB"/>
</radialGradient>
<radialGradient id="paint20_radial_18_38" cx="0" cy="0" r="1" gradientUnits="userSpaceOnUse" gradientTransform="translate(7.83547 4.16891) rotate(134.318) scale(0.738945 0.388822)">
<stop offset="0.361" stop-color="#49A0E1"/>
<stop offset="1" stop-color="#49A0E1" stop-opacity="0"/>
</radialGradient>
<radialGradient id="paint21_radial_18_38" cx="0" cy="0" r="1" gradientUnits="userSpaceOnUse" gradientTransform="translate(9.73855 2.22664) rotate(-44.5692) scale(1.10213 0.419821)">
<stop stop-color="#60CAFF"/>
<stop offset="1" stop-color="#60CAFF" stop-opacity="0"/>
</radialGradient>
</defs>
</svg>
