<svg width="99" height="92" viewBox="0 0 99 92" fill="none" xmlns="http://www.w3.org/2000/svg">
<path d="M27.0987 7.87832L34.2056 12.1858L39.808 10.6847L40.9338 14.8865C41.1495 15.6914 41.6247 16.306 42.3595 16.7303C43.0944 17.1546 43.8643 17.2589 44.6692 17.0432L44.7175 17.0303C45.5225 16.8146 46.1371 16.3393 46.5613 15.6045C46.7735 15.2371 46.9126 14.8547 46.9787 14.4574C47.0126 14.0687 46.9778 13.6812 46.8742 13.2948L43.709 0.322065L26.4189 4.95466L27.0987 7.87832ZM44.2163 15.3528C43.8299 15.4564 43.453 15.402 43.0856 15.1899C42.7182 14.9778 42.4827 14.6785 42.3792 14.2921C42.2757 13.9058 42.33 13.5289 42.5421 13.1615C42.7543 12.794 43.0535 12.5586 43.4399 12.455C43.8263 12.3515 44.2032 12.4058 44.5706 12.618C44.938 12.8301 45.1735 13.1294 45.277 13.5157C45.3805 13.9021 45.3262 14.279 45.1141 14.6464C44.9019 15.0138 44.6027 15.2493 44.2163 15.3528Z" fill="#334E63"/>
<path d="M43.0857 15.1899C43.4531 15.402 43.83 15.4563 44.2164 15.3528C44.6027 15.2493 44.902 15.0138 45.1141 14.6464C45.3263 14.279 45.3806 13.9021 45.277 13.5157C45.1735 13.1293 44.9381 12.8301 44.5706 12.6179C44.2032 12.4058 43.8263 12.3515 43.4399 12.455C43.0536 12.5585 42.7543 12.794 42.5422 13.1614C42.33 13.5289 42.2757 13.9057 42.3793 14.2921C42.4828 14.6785 42.7183 14.9777 43.0857 15.1899ZM37.2528 26.0701C37.6669 27.6156 38.6324 28.7718 40.1492 29.5387C41.6338 30.3142 43.2455 30.4691 44.9841 30.0032C46.6906 29.546 48.0089 28.6061 48.9391 27.1836C49.8693 25.761 50.1274 24.277 49.7133 22.7315L46.9787 14.4574C46.9126 14.8547 46.7735 15.2371 46.5614 15.6045C46.1371 16.3393 45.5225 16.8146 44.7176 17.0302L44.6693 17.0432C43.8643 17.2588 43.0944 17.1545 42.3596 16.7303C41.6248 16.306 41.1495 15.6914 40.9338 14.8865L39.808 10.6847L34.2057 12.1857L34.1574 12.1987L37.2528 26.0701Z" fill="#477CA6"/>
<path d="M68.6179 26.1581L68.5696 26.1452C67.7388 26.0261 67.0704 25.6227 66.5645 24.935C66.3115 24.5912 66.1359 24.2163 66.0376 23.8103C65.9629 23.4452 65.9612 23.0652 66.0325 22.6702L66.5235 18.7124L67.1365 9.66277L84.726 11.6321L84.4938 14.624L78.3873 20.0276L72.7228 19.3381L72.1058 23.5727C71.9545 24.3949 71.535 25.059 70.8474 25.5649C70.1919 26.0795 69.4487 26.2772 68.6179 26.1581ZM70.5603 23.1587C70.6317 22.7637 70.5569 22.3985 70.3362 22.0633C70.0746 21.7517 69.7463 21.5602 69.3513 21.4889C68.9563 21.4175 68.5912 21.4923 68.256 21.713C67.9121 21.966 67.7045 22.29 67.6332 22.685C67.5619 23.08 67.6688 23.4537 67.954 23.8062C68.2069 24.15 68.5309 24.3576 68.9259 24.4289C69.3209 24.5002 69.6903 24.4094 70.0342 24.1565C70.3136 23.8863 70.489 23.5536 70.5603 23.1587Z" fill="#334E63"/>
<path d="M70.3362 22.0633C70.557 22.3986 70.6317 22.7637 70.5604 23.1587C70.4891 23.5537 70.3137 23.8863 70.0342 24.1565C69.6904 24.4094 69.3209 24.5003 68.9259 24.4289C68.5309 24.3576 68.207 24.15 67.954 23.8062C67.6688 23.4537 67.5619 23.08 67.6333 22.685C67.7046 22.29 67.9122 21.966 68.256 21.713C68.5912 21.4923 68.9563 21.4176 69.3513 21.4889C69.7463 21.5602 70.0746 21.7517 70.3362 22.0633ZM59.8859 34.7924C58.4761 34.0005 57.5499 32.8206 57.1073 31.2527C56.6733 29.6525 56.8565 28.1314 57.657 26.6895C58.4488 25.2797 59.6491 24.3417 61.2579 23.8756C62.712 23.4715 63.896 22.7879 64.8096 21.8249L64.8226 21.7766C65.5869 20.9217 66.1539 19.9003 66.5236 18.7124L66.0325 22.6702C65.9612 23.0652 65.9629 23.4452 66.0376 23.8104C66.1359 24.2163 66.3116 24.5912 66.5645 24.935C67.0704 25.6227 67.7388 26.0261 68.5696 26.1452L68.6179 26.1581C69.4487 26.2772 70.1919 26.0795 70.8474 25.5649C71.5351 25.059 71.9546 24.3949 72.1059 23.5728L72.7228 19.3382L78.3873 20.0277C77.8714 22.3396 77.1615 24.4097 76.2575 26.238C73.828 30.7979 69.8918 33.8326 64.449 35.3421C62.8402 35.8083 61.3192 35.625 59.8859 34.7924Z" fill="#477CA6"/>
<path d="M84.2829 68.0897C83.4686 68.4015 82.6463 68.5379 81.8161 68.4988C82.9477 70.0712 83.9274 71.8376 84.7553 73.7982C85.1678 74.7824 85.9158 75.4775 86.9993 75.8836C88.0086 76.2824 89.0365 76.2637 90.083 75.8273C91.1295 75.3909 91.8833 74.6562 92.3443 73.623C92.7312 72.5826 92.7184 71.5702 92.3059 70.586C91.1138 67.7937 89.696 65.3026 88.0526 63.1128C88.0228 63.7842 87.8519 64.4565 87.5398 65.1295C86.8627 66.5309 85.7771 67.5176 84.2829 68.0897ZM80.2604 57.5835C80.9032 57.3374 81.5304 57.2043 82.142 57.1843C79.2356 55.0139 75.8911 53.4569 72.1085 52.5131C70.9985 52.2243 69.9441 52.3603 68.9453 52.9212C67.9465 53.482 67.3063 54.2804 67.0247 55.3162C66.6809 56.3759 66.7835 57.3895 67.3324 58.3572C67.9006 59.2819 68.7241 59.8946 69.803 60.1953C72.2608 60.8421 74.4778 61.8315 76.4539 63.1634C76.4179 62.3188 76.5915 61.4671 76.9747 60.6083C77.671 59.1639 78.7662 58.1556 80.2604 57.5835ZM80.3047 61.4749C80.2279 61.6471 80.1726 61.8289 80.1388 62.0203C80.0135 62.5322 80.0522 63.0528 80.2549 63.582C80.529 64.298 81.0104 64.8097 81.6992 65.117C82.4191 65.4125 83.1526 65.4172 83.8997 65.1312C84.46 64.9166 84.9104 64.6014 85.2509 64.1855C85.3278 64.0133 85.4046 63.8411 85.4814 63.6689C85.647 63.3557 85.7563 63.0818 85.8094 62.8474C85.8531 62.4023 85.7916 61.9619 85.6247 61.5261C85.3506 60.8101 84.838 60.3103 84.087 60.0268C83.3982 59.7194 82.6803 59.7087 81.9331 59.9948C81.4662 60.1736 81.0973 60.4219 80.8264 60.7398C80.625 60.9596 80.4511 61.2047 80.3047 61.4749Z" fill="#477CA6"/>
<path d="M88.0525 63.1128C88.1449 62.3286 88.042 61.5471 87.7438 60.7682C87.1955 59.3363 86.174 58.2997 84.6792 57.6584C83.852 57.304 83.0062 57.1459 82.142 57.1843C81.5303 57.2043 80.9031 57.3374 80.2603 57.5835C78.7661 58.1556 77.6709 59.1639 76.9747 60.6083C76.5915 61.4671 76.4179 62.3188 76.4539 63.1634C76.4696 63.7638 76.5907 64.3599 76.8173 64.9517C77.3656 66.3836 78.3715 67.4262 79.8352 68.0794C80.5044 68.3427 81.1648 68.4826 81.8161 68.4988C82.6463 68.5379 83.4685 68.4015 84.2829 68.0897C85.7771 67.5176 86.8627 66.5309 87.5397 65.1295C87.8519 64.4565 88.0228 63.7842 88.0525 63.1128ZM80.1387 62.0203C80.1725 61.8289 80.2278 61.6471 80.3047 61.4749C80.4511 61.2047 80.625 60.9596 80.8263 60.7398C81.0972 60.4219 81.4662 60.1736 81.9331 59.9948C82.6802 59.7087 83.3981 59.7194 84.0869 60.0268C84.8379 60.3103 85.3505 60.8101 85.6247 61.526C85.7915 61.9619 85.8531 62.4023 85.8093 62.8474C85.7563 63.0818 85.647 63.3557 85.4814 63.6689C85.4046 63.8411 85.3277 64.0133 85.2509 64.1855C84.9104 64.6014 84.46 64.9166 83.8997 65.1311C83.1526 65.4172 82.4191 65.4125 81.6992 65.117C81.0104 64.8097 80.5289 64.298 80.2548 63.582C80.0522 63.0528 80.0135 62.5322 80.1387 62.0203Z" fill="#334E63"/>
<path d="M18.9888 64.7924C19.6947 65.3044 20.4536 65.6489 21.2656 65.8261C19.7656 67.052 18.3621 68.5046 17.055 70.1841C16.4017 71.028 15.4993 71.5058 14.3476 71.6176C13.2694 71.7416 12.2814 71.4574 11.3836 70.765C10.4857 70.0727 9.94779 69.1679 9.76986 68.0506C9.66547 66.9455 9.93988 65.9709 10.5931 65.127C12.4673 62.7384 14.4815 60.6992 16.6358 59.0094C16.4907 59.6657 16.4818 60.3592 16.6091 61.0901C16.9003 62.619 17.6936 63.8531 18.9888 64.7924ZM25.5936 55.6854C25.0364 55.2814 24.465 54.9905 23.8794 54.8128C27.2486 53.4687 30.8821 52.8304 34.7801 52.8979C35.927 52.9061 36.9103 53.3104 37.7299 54.1107C38.5495 54.911 38.9612 55.8479 38.9651 56.9213C39.0229 58.0338 38.6615 58.9864 37.8807 59.779C37.0926 60.5251 36.1385 60.9037 35.0186 60.915C32.4772 60.9036 30.0796 61.2854 27.8261 62.0604C28.0795 61.2539 28.1323 60.3863 27.9844 59.4576C27.6857 57.8822 26.8888 56.6248 25.5936 55.6854ZM24.5435 59.4327C24.5732 59.6189 24.5796 59.8089 24.5627 60.0025C24.5511 60.5294 24.379 61.0222 24.0463 61.481C23.5962 62.1016 22.9987 62.4712 22.2539 62.5898C21.482 62.6889 20.7723 62.5036 20.1247 62.0339C19.639 61.6816 19.2855 61.2606 19.0643 60.7707C19.0347 60.5845 19.005 60.3983 18.9754 60.2121C18.8965 59.8666 18.8618 59.5738 18.8713 59.3336C18.9442 58.8924 19.1177 58.4829 19.3916 58.1051C19.8417 57.4845 20.4662 57.1345 21.265 57.055C22.0099 56.9364 22.7061 57.1119 23.3537 57.5816C23.7585 57.8751 24.0506 58.2105 24.23 58.5877C24.3676 58.8521 24.4721 59.1338 24.5435 59.4327Z" fill="#477CA6"/>
<path d="M16.6358 59.0094C16.7495 58.228 17.0512 57.4997 17.5409 56.8246C18.4411 55.5834 19.6961 54.8465 21.3059 54.614C22.1967 54.4858 23.0545 54.552 23.8794 54.8128C24.465 54.9905 25.0364 55.2813 25.5936 55.6854C26.8888 56.6248 27.6857 57.8822 27.9843 59.4576C28.1322 60.3863 28.0795 61.2539 27.826 62.0604C27.6555 62.6362 27.3842 63.1807 27.0121 63.6937C26.1119 64.9349 24.8704 65.6816 23.2876 65.9336C22.5729 66.0148 21.8989 65.9789 21.2656 65.826C20.4536 65.6489 19.6946 65.3043 18.9888 64.7924C17.6935 63.853 16.9003 62.6189 16.6091 61.0901C16.4818 60.3592 16.4907 59.6656 16.6358 59.0094ZM24.5627 60.0025C24.5796 59.8088 24.5732 59.6189 24.5435 59.4327C24.4721 59.1338 24.3675 58.8521 24.2299 58.5876C24.0505 58.2105 23.7585 57.8751 23.3537 57.5815C22.7061 57.1119 22.0099 56.9363 21.265 57.055C20.4662 57.1344 19.8417 57.4845 19.3916 58.1051C19.1176 58.4829 18.9442 58.8924 18.8712 59.3336C18.8618 59.5738 18.8965 59.8666 18.9753 60.212C19.005 60.3983 19.0346 60.5845 19.0643 60.7707C19.2855 61.2605 19.639 61.6816 20.1247 62.0339C20.7723 62.5035 21.482 62.6888 22.2538 62.5898C22.9987 62.4712 23.5962 62.1016 24.0463 61.4809C24.379 61.0222 24.5511 60.5294 24.5627 60.0025Z" fill="#334E63"/>
<path d="M39.25 44.4C40.55 45.6667 41.2 47.2 41.2 49C41.2 50.8 40.55 52.3333 39.25 53.6C37.9833 54.8667 36.45 55.5 34.65 55.5C32.85 55.5 31.3333 54.8667 30.1 53.6C28.8333 52.3333 28.2 50.8 28.2 49C28.2 47.2 28.8333 45.6667 30.1 44.4C31.3333 43.1333 32.85 42.5 34.65 42.5C36.45 42.5 37.9833 43.1333 39.25 44.4ZM73.3 44.4C74.5667 45.6667 75.2 47.2 75.2 49C75.2 50.8 74.5667 52.3333 73.3 53.6C72.0333 54.8667 70.5 55.5 68.7 55.5C66.9 55.5 65.3833 54.8667 64.15 53.6C62.85 52.3333 62.2 50.8 62.2 49C62.2 47.2 62.85 45.6667 64.15 44.4C65.3833 43.1333 66.9 42.5 68.7 42.5C70.5 42.5 72.0333 43.1333 73.3 44.4Z" fill="#334E63"/>
<path d="M65.1001 21.5C66.0334 22.8 66.5334 24.55 66.6001 26.75H36.7001C36.7667 24.55 37.2667 22.8 38.2001 21.5H65.1001Z" fill="#5393C5"/>
<path d="M59.9501 31.75C60.8501 33.2167 61.3001 34.8833 61.3001 36.75C61.3001 39.4167 60.3667 41.7 58.5001 43.6C56.6001 45.5 54.3167 46.45 51.6501 46.45C48.9834 46.45 46.7001 45.5 44.8001 43.6C42.9001 41.7 41.9501 39.4167 41.9501 36.75C41.9501 34.8833 42.4167 33.2167 43.3501 31.75H36.7001V26.75H66.6001V31.75H59.9501ZM56.7001 38.3L55.0501 33.05C55.0167 32.9167 54.9334 32.8 54.8001 32.7C54.6667 32.6 54.5167 32.55 54.3501 32.55H49.1001C48.9667 32.55 48.8334 32.6 48.7001 32.7C48.5334 32.8 48.4334 32.9167 48.4001 33.05L46.7501 38.3C46.7167 38.4667 46.7167 38.6333 46.7501 38.8C46.8167 38.9333 46.9167 39.0667 47.0501 39.2L51.3501 42.35C51.4501 42.45 51.5834 42.5 51.7501 42.5C51.8834 42.5 52.0334 42.45 52.2001 42.35L56.4501 39.2C56.5501 39.0667 56.6334 38.9333 56.7001 38.8C56.7334 38.6333 56.7334 38.4667 56.7001 38.3Z" fill="#334E63"/>
<path d="M55.05 33.05L56.7 38.3C56.7333 38.4667 56.7333 38.6333 56.7 38.8C56.6333 38.9333 56.55 39.0667 56.45 39.2L52.2 42.35C52.0333 42.45 51.8833 42.5 51.75 42.5C51.5833 42.5 51.45 42.45 51.35 42.35L47.05 39.2C46.9166 39.0667 46.8166 38.9333 46.75 38.8C46.7166 38.6333 46.7166 38.4667 46.75 38.3L48.4 33.05C48.4333 32.9167 48.5333 32.8 48.7 32.7C48.8333 32.6 48.9666 32.55 49.1 32.55H54.35C54.5166 32.55 54.6666 32.6 54.8 32.7C54.9333 32.8 55.0166 32.9167 55.05 33.05Z" fill="#FF6699"/>
<path d="M69.85 45.5C70.6834 48.8333 69.9334 50.5833 67.6 50.75H62.25C62.25 50.8167 62.25 50.9 62.25 51C62.2834 51.1667 62.3 51.3333 62.3 51.5C62.3 54 61.2834 56.15 59.25 57.95C57.15 59.65 54.6334 60.5 51.7 60.5C48.7667 60.5 46.25 59.65 44.15 57.95C42.1167 56.15 41.1 54 41.1 51.5C41.1 51.3333 41.1167 51.1667 41.15 51C41.15 50.9 41.1667 50.8167 41.2 50.75H36.05C33.6167 50.8833 32.75 49.1333 33.45 45.5L36.7 31.75H43.35C42.4167 33.2167 41.95 34.8833 41.95 36.75C41.95 39.4167 42.9 41.7 44.8 43.6C46.7 45.5 48.9834 46.45 51.65 46.45C54.3167 46.45 56.6 45.5 58.5 43.6C60.3667 41.7 61.3 39.4167 61.3 36.75C61.3 34.8833 60.85 33.2167 59.95 31.75H66.6L69.85 45.5Z" fill="#477CA6"/>
<path d="M66.1881 32.25C63.0411 29.65 59.2284 28.35 54.7499 28.35C50.2715 28.35 46.4184 29.65 43.1907 32.25C40.0437 34.9166 38.4702 38.1 38.4702 41.8C38.4702 45.5 40.0437 48.65 43.1907 51.25C46.4184 53.9166 50.2715 55.25 54.7499 55.25C59.2284 55.25 63.0411 53.9166 66.1881 51.25C69.4158 48.65 71.0297 45.5 71.0297 41.8C71.0297 38.1 69.4158 34.9166 66.1881 32.25Z" fill="url(#paint0_radial_2026_5)"/>
<path d="M61.0338 73.5088C65.2301 71.1132 67.9537 67.581 69.2046 62.9124C70.4554 58.2437 69.867 53.807 67.4392 49.6021C65.0114 45.3971 61.4632 42.6692 56.7946 41.4184C52.1259 40.1675 47.6891 40.7559 43.4842 43.1837C39.2793 45.6115 36.5514 49.1597 35.3005 53.8284C34.0496 58.497 34.6424 62.9177 37.0788 67.0904C39.498 71.3275 43.0419 74.0715 47.7105 75.3224C52.3792 76.5733 56.8203 75.9687 61.0338 73.5088ZM61.8635 60.9455C61.1561 63.5857 59.6185 65.5893 57.2507 66.9564C54.8421 68.3471 52.3176 68.6888 49.6774 67.9814C47.0372 67.274 45.0379 65.7203 43.6794 63.3202C42.2801 60.9438 41.9342 58.4355 42.6416 55.7953C43.349 53.1551 44.9027 51.1557 47.3027 49.7973C49.6791 48.398 52.1874 48.052 54.8276 48.7594C57.4678 49.4668 59.4833 51.0248 60.874 53.4335C62.2411 55.8013 62.5709 58.3053 61.8635 60.9455Z" fill="#BFD4E5"/>
<path d="M57.2507 66.9565C59.6185 65.5894 61.1561 63.5857 61.8635 60.9455C62.5709 58.3053 62.2411 55.8013 60.874 53.4335C59.4833 51.0248 57.4679 49.4668 54.8276 48.7594C52.1874 48.052 49.6791 48.398 47.3027 49.7973C44.9027 51.1558 43.349 53.1551 42.6416 55.7953C41.9342 58.4355 42.2801 60.9438 43.6794 63.3203C45.0379 65.7203 47.0372 67.274 49.6774 67.9814C52.3176 68.6888 54.8421 68.3471 57.2507 66.9565Z" fill="white"/>
<path d="M40.1758 43.7467C39.4692 43.9369 38.9243 44.3603 38.5414 45.0169L34.2941 52.3682C33.9112 53.0247 33.8062 53.7386 33.9792 54.5096C34.2338 55.2335 34.6895 55.7869 35.3461 56.1699L35.3944 56.1829C36.0509 56.5658 36.7443 56.6826 37.4746 56.5332C38.2307 56.2871 38.8002 55.8358 39.1832 55.1792L43.3821 47.8151C43.7651 47.1585 43.8497 46.4564 43.6358 45.709C43.4542 44.9701 43.0512 44.4135 42.4268 44.0392L42.3785 44.0262C41.7219 43.6433 40.9877 43.5501 40.1758 43.7467Z" fill="#477CA6"/>
<path d="M70.9481 53.6998C70.9447 52.9397 70.6846 52.3006 70.1678 51.7826C69.5629 51.2064 68.8805 50.92 68.1204 50.9234L68.0721 50.9105C67.312 50.9139 66.6686 51.1901 66.1418 51.7391C65.5829 52.2796 65.3052 52.9298 65.3086 53.69L65.3114 62.1799C65.3148 62.94 65.5824 63.6156 66.1142 64.2067C66.6719 64.7013 67.3308 64.9468 68.0909 64.9434L68.1392 64.9564C68.8671 64.9443 69.5223 64.6885 70.1048 64.1889C70.6401 63.6077 70.9061 62.937 70.9027 62.1769L70.9481 53.6998Z" fill="#477CA6"/>
<path d="M26.7867 60.2953C24.868 61.4031 23.6239 63.0196 23.0546 65.1446C22.4852 67.2696 22.7587 69.2754 23.8752 71.162C25.0066 73.1216 26.6187 74.3817 28.7115 74.9425C30.8366 75.5118 32.8789 75.2308 34.8385 74.0994C36.7164 73.0152 37.94 71.4105 38.5094 69.2855C39.0788 67.1604 38.8256 65.1429 37.75 63.2327C36.6186 61.2732 34.9904 60.0087 32.8654 59.4393C30.7725 58.8786 28.7463 59.1639 26.7867 60.2953ZM26.6662 69.6322C26.0062 68.4891 25.8488 67.2736 26.1938 65.9857C26.5303 64.73 27.2744 63.7561 28.4261 63.0639C29.5691 62.4039 30.7685 62.2421 32.0242 62.5786C33.3443 62.9323 34.3344 63.6807 34.9944 64.8238C35.6457 65.999 35.8032 67.2145 35.4667 68.4702C35.1217 69.7581 34.3776 70.7321 33.2345 71.3921C32.0828 72.0842 30.8469 72.2535 29.5268 71.8998C28.2711 71.5633 27.3175 70.8075 26.6662 69.6322ZM68.6047 69.0151C66.5118 68.4543 64.4856 68.7397 62.526 69.8711C60.6073 70.9789 59.3632 72.5953 58.7939 74.7204C58.2245 76.8454 58.498 78.8512 59.6145 80.7378C60.7459 82.6973 62.358 83.9575 64.4509 84.5182C66.5759 85.0876 68.6182 84.8066 70.5778 83.6752C72.4557 82.5909 73.6793 80.9863 74.2487 78.8612C74.8181 76.7362 74.5649 74.7186 73.4893 72.8085C72.3579 70.8489 70.7297 69.5845 68.6047 69.0151ZM65.2661 81.4756C64.0104 81.1391 63.0569 80.3832 62.4055 79.208C61.7133 78.0563 61.5398 76.8364 61.8848 75.5485C62.2213 74.2928 62.9815 73.3232 64.1654 72.6397C65.3084 71.9797 66.5078 71.8179 67.7635 72.1544C69.0514 72.4994 70.0415 73.2478 70.7337 74.3995C71.385 75.5748 71.5425 76.7903 71.206 78.046C70.861 79.3339 70.1169 80.3079 68.9738 80.9678C67.7899 81.6514 66.554 81.8206 65.2661 81.4756Z" fill="#5393C5"/>
<path d="M26.1938 65.9857C25.8488 67.2736 26.0062 68.4891 26.6662 69.6322C27.3176 70.8075 28.2711 71.5633 29.5268 71.8998C30.8469 72.2535 32.0828 72.0842 33.2345 71.392C34.3776 70.7321 35.1217 69.7581 35.4667 68.4702C35.8032 67.2145 35.6457 65.999 34.9944 64.8237C34.3344 63.6807 33.3444 62.9323 32.0243 62.5786C30.7685 62.2421 29.5692 62.4039 28.4261 63.0639C27.2744 63.756 26.5303 64.73 26.1938 65.9857ZM62.4055 79.2079C63.0569 80.3832 64.0104 81.1391 65.2661 81.4755C66.554 81.8206 67.7899 81.6514 68.9738 80.9678C70.1169 80.3078 70.861 79.3339 71.206 78.046C71.5425 76.7903 71.385 75.5748 70.7337 74.3995C70.0415 73.2478 69.0515 72.4994 67.7636 72.1543C66.5078 71.8179 65.3085 71.9796 64.1654 72.6396C62.9815 73.3232 62.2213 74.2928 61.8848 75.5485C61.5398 76.8364 61.7133 78.0562 62.4055 79.2079Z" fill="#477CA6"/>
<path d="M28.0997 80.3172L35.8271 82.3877C37.4857 76.0683 35.587 71.1769 30.1308 67.7135L28.0997 80.3172ZM56.9809 88.0555C60.5468 88.5278 63.0026 87.2188 64.3482 84.1284L67.4821 75.9095C60.852 77.3424 56.5789 81.184 54.6627 87.4343L56.9809 88.0555Z" fill="#334E63"/>
<path d="M67.4821 75.9094L73.5462 60.0382L33.1222 49.2072L30.1308 67.7135C35.5869 71.1769 37.4857 76.0683 35.8271 82.3876L54.6626 87.4343C56.5789 81.184 60.852 77.3424 67.4821 75.9094Z" fill="#5393C5"/>
<path d="M54.2048 74.2673C56.1236 73.1594 57.3676 71.543 57.937 69.418C58.515 67.2607 58.2458 65.2388 57.1293 63.3523C56.0215 61.4335 54.4051 60.1895 52.28 59.6201C50.1228 59.0421 48.1009 59.3113 46.2144 60.4278C44.3042 61.5034 43.0602 63.1199 42.4822 65.2771C41.9128 67.4021 42.182 69.424 43.2899 71.3428C44.3655 73.2529 45.9819 74.497 48.1392 75.075C50.2642 75.6443 52.2861 75.3751 54.2048 74.2673ZM55.3773 68.7321C54.9977 70.1488 54.1591 71.2182 52.8613 71.9403C51.5871 72.7032 50.2417 72.8948 48.825 72.5152C47.3761 72.127 46.2745 71.2797 45.5203 69.9734C44.7896 68.7078 44.614 67.3667 44.9936 65.95C45.3818 64.5011 46.213 63.3952 47.4872 62.6323C48.7763 61.9424 50.1453 61.7916 51.5942 62.1798C53.0109 62.5594 54.0889 63.3659 54.8282 64.5992C55.5825 65.9056 55.7655 67.2832 55.3773 68.7321Z" fill="#477CA6"/>
<path d="M52.8613 71.9403C54.159 71.2182 54.9977 70.1488 55.3773 68.7321C55.7655 67.2833 55.5825 65.9056 54.8282 64.5992C54.0889 63.3659 53.0109 62.5594 51.5942 62.1798C50.1453 61.7916 48.7763 61.9425 47.4872 62.6323C46.213 63.3952 45.3818 64.5011 44.9936 65.95C44.614 67.3667 44.7895 68.7078 45.5202 69.9734C46.2745 71.2798 47.3761 72.127 48.825 72.5153C50.2417 72.8948 51.5871 72.7032 52.8613 71.9403ZM53.204 68.1498C53.0487 68.7294 52.71 69.1563 52.1879 69.4305C51.7216 69.7542 51.1986 69.8384 50.6191 69.6831C50.0395 69.5278 49.5965 69.1848 49.2901 68.6541C49.0073 68.1642 48.9435 67.6295 49.0988 67.0499C49.254 66.4704 49.5809 66.0231 50.0795 65.708C50.6016 65.4338 51.1524 65.3743 51.7319 65.5296C52.3115 65.6849 52.7266 66.0032 52.9772 66.4844C53.2837 67.0151 53.3592 67.5703 53.204 68.1498Z" fill="#FFCC00"/>
<path d="M52.1879 69.4305C52.7099 69.1563 53.0486 68.7294 53.2039 68.1498C53.3592 67.5702 53.2836 67.0151 52.9772 66.4844C52.7266 66.0031 52.3115 65.6849 51.7319 65.5296C51.1523 65.3743 50.6015 65.4338 50.0794 65.708C49.5809 66.023 49.254 66.4703 49.0987 67.0499C48.9434 67.6294 49.0072 68.1642 49.2901 68.6541C49.5965 69.1848 50.0395 69.5278 50.619 69.6831C51.1986 69.8383 51.7215 69.7541 52.1879 69.4305Z" fill="white"/>
<path d="M64.4283 73.5901C65.1545 73.198 65.6212 72.6156 65.8282 71.8429C66.0352 71.0701 65.9266 70.3163 65.5024 69.5815C65.1016 68.8875 64.5149 68.4369 63.7422 68.2299C62.9694 68.0229 62.22 68.1154 61.4938 68.5075C60.7911 68.9404 60.3363 69.5432 60.1292 70.3159C59.9222 71.0887 60.019 71.822 60.4197 72.516C60.8526 73.2187 61.4554 73.6735 62.2282 73.8806C63.0009 74.0876 63.7343 73.9908 64.4283 73.5901Z" fill="#477CA6"/>
<path d="M38.6381 66.68C39.3643 66.2879 39.8309 65.7055 40.038 64.9328C40.245 64.16 40.1364 63.4062 39.7121 62.6714C39.3114 61.9774 38.7408 61.5312 38.0002 61.3327C37.2275 61.1257 36.478 61.2182 35.7518 61.6103C35.0492 62.0432 34.5943 62.646 34.3873 63.4188C34.1802 64.1915 34.2771 64.9249 34.6778 65.6189C35.1107 66.3215 35.7135 66.7764 36.4862 66.9834C37.2268 67.1818 37.9441 67.0807 38.6381 66.68Z" fill="#477CA6"/>
<path d="M39.4774 75.9117C38.8243 76.2889 38.3985 76.8477 38.2 77.5882C38.0016 78.3288 38.091 79.0257 38.4681 79.6788C38.5661 79.8485 38.6808 80 38.8122 80.1334C38.8487 80.1138 38.8895 80.0902 38.9347 80.0627C39.7425 79.6235 40.2629 78.9692 40.4958 78.0998C40.7237 77.2494 40.6163 76.4269 40.1735 75.6323C39.9346 75.6886 39.7026 75.7817 39.4774 75.9117ZM55.2486 82.1561C55.4471 81.4156 55.3577 80.7187 54.9806 80.0655C54.8509 79.841 54.6966 79.6444 54.5175 79.4756C53.7689 79.9513 53.2807 80.6142 53.0529 81.4643C52.82 82.3336 52.9274 83.1561 53.3753 83.9318C53.4019 83.9779 53.4255 84.0187 53.446 84.0543C53.6276 84.0038 53.8027 83.93 53.9712 83.8327C54.6244 83.4555 55.0502 82.8967 55.2486 82.1561Z" fill="#334E63"/>
<path d="M54.5175 79.4756C54.1945 79.1475 53.79 78.9183 53.304 78.7881L41.568 75.6436C41.0827 75.5136 40.6178 75.5098 40.1734 75.6323C40.6162 76.4269 40.7237 77.2494 40.4958 78.0998C40.2629 78.9692 39.7425 79.6234 38.9347 80.0627C38.8895 80.0902 38.8487 80.1138 38.8122 80.1334C39.1524 80.5351 39.5965 80.8094 40.1446 80.9562L51.8806 84.1007C52.4301 84.2479 52.9519 84.2325 53.446 84.0542C53.4254 84.0187 53.4019 83.9779 53.3753 83.9318C52.9274 83.1561 52.82 82.3336 53.0529 81.4643C53.2806 80.6142 53.7688 79.9513 54.5175 79.4756Z" fill="white"/>
<path d="M92.1791 80.848C92.088 80.8236 92.053 80.863 92.0742 80.9663C92.0664 81.0862 92.0815 81.2123 92.1193 81.3444L93.8693 84.3754C93.9193 84.462 94.0292 84.5525 94.1992 84.6468C94.2736 84.6424 94.3541 84.6151 94.4407 84.5651C96.0405 83.6029 97.0845 82.2112 97.5725 80.3898L97.6158 80.3648C98.1282 78.4524 97.9133 76.6135 96.971 74.8482C95.9832 73.0706 94.562 71.9089 92.7073 71.3632L92.5024 71.3083C92.6719 71.6382 92.7975 71.9891 92.8792 72.3609C93.2181 73.627 93.0747 74.8452 92.449 76.0156C92.7756 76.248 93.0394 76.5383 93.2405 76.8866C93.5661 77.5838 93.6685 78.2945 93.5477 79.0186C93.5188 79.0352 93.4838 79.0747 93.4428 79.1369C93.2764 79.8488 92.8552 80.4191 92.1791 80.848ZM82.6887 73.5103C82.4797 73.7011 82.2677 73.9005 82.0526 74.1085C80.6527 75.4171 79.9242 77.0886 79.8671 79.123C79.8678 81.1241 80.5391 82.8534 81.881 84.3111C81.8977 84.3399 81.9144 84.3688 81.931 84.3977C83.2807 85.7354 84.8839 86.4455 86.7407 86.5282C86.8606 86.536 86.9639 86.5148 87.0505 86.4648C87.0915 86.4026 87.1015 86.3199 87.0804 86.2166L87.2441 82.6003C87.2685 82.5092 87.264 82.4348 87.2307 82.3771C87.1063 82.2949 86.9986 82.2417 86.9075 82.2173C86.1879 82.1709 85.5581 81.8801 85.0183 81.3451C85.0016 81.3162 84.9849 81.2873 84.9683 81.2585C84.4573 80.7067 84.2083 80.0422 84.2214 79.2648C84.2403 78.6494 84.395 78.1174 84.6856 77.6689C83.8114 76.9105 83.2098 75.9685 82.8807 74.8428C82.7726 74.3991 82.7086 73.9549 82.6887 73.5103Z" fill="#BFD4E5"/>
<path d="M90.5146 69.1652C89.3206 68.4304 88.0235 68.2171 86.6232 68.5252C85.2686 68.8454 84.2033 69.6336 83.4275 70.8899C82.951 71.7402 82.7047 72.6137 82.6888 73.5103C82.7087 73.9549 82.7727 74.3991 82.8808 74.8428C83.2099 75.9685 83.8115 76.9106 84.6857 77.6689C84.8764 77.8097 85.0714 77.9474 85.2705 78.0818C86.4934 78.7999 87.7966 78.9905 89.1801 78.6536C90.547 78.2878 91.5978 77.5079 92.3326 76.3139C92.3865 76.2203 92.4253 76.1209 92.4491 76.0157C93.0747 74.8452 93.2182 73.627 92.8793 72.3609C92.7975 71.9891 92.6719 71.6382 92.5025 71.3083C92.1089 70.4159 91.4463 69.7015 90.5146 69.1652Z" fill="#5393C5"/>
<path d="M8.23248 74.7937C8.32676 74.7937 8.35033 74.8408 8.30318 74.9351C8.27961 75.053 8.23247 75.1708 8.16176 75.2887L5.68688 77.7635C5.61617 77.8342 5.48654 77.8931 5.29798 77.9403C5.22727 77.9167 5.15656 77.8695 5.08585 77.7988C3.78951 76.4553 3.14136 74.8408 3.14138 72.9552L3.10602 72.9198C3.10604 70.9399 3.78959 69.2193 5.15667 67.758C6.57088 66.2967 8.24436 65.5425 10.1771 65.4954L10.3892 65.4954C10.1402 65.7702 9.92804 66.0766 9.75283 66.4146C9.09783 67.5498 8.92104 68.7637 9.22247 70.0561C8.84682 70.1961 8.51684 70.4082 8.23252 70.6925C7.73754 71.2818 7.4547 71.9417 7.38398 72.6724C7.40755 72.696 7.43112 72.7431 7.45469 72.8138C7.43111 73.5445 7.69037 74.2044 8.23248 74.7937ZM19.2986 70.1623C19.4511 70.4008 19.6043 70.6483 19.7582 70.9048C20.7717 72.5311 21.0428 74.3342 20.5714 76.3141C20.0528 78.2468 18.9568 79.7435 17.2833 80.8041C17.2597 80.8277 17.2361 80.8513 17.2126 80.8749C15.5627 81.8176 13.8303 82.0887 12.0154 81.688C11.8975 81.6644 11.8033 81.6173 11.7325 81.5465C11.709 81.4758 11.7208 81.3933 11.7679 81.2991L12.5458 77.7636C12.5458 77.6693 12.5693 77.5986 12.6165 77.5514C12.7579 77.5043 12.8757 77.4807 12.97 77.4807C13.6771 77.6222 14.3606 77.5043 15.0206 77.1272C15.0442 77.1036 15.0678 77.0801 15.0913 77.0565C15.7277 76.6558 16.1402 76.0783 16.3288 75.3241C16.4698 74.7247 16.458 74.1708 16.2934 73.6624C17.3341 73.1561 18.1591 72.4019 18.7683 71.3997C18.9875 70.9991 19.1643 70.5867 19.2986 70.1623Z" fill="#BFD4E5"/>
<path d="M12.8641 63.9398C14.2076 63.5391 15.5158 63.6688 16.7885 64.3287C18.0142 64.9887 18.8391 66.0258 19.2633 67.44C19.5035 68.3847 19.5153 69.2922 19.2987 70.1623C19.1643 70.5867 18.9876 70.9992 18.7683 71.3997C18.1591 72.4019 17.3341 73.1562 16.2935 73.6624C16.0728 73.7491 15.8488 73.8316 15.6217 73.9099C14.2546 74.287 12.9465 74.1338 11.6973 73.4503C10.4717 72.7431 9.65852 71.7178 9.25785 70.3744C9.22995 70.27 9.21817 70.164 9.22249 70.0562C8.92107 68.7637 9.09786 67.5498 9.75286 66.4146C9.92807 66.0766 10.1402 65.7702 10.3893 65.4954C11.0004 64.7352 11.8254 64.2167 12.8641 63.9398Z" fill="#5393C5"/>
<defs>
<radialGradient id="paint0_radial_2026_5" cx="0" cy="0" r="1" gradientUnits="userSpaceOnUse" gradientTransform="translate(54.7499 41.8) scale(16.4461 13.5875)">
<stop stop-opacity="0.301961"/>
<stop offset="1" stop-opacity="0"/>
</radialGradient>
</defs>
</svg>
