<svg width="12" height="12" viewBox="0 0 12 12" fill="none" xmlns="http://www.w3.org/2000/svg">
<g filter="url(#filter0_i_18_80)">
<path d="M5.53723 5.54288C5.53723 5.44342 5.57674 5.34804 5.64707 5.27771C5.71739 5.20739 5.81278 5.16788 5.91223 5.16788H10.7985C10.8979 5.16788 10.9933 5.20739 11.0636 5.27771C11.134 5.34804 11.1735 5.44342 11.1735 5.54288V10.8398C11.1735 10.9392 11.134 11.0346 11.0636 11.1049C10.9933 11.1752 10.8979 11.2148 10.7985 11.2148H5.91223C5.81278 11.2148 5.71739 11.1752 5.64707 11.1049C5.57674 11.0346 5.53723 10.9392 5.53723 10.8398V5.54288Z" fill="url(#paint0_linear_18_80)"/>
<path d="M5.53723 5.54288C5.53723 5.44342 5.57674 5.34804 5.64707 5.27771C5.71739 5.20739 5.81278 5.16788 5.91223 5.16788H10.7985C10.8979 5.16788 10.9933 5.20739 11.0636 5.27771C11.134 5.34804 11.1735 5.44342 11.1735 5.54288V10.8398C11.1735 10.9392 11.134 11.0346 11.0636 11.1049C10.9933 11.1752 10.8979 11.2148 10.7985 11.2148H5.91223C5.81278 11.2148 5.71739 11.1752 5.64707 11.1049C5.57674 11.0346 5.53723 10.9392 5.53723 10.8398V5.54288Z" fill="url(#paint1_radial_18_80)"/>
</g>
<g filter="url(#filter1_f_18_80)">
<path d="M6.55646 6.28725C6.55646 6.23752 6.5367 6.18983 6.50154 6.15466C6.46638 6.1195 6.41869 6.09975 6.36896 6.09975C6.31923 6.09975 6.27154 6.1195 6.23638 6.15466C6.20121 6.18983 6.18146 6.23752 6.18146 6.28725H6.55646ZM10.0605 6.02362C10.0605 5.97389 10.0407 5.9262 10.0055 5.89104C9.97038 5.85588 9.92269 5.83612 9.87296 5.83612C9.82323 5.83612 9.77554 5.85588 9.74038 5.89104C9.70521 5.9262 9.68546 5.97389 9.68546 6.02362H10.0605ZM6.55646 7.08975V6.28725H6.18146V7.08975H6.55646ZM9.68546 6.02362V7.08975H10.0605V6.02362H9.68546ZM8.12096 8.77725C7.27721 8.77725 6.55646 8.03325 6.55646 7.08975H6.18146C6.18146 8.21737 7.04771 9.15225 8.12096 9.15225V8.77725ZM8.12096 9.15225C9.19421 9.15225 10.0605 8.21737 10.0605 7.08975H9.68546C9.68546 8.03325 8.96471 8.77725 8.12096 8.77725V9.15225Z" fill="#F19A39"/>
</g>
<g filter="url(#filter2_i_18_80)">
<path d="M6.75598 6.05249C6.75598 6.00276 6.73623 5.95507 6.70106 5.91991C6.6659 5.88474 6.61821 5.86499 6.56848 5.86499C6.51875 5.86499 6.47106 5.88474 6.4359 5.91991C6.40074 5.95507 6.38098 6.00276 6.38098 6.05249H6.75598ZM10.2596 6.05249C10.2596 6.00276 10.2399 5.95507 10.2047 5.91991C10.1695 5.88474 10.1218 5.86499 10.0721 5.86499C10.0224 5.86499 9.97469 5.88474 9.93952 5.91991C9.90436 5.95507 9.88461 6.00276 9.88461 6.05249H10.2596ZM6.75598 6.85537V6.05287H6.38098V6.85537H6.75598ZM9.88461 6.05287V6.85537H10.2596V6.05287H9.88461ZM8.32011 8.54287C7.47636 8.54287 6.75598 7.79887 6.75598 6.85537H6.38098C6.38098 7.98299 7.24723 8.91787 8.32048 8.91787L8.32011 8.54287ZM8.32048 8.91787C9.39411 8.91787 10.2596 7.98299 10.2596 6.85537H9.88461C9.88461 7.79887 9.16423 8.54287 8.32011 8.54287L8.32048 8.91787Z" fill="#E45A3B"/>
</g>
<g filter="url(#filter3_f_18_80)">
<path d="M6.6795 6.05249C6.6795 6.04006 6.67457 6.02814 6.66578 6.01934C6.65698 6.01055 6.64506 6.00562 6.63263 6.00562C6.6202 6.00562 6.60827 6.01055 6.59948 6.01934C6.59069 6.02814 6.58575 6.04006 6.58575 6.05249H6.6795ZM10.1835 6.05249C10.1835 6.04006 10.1786 6.02814 10.1698 6.01934C10.161 6.01055 10.1491 6.00562 10.1366 6.00562C10.1242 6.00562 10.1123 6.01055 10.1035 6.01934C10.0947 6.02814 10.0898 6.04006 10.0898 6.05249H10.1835ZM6.6795 6.85537V6.05287H6.58575V6.85537H6.6795ZM10.0898 6.05287V6.85537H10.1835V6.05287H10.0898ZM8.38463 8.68349C7.45463 8.68349 6.6795 7.86787 6.6795 6.85537H6.58575C6.58575 7.91399 7.39725 8.77724 8.38463 8.77724V8.68349ZM8.38463 8.77724C9.372 8.77724 10.1835 7.91399 10.1835 6.85537H10.0898C10.0898 7.86787 9.31463 8.68349 8.38463 8.68349V8.77724Z" fill="url(#paint2_linear_18_80)"/>
<path d="M6.6795 6.05249C6.6795 6.04006 6.67457 6.02814 6.66578 6.01934C6.65698 6.01055 6.64506 6.00562 6.63263 6.00562C6.6202 6.00562 6.60827 6.01055 6.59948 6.01934C6.59069 6.02814 6.58575 6.04006 6.58575 6.05249H6.6795ZM10.1835 6.05249C10.1835 6.04006 10.1786 6.02814 10.1698 6.01934C10.161 6.01055 10.1491 6.00562 10.1366 6.00562C10.1242 6.00562 10.1123 6.01055 10.1035 6.01934C10.0947 6.02814 10.0898 6.04006 10.0898 6.05249H10.1835ZM6.6795 6.85537V6.05287H6.58575V6.85537H6.6795ZM10.0898 6.05287V6.85537H10.1835V6.05287H10.0898ZM8.38463 8.68349C7.45463 8.68349 6.6795 7.86787 6.6795 6.85537H6.58575C6.58575 7.91399 7.39725 8.77724 8.38463 8.77724V8.68349ZM8.38463 8.77724C9.372 8.77724 10.1835 7.91399 10.1835 6.85537H10.0898C10.0898 7.86787 9.31463 8.68349 8.38463 8.68349V8.77724Z" fill="url(#paint3_linear_18_80)"/>
</g>
<path d="M7.08411 2.883H1.13098C0.923875 2.883 0.755981 3.05089 0.755981 3.258V10.0432C0.755981 10.2504 0.923875 10.4182 1.13098 10.4182H7.08411C7.29121 10.4182 7.45911 10.2504 7.45911 10.0432V3.258C7.45911 3.05089 7.29121 2.883 7.08411 2.883Z" fill="url(#paint4_linear_18_80)"/>
<path d="M7.08411 2.883H1.13098C0.923875 2.883 0.755981 3.05089 0.755981 3.258V10.0432C0.755981 10.2504 0.923875 10.4182 1.13098 10.4182H7.08411C7.29121 10.4182 7.45911 10.2504 7.45911 10.0432V3.258C7.45911 3.05089 7.29121 2.883 7.08411 2.883Z" fill="url(#paint5_linear_18_80)"/>
<path d="M7.08411 2.883H1.13098C0.923875 2.883 0.755981 3.05089 0.755981 3.258V10.0432C0.755981 10.2504 0.923875 10.4182 1.13098 10.4182H7.08411C7.29121 10.4182 7.45911 10.2504 7.45911 10.0432V3.258C7.45911 3.05089 7.29121 2.883 7.08411 2.883Z" fill="url(#paint6_linear_18_80)"/>
<path d="M7.08411 2.883H1.13098C0.923875 2.883 0.755981 3.05089 0.755981 3.258V10.0432C0.755981 10.2504 0.923875 10.4182 1.13098 10.4182H7.08411C7.29121 10.4182 7.45911 10.2504 7.45911 10.0432V3.258C7.45911 3.05089 7.29121 2.883 7.08411 2.883Z" fill="url(#paint7_linear_18_80)"/>
<g filter="url(#filter4_f_18_80)">
<path d="M7.0957 3.246V9.8085" stroke="url(#paint8_linear_18_80)" stroke-width="0.28125" stroke-linecap="round"/>
</g>
<path d="M0.755981 6.07049V5.23799H7.45873V6.07049H0.755981Z" fill="#3A92EA"/>
<path d="M0.755981 6.07049V5.23799H7.45873V6.07049H0.755981Z" fill="url(#paint9_linear_18_80)"/>
<path d="M0.755981 6.07049V5.23799H7.45873V6.07049H0.755981Z" fill="url(#paint10_linear_18_80)"/>
<path d="M0.755981 6.07049V5.23799H7.45873V6.07049H0.755981Z" fill="url(#paint11_linear_18_80)"/>
<path d="M0.755981 7.8165V6.98438H7.45873V7.8165H0.755981Z" fill="#3A91ED"/>
<path d="M0.755981 7.8165V6.98438H7.45873V7.8165H0.755981Z" fill="url(#paint12_linear_18_80)"/>
<path d="M0.755981 7.8165V6.98438H7.45873V7.8165H0.755981Z" fill="url(#paint13_linear_18_80)"/>
<path d="M0.755981 7.8165V6.98438H7.45873V7.8165H0.755981Z" fill="url(#paint14_linear_18_80)"/>
<path d="M0.755981 9.5625V8.73038H7.45873V9.5625H0.755981Z" fill="#3A8FF0"/>
<path d="M0.755981 9.5625V8.73038H7.45873V9.5625H0.755981Z" fill="url(#paint15_linear_18_80)"/>
<path d="M0.755981 9.5625V8.73038H7.45873V9.5625H0.755981Z" fill="url(#paint16_linear_18_80)"/>
<path d="M0.755981 9.5625V8.73038H7.45873V9.5625H0.755981Z" fill="url(#paint17_linear_18_80)"/>
<g filter="url(#filter5_f_18_80)">
<path d="M10.8787 5.51137L10.8784 10.8682" stroke="url(#paint18_linear_18_80)" stroke-width="0.28125" stroke-linecap="round"/>
</g>
<g filter="url(#filter6_f_18_80)">
<path d="M5.80646 3.09375V4.26562" stroke="#4EB7F5" stroke-width="0.28125" stroke-linecap="round"/>
</g>
<g filter="url(#filter7_f_18_80)">
<path d="M2.0332 3.09375V4.26562" stroke="#4EB7F5" stroke-width="0.28125" stroke-linecap="round"/>
</g>
<g filter="url(#filter8_i_18_80)">
<path d="M5.81247 4.0665C5.81247 4.11622 5.83223 4.16392 5.86739 4.19908C5.90255 4.23424 5.95024 4.254 5.99997 4.254C6.0497 4.254 6.09739 4.23424 6.13255 4.19908C6.16772 4.16392 6.18747 4.11622 6.18747 4.0665H5.81247ZM2.02722 4.0665C2.02722 4.11622 2.04698 4.16392 2.08214 4.19908C2.1173 4.23424 2.16499 4.254 2.21472 4.254C2.26445 4.254 2.31214 4.23424 2.3473 4.19908C2.38247 4.16392 2.40222 4.11622 2.40222 4.0665H2.02722ZM5.81247 2.73V4.0665H6.18747V2.73H5.81247ZM2.40222 4.0665V2.73H2.02722V4.0665H2.40222ZM4.10735 1.0425C5.04185 1.0425 5.81247 1.80037 5.81247 2.73H6.18747C6.18747 1.58887 5.24435 0.667496 4.10735 0.667496V1.0425ZM4.10735 0.667496C2.97072 0.667496 2.02722 1.58887 2.02722 2.73H2.40222C2.40222 1.80037 3.17322 1.0425 4.10735 1.0425V0.667496Z" fill="url(#paint19_radial_18_80)"/>
</g>
<g filter="url(#filter9_f_18_80)">
<path d="M6.01761 4.0665C6.01761 4.07893 6.02254 4.09086 6.03133 4.09965C6.04013 4.10844 6.05205 4.11338 6.06448 4.11338C6.07691 4.11338 6.08883 4.10844 6.09763 4.09965C6.10642 4.09086 6.11136 4.07893 6.11136 4.0665H6.01761ZM2.16786 4.0665C2.16786 4.07893 2.17279 4.09086 2.18158 4.09965C2.19038 4.10844 2.2023 4.11338 2.21473 4.11338C2.22716 4.11338 2.23909 4.10844 2.24788 4.09965C2.25667 4.09086 2.26161 4.07893 2.26161 4.0665H2.16786ZM6.01761 2.73V4.0665H6.11136V2.73H6.01761ZM2.26161 4.0665L2.26123 2.73H2.16748V4.06613L2.26161 4.0665ZM4.13923 0.902252C5.16786 0.902252 6.01723 1.722 6.01723 2.73038H6.11098C6.11098 1.66763 5.21698 0.808502 4.13923 0.808502V0.902252ZM4.13923 0.808502C3.06148 0.808502 2.16748 1.66725 2.16748 2.73H2.26123C2.26123 1.72163 3.11061 0.902252 4.13923 0.902252V0.808502Z" fill="url(#paint20_linear_18_80)"/>
<path d="M6.01761 4.0665C6.01761 4.07893 6.02254 4.09086 6.03133 4.09965C6.04013 4.10844 6.05205 4.11338 6.06448 4.11338C6.07691 4.11338 6.08883 4.10844 6.09763 4.09965C6.10642 4.09086 6.11136 4.07893 6.11136 4.0665H6.01761ZM2.16786 4.0665C2.16786 4.07893 2.17279 4.09086 2.18158 4.09965C2.19038 4.10844 2.2023 4.11338 2.21473 4.11338C2.22716 4.11338 2.23909 4.10844 2.24788 4.09965C2.25667 4.09086 2.26161 4.07893 2.26161 4.0665H2.16786ZM6.01761 2.73V4.0665H6.11136V2.73H6.01761ZM2.26161 4.0665L2.26123 2.73H2.16748V4.06613L2.26161 4.0665ZM4.13923 0.902252C5.16786 0.902252 6.01723 1.722 6.01723 2.73038H6.11098C6.11098 1.66763 5.21698 0.808502 4.13923 0.808502V0.902252ZM4.13923 0.808502C3.06148 0.808502 2.16748 1.66725 2.16748 2.73H2.26123C2.26123 1.72163 3.11061 0.902252 4.13923 0.902252V0.808502Z" fill="url(#paint21_linear_18_80)"/>
</g>
<defs>
<filter id="filter0_i_18_80" x="5.53723" y="4.98038" width="5.82373" height="6.23438" filterUnits="userSpaceOnUse" color-interpolation-filters="sRGB">
<feFlood flood-opacity="0" result="BackgroundImageFix"/>
<feBlend mode="normal" in="SourceGraphic" in2="BackgroundImageFix" result="shape"/>
<feColorMatrix in="SourceAlpha" type="matrix" values="0 0 0 0 0 0 0 0 0 0 0 0 0 0 0 0 0 0 127 0" result="hardAlpha"/>
<feOffset dx="0.1875" dy="-0.1875"/>
<feGaussianBlur stdDeviation="0.1875"/>
<feComposite in2="hardAlpha" operator="arithmetic" k2="-1" k3="1"/>
<feColorMatrix type="matrix" values="0 0 0 0 0.905882 0 0 0 0 0.556863 0 0 0 0 0.329412 0 0 0 1 0"/>
<feBlend mode="normal" in2="shape" result="effect1_innerShadow_18_80"/>
</filter>
<filter id="filter1_f_18_80" x="5.80646" y="5.46112" width="4.62903" height="4.06613" filterUnits="userSpaceOnUse" color-interpolation-filters="sRGB">
<feFlood flood-opacity="0" result="BackgroundImageFix"/>
<feBlend mode="normal" in="SourceGraphic" in2="BackgroundImageFix" result="shape"/>
<feGaussianBlur stdDeviation="0.1875" result="effect1_foregroundBlur_18_80"/>
</filter>
<filter id="filter2_i_18_80" x="6.38098" y="5.86499" width="3.9536" height="3.05287" filterUnits="userSpaceOnUse" color-interpolation-filters="sRGB">
<feFlood flood-opacity="0" result="BackgroundImageFix"/>
<feBlend mode="normal" in="SourceGraphic" in2="BackgroundImageFix" result="shape"/>
<feColorMatrix in="SourceAlpha" type="matrix" values="0 0 0 0 0 0 0 0 0 0 0 0 0 0 0 0 0 0 127 0" result="hardAlpha"/>
<feOffset dx="0.075"/>
<feGaussianBlur stdDeviation="0.075"/>
<feComposite in2="hardAlpha" operator="arithmetic" k2="-1" k3="1"/>
<feColorMatrix type="matrix" values="0 0 0 0 0.862745 0 0 0 0 0.321569 0 0 0 0 0.109804 0 0 0 1 0"/>
<feBlend mode="normal" in2="shape" result="effect1_innerShadow_18_80"/>
</filter>
<filter id="filter3_f_18_80" x="6.5295" y="5.94937" width="3.71028" height="2.88412" filterUnits="userSpaceOnUse" color-interpolation-filters="sRGB">
<feFlood flood-opacity="0" result="BackgroundImageFix"/>
<feBlend mode="normal" in="SourceGraphic" in2="BackgroundImageFix" result="shape"/>
<feGaussianBlur stdDeviation="0.028125" result="effect1_foregroundBlur_18_80"/>
</filter>
<filter id="filter4_f_18_80" x="6.67383" y="2.82413" width="0.84375" height="7.40625" filterUnits="userSpaceOnUse" color-interpolation-filters="sRGB">
<feFlood flood-opacity="0" result="BackgroundImageFix"/>
<feBlend mode="normal" in="SourceGraphic" in2="BackgroundImageFix" result="shape"/>
<feGaussianBlur stdDeviation="0.140625" result="effect1_foregroundBlur_18_80"/>
</filter>
<filter id="filter5_f_18_80" x="10.5502" y="5.18324" width="0.656616" height="6.01312" filterUnits="userSpaceOnUse" color-interpolation-filters="sRGB">
<feFlood flood-opacity="0" result="BackgroundImageFix"/>
<feBlend mode="normal" in="SourceGraphic" in2="BackgroundImageFix" result="shape"/>
<feGaussianBlur stdDeviation="0.09375" result="effect1_foregroundBlur_18_80"/>
</filter>
<filter id="filter6_f_18_80" x="5.29083" y="2.57812" width="1.03125" height="2.20312" filterUnits="userSpaceOnUse" color-interpolation-filters="sRGB">
<feFlood flood-opacity="0" result="BackgroundImageFix"/>
<feBlend mode="normal" in="SourceGraphic" in2="BackgroundImageFix" result="shape"/>
<feGaussianBlur stdDeviation="0.1875" result="effect1_foregroundBlur_18_80"/>
</filter>
<filter id="filter7_f_18_80" x="1.51758" y="2.57812" width="1.03125" height="2.20312" filterUnits="userSpaceOnUse" color-interpolation-filters="sRGB">
<feFlood flood-opacity="0" result="BackgroundImageFix"/>
<feBlend mode="normal" in="SourceGraphic" in2="BackgroundImageFix" result="shape"/>
<feGaussianBlur stdDeviation="0.1875" result="effect1_foregroundBlur_18_80"/>
</filter>
<filter id="filter8_i_18_80" x="2.02722" y="0.629996" width="4.16028" height="3.624" filterUnits="userSpaceOnUse" color-interpolation-filters="sRGB">
<feFlood flood-opacity="0" result="BackgroundImageFix"/>
<feBlend mode="normal" in="SourceGraphic" in2="BackgroundImageFix" result="shape"/>
<feColorMatrix in="SourceAlpha" type="matrix" values="0 0 0 0 0 0 0 0 0 0 0 0 0 0 0 0 0 0 127 0" result="hardAlpha"/>
<feOffset dy="-0.0375"/>
<feGaussianBlur stdDeviation="0.075"/>
<feComposite in2="hardAlpha" operator="arithmetic" k2="-1" k3="1"/>
<feColorMatrix type="matrix" values="0 0 0 0 0.164706 0 0 0 0 0.560784 0 0 0 0 0.886275 0 0 0 1 0"/>
<feBlend mode="normal" in2="shape" result="effect1_innerShadow_18_80"/>
</filter>
<filter id="filter9_f_18_80" x="2.07373" y="0.714752" width="4.13135" height="3.49237" filterUnits="userSpaceOnUse" color-interpolation-filters="sRGB">
<feFlood flood-opacity="0" result="BackgroundImageFix"/>
<feBlend mode="normal" in="SourceGraphic" in2="BackgroundImageFix" result="shape"/>
<feGaussianBlur stdDeviation="0.046875" result="effect1_foregroundBlur_18_80"/>
</filter>
<linearGradient id="paint0_linear_18_80" x1="6.95511" y1="6.39863" x2="8.85336" y2="9.67988" gradientUnits="userSpaceOnUse">
<stop stop-color="#FEC243"/>
<stop offset="1" stop-color="#FDB046"/>
</linearGradient>
<radialGradient id="paint1_radial_18_80" cx="0" cy="0" r="1" gradientUnits="userSpaceOnUse" gradientTransform="translate(5.87462 10.1788) rotate(52.08) scale(1.31362 1.78682)">
<stop offset="0.225" stop-color="#D38D3C"/>
<stop offset="1" stop-color="#D38D3C" stop-opacity="0"/>
</radialGradient>
<linearGradient id="paint2_linear_18_80" x1="9.78225" y1="5.91787" x2="9.78225" y2="8.26762" gradientUnits="userSpaceOnUse">
<stop stop-color="#F38362"/>
<stop offset="1" stop-color="#F38362" stop-opacity="0"/>
</linearGradient>
<linearGradient id="paint3_linear_18_80" x1="7.08413" y1="8.26762" x2="9.45113" y2="8.26762" gradientUnits="userSpaceOnUse">
<stop stop-color="#F38362"/>
<stop offset="1" stop-color="#F38362" stop-opacity="0"/>
</linearGradient>
<linearGradient id="paint4_linear_18_80" x1="4.10736" y1="2.883" x2="4.10736" y2="10.4179" gradientUnits="userSpaceOnUse">
<stop stop-color="#59C1FA"/>
<stop offset="1" stop-color="#49A8FF"/>
</linearGradient>
<linearGradient id="paint5_linear_18_80" x1="0.755981" y1="9.55087" x2="1.41223" y2="9.55087" gradientUnits="userSpaceOnUse">
<stop stop-color="#419CE0"/>
<stop offset="1" stop-color="#449FEE" stop-opacity="0"/>
</linearGradient>
<linearGradient id="paint6_linear_18_80" x1="3.97836" y1="10.5937" x2="3.97836" y2="8.95312" gradientUnits="userSpaceOnUse">
<stop stop-color="#4676F8"/>
<stop offset="1" stop-color="#439AFF" stop-opacity="0"/>
</linearGradient>
<linearGradient id="paint7_linear_18_80" x1="4.10736" y1="2.883" x2="4.10736" y2="3.6915" gradientUnits="userSpaceOnUse">
<stop offset="0.159" stop-color="#61C9E8"/>
<stop offset="1" stop-color="#61C9E8" stop-opacity="0"/>
</linearGradient>
<linearGradient id="paint8_linear_18_80" x1="-nan" y1="-nan" x2="-nan" y2="-nan" gradientUnits="userSpaceOnUse">
<stop stop-color="#80E8FF"/>
<stop offset="0.739" stop-color="#5BB8FF"/>
<stop offset="1" stop-color="#54AFFF"/>
</linearGradient>
<linearGradient id="paint9_linear_18_80" x1="0.755981" y1="5.81249" x2="1.44711" y2="5.81249" gradientUnits="userSpaceOnUse">
<stop offset="0.196" stop-color="#2A81CD"/>
<stop offset="1" stop-color="#2A81CD" stop-opacity="0"/>
</linearGradient>
<linearGradient id="paint10_linear_18_80" x1="7.45911" y1="5.81249" x2="6.80286" y2="5.81249" gradientUnits="userSpaceOnUse">
<stop stop-color="#51A9F3"/>
<stop offset="1" stop-color="#51A9F3" stop-opacity="0"/>
</linearGradient>
<linearGradient id="paint11_linear_18_80" x1="7.45911" y1="6.07049" x2="7.15423" y2="6.07049" gradientUnits="userSpaceOnUse">
<stop stop-color="#3C97EE"/>
<stop offset="1" stop-color="#3C97EE" stop-opacity="0"/>
</linearGradient>
<linearGradient id="paint12_linear_18_80" x1="0.755981" y1="7.5585" x2="1.44711" y2="7.5585" gradientUnits="userSpaceOnUse">
<stop offset="0.196" stop-color="#2A81CD"/>
<stop offset="1" stop-color="#2A81CD" stop-opacity="0"/>
</linearGradient>
<linearGradient id="paint13_linear_18_80" x1="7.45911" y1="7.5585" x2="6.80286" y2="7.5585" gradientUnits="userSpaceOnUse">
<stop stop-color="#51A9F3"/>
<stop offset="1" stop-color="#51A9F3" stop-opacity="0"/>
</linearGradient>
<linearGradient id="paint14_linear_18_80" x1="7.45911" y1="7.8165" x2="7.15423" y2="7.8165" gradientUnits="userSpaceOnUse">
<stop stop-color="#3C97EE"/>
<stop offset="1" stop-color="#3C97EE" stop-opacity="0"/>
</linearGradient>
<linearGradient id="paint15_linear_18_80" x1="0.755981" y1="9.30488" x2="1.44711" y2="9.30488" gradientUnits="userSpaceOnUse">
<stop offset="0.196" stop-color="#2A81CD"/>
<stop offset="1" stop-color="#2A81CD" stop-opacity="0"/>
</linearGradient>
<linearGradient id="paint16_linear_18_80" x1="7.45911" y1="9.30488" x2="6.80286" y2="9.30488" gradientUnits="userSpaceOnUse">
<stop stop-color="#51A9F3"/>
<stop offset="1" stop-color="#51A9F3" stop-opacity="0"/>
</linearGradient>
<linearGradient id="paint17_linear_18_80" x1="7.45911" y1="9.5625" x2="7.15423" y2="9.5625" gradientUnits="userSpaceOnUse">
<stop stop-color="#3C97EE"/>
<stop offset="1" stop-color="#3C97EE" stop-opacity="0"/>
</linearGradient>
<linearGradient id="paint18_linear_18_80" x1="244990" y1="5.40862" x2="244990" y2="10.2862" gradientUnits="userSpaceOnUse">
<stop stop-color="#FFD262"/>
<stop offset="1" stop-color="#FFB84A"/>
</linearGradient>
<radialGradient id="paint19_radial_18_80" cx="0" cy="0" r="1" gradientUnits="userSpaceOnUse" gradientTransform="translate(3.18147 1.04287) rotate(72.9753) scale(3.162 3.72747)">
<stop stop-color="#2C94E3"/>
<stop offset="1" stop-color="#2C9CEB"/>
</radialGradient>
<linearGradient id="paint20_linear_18_80" x1="4.66423" y1="4.254" x2="4.66423" y2="2.28525" gradientUnits="userSpaceOnUse">
<stop stop-color="#53A9F2"/>
<stop offset="1" stop-color="#53A9F2" stop-opacity="0"/>
</linearGradient>
<linearGradient id="paint21_linear_18_80" x1="5.92386" y1="1.5705" x2="5.18548" y2="2.46113" gradientUnits="userSpaceOnUse">
<stop stop-color="#61B2F2"/>
<stop offset="1" stop-color="#61B2F2" stop-opacity="0"/>
</linearGradient>
</defs>
</svg>
