<svg width="82" height="97" viewBox="0 0 82 97" fill="none" xmlns="http://www.w3.org/2000/svg">
<path d="M56.945 12.2965C51.4434 8.64818 45.0205 7.11155 37.6763 7.68662C30.3654 8.25909 24.2433 10.778 19.3102 15.2434C17.408 16.9973 15.9149 18.8528 14.8311 20.8101C14.1902 23.301 13.9778 25.9256 14.1938 28.6838C14.199 28.7503 14.2029 28.8001 14.2055 28.8334C14.2185 28.9995 14.2302 29.1491 14.2406 29.282C14.4118 31.0407 14.6621 32.743 14.9916 34.389L16.7376 46.4394C16.7688 46.8382 16.8167 47.2357 16.8811 47.6319C17.2705 50.0422 17.9971 52.2756 19.0608 54.3322C20.4093 57.0351 22.3377 59.4587 24.8461 61.6027C29.8296 65.8935 35.6112 67.7812 42.1911 67.266C48.7377 66.7534 54.1385 63.99 58.3934 58.9759C60.6932 56.3216 62.3167 53.5698 63.2638 50.7205C63.6151 49.6565 63.8655 48.5837 64.0148 47.502C64.8763 41.8509 65.0311 36.3553 64.4792 31.0155C64.3679 30.0211 64.3091 29.0561 64.3027 28.1204C64.2897 27.9543 64.292 27.7702 64.3096 27.5682C64.2752 26.7016 64.2229 25.8196 64.1526 24.9224C64.15 24.8891 64.1461 24.8393 64.1409 24.7728C63.9249 22.0146 63.3065 19.4551 62.2858 17.0942C60.8773 15.3321 59.097 13.7329 56.945 12.2965Z" fill="#BF7958"/>
<path d="M37.6764 7.68659C45.0206 7.11152 51.4435 8.64814 56.945 12.2965C59.0971 13.7329 60.8773 15.3321 62.2859 17.0942C60.8137 13.6653 58.5381 10.6504 55.459 8.04951C50.1992 3.64668 44.1299 1.71458 37.2509 2.25322C30.372 2.79186 24.6607 5.64642 20.1172 10.8169C17.483 13.8986 15.721 17.2296 14.8311 20.81C15.915 18.8528 17.408 16.9972 19.3102 15.2434C24.2434 10.778 30.3654 8.25906 37.6764 7.68659Z" fill="#DB855C"/>
<path d="M53.3 87.95L53.45 82.95H44.05V87.95H53.25H53.3Z" fill="#FFD7B1"/>
<path d="M58.9 96.95L59 93.95C55.7667 93.05 53.85 91.05 53.25 87.95H44.05V96.95H58.9Z" fill="#BF7958"/>
<path d="M53.9 73.75C53.9 72.15 53.2667 70.7833 52 69.65C50.7667 68.5167 49.25 67.95 47.45 67.95C45.6833 67.95 44.1667 68.5167 42.9 69.65C41.6333 70.7833 41 72.15 41 73.75C42.9667 75.35 43.9833 78.4167 44.05 82.95H53.45L53.9 73.75Z" fill="#EEA160"/>
<path d="M26.7 87.95L26.55 82.95H35.95V87.95H26.75H26.7Z" fill="#FFD7B1"/>
<path d="M21.1 96.95L21 93.95C24.2333 93.05 26.15 91.05 26.75 87.95H35.95V96.95H21.1Z" fill="#BF7958"/>
<path d="M26.1 73.75C26.1 72.15 26.7333 70.7833 28 69.65C29.2333 68.5167 30.75 67.95 32.55 67.95C34.3167 67.95 35.8333 68.5167 37.1 69.65C38.3667 70.7833 39 72.15 39 73.75C37.0333 75.35 36.0167 78.4167 35.95 82.95H26.55L26.1 73.75Z" fill="#EEA160"/>
<path d="M63.0748 42.3053C63.9971 41.3101 64.6929 40.3232 65.1621 39.3446C66.1932 37.1708 66.9617 35.4614 67.4678 34.2167C67.933 32.9955 68.8752 32.506 70.2942 32.7481C71.6723 33.0139 72.7601 33.7194 73.5575 34.8648C74.3227 36.0016 74.5929 37.2473 74.368 38.6019C73.8077 42.1097 72.5532 45.3108 70.6044 48.205L63.0748 42.3053Z" fill="#FFD7B1"/>
<path d="M70.6043 48.205C69.3847 50.0523 67.8882 51.7736 66.1149 53.369C63.7505 55.4962 60.8925 57.4049 57.5409 59.0951C56.2776 59.6884 54.9946 59.776 53.6917 59.3579C52.3245 58.9225 51.3195 58.1011 50.6768 56.8936C50.0019 55.6775 49.8734 54.4181 50.2915 53.1152C50.7096 51.8124 51.5385 50.8439 52.7782 50.2098C55.004 49.1152 56.9293 47.8539 58.5543 46.4258C60.4133 45.0259 61.9201 43.6524 63.0747 42.3053L70.6043 48.205Z" fill="#79ADCB"/>
<path d="M60.7158 43.3815L62.8514 40.4337L72.4862 47.3634L70.3531 50.8812L60.7158 43.3815Z" fill="#5A93B4"/>
<path d="M19.4252 44.8053C18.5029 43.8101 17.8071 42.8232 17.3379 41.8446C16.3068 39.6708 15.5383 37.9614 15.0322 36.7167C14.567 35.4955 13.6248 35.006 12.2058 35.2481C10.8277 35.5139 9.73987 36.2194 8.94247 37.3648C8.17727 38.5016 7.90712 39.7473 8.13203 41.1019C8.6923 44.6097 9.94682 47.8108 11.8956 50.705L19.4252 44.8053Z" fill="#FFD7B1"/>
<path d="M11.8957 50.705C13.1153 52.5523 14.6118 54.2736 16.3851 55.869C18.7495 57.9962 21.6075 59.9049 24.9591 61.5951C26.2224 62.1884 27.5054 62.276 28.8083 61.8579C30.1755 61.4225 31.1805 60.6011 31.8232 59.3936C32.4981 58.1775 32.6266 56.9181 32.2085 55.6152C31.7904 54.3124 30.9615 53.3439 29.7218 52.7098C27.496 51.6152 25.5707 50.3539 23.9457 48.9258C22.0867 47.5259 20.5799 46.1524 19.4253 44.8053L11.8957 50.705Z" fill="#79ADCB"/>
<path d="M21.7842 45.8815L19.6486 42.9337L10.0138 49.8634L12.1469 53.3812L21.7842 45.8815Z" fill="#5A93B4"/>
<path d="M24.5 61.6L24.7 62.4C25.8 65.9666 26.3167 69.9833 26.25 74.45C30.5833 69.75 30 65.4666 24.5 61.6ZM54.35 62.4L54.55 61.6C49.05 65.4666 48.4667 69.75 52.8 74.45C52.7333 69.9833 53.25 65.9666 54.35 62.4Z" fill="#5A93B4"/>
<path d="M52.1999 79.05C52.6332 77.45 52.8332 75.9166 52.7999 74.45H26.2499C26.2166 75.9166 26.4166 77.45 26.8499 79.05H52.1999Z" fill="#EEA160"/>
<path d="M54.55 61.6L54.35 62.4C55.1833 59.7333 56.3166 57.35 57.75 55.25C58.4166 51.9167 57.7333 50.1833 55.7 50.05C55.5333 50.05 55.3666 50.05 55.2 50.05H23.85C21.4166 49.9167 20.55 51.65 21.25 55.25C22.7166 57.35 23.8666 59.7333 24.7 62.4L24.5 61.6C30 65.4667 30.5833 69.75 26.25 74.45H52.8C48.4666 69.75 49.05 65.4667 54.55 61.6ZM49.5 62C49.5 62.5333 48.5333 62.9667 46.6 63.3C44.6333 63.7333 42.2666 63.95 39.5 63.95C36.7666 63.95 34.4166 63.7333 32.45 63.3C30.5166 62.9667 29.55 62.5333 29.55 62C29.55 61.4333 30.5166 60.9333 32.45 60.5C34.4166 60.1667 36.7666 60 39.5 60C42.2666 60 44.6333 60.1667 46.6 60.5C48.5333 60.9333 49.5 61.4333 49.5 62Z" fill="#79ADCB"/>
<path d="M46.5999 63.3C48.5333 62.9667 49.4999 62.5333 49.4999 62C49.4999 61.4333 48.5333 60.9333 46.5999 60.5C44.6333 60.1667 42.2666 60 39.4999 60C36.7666 60 34.4166 60.1667 32.4499 60.5C30.5166 60.9333 29.5499 61.4333 29.5499 62C29.5499 62.5333 30.5166 62.9667 32.4499 63.3C34.4166 63.7333 36.7666 63.95 39.4999 63.95C42.2666 63.95 44.6333 63.7333 46.5999 63.3Z" fill="#69A1C2"/>
<path d="M54 76.05V71.05H26V76.05H54Z" fill="#BF7958"/>
<path d="M52.8 83.8H52.85C53.5167 83.8 54.0667 83.5667 54.5 83.1C54.9333 82.6 55.0833 82.0167 54.95 81.35L54.05 75.8H49L49.9 81.35C50.0333 82.0167 50.3667 82.6 50.9 83.1C51.4667 83.5667 52.1 83.8 52.8 83.8Z" fill="#BF7958"/>
<path d="M50 49.05C50 46.55 48.9833 44.4 46.95 42.6C44.8833 40.9 42.4 40.05 39.5 40.05C36.6 40.05 34.1167 40.9 32.05 42.6C30.0167 44.4 29 46.55 29 49.05C29 49.2167 29.0167 49.3833 29.05 49.55C29.15 51.8167 30.15 53.75 32.05 55.35C34.1167 57.15 36.6 58.05 39.5 58.05C42.4 58.05 44.8833 57.15 46.95 55.35C48.85 53.75 49.85 51.8167 49.95 49.55C49.9833 49.3833 50 49.2167 50 49.05Z" fill="#F0C49A"/>
<path d="M28.1 46.05L24 49.8C30.3 59.9667 38.2833 68.3833 47.95 75.05L52 71.35C43.1667 65.0167 35.2 56.5833 28.1 46.05Z" fill="#BF7958"/>
<path d="M66.6185 26.1933L66.1003 26.991C64.3223 30.7373 64.0419 34.2896 65.2591 37.6481C62.0153 30.7332 62.4623 26.8922 66.6002 26.125L66.6185 26.1933Z" fill="#F0C49A"/>
<path d="M72.1874 41.648L65.2592 37.6481C64.042 34.2896 64.3224 30.7373 66.1003 26.991L66.6186 26.1933L66.6003 26.125C67.1214 25.1557 67.713 24.1309 68.3752 23.0506L68.5502 22.7475C69.0335 21.9103 69.9336 21.7179 71.2505 22.1703C73.257 22.8283 75.089 23.6551 76.7467 24.6506C81.0024 27.1461 79.4827 32.8119 72.1874 41.648Z" fill="#FFD7B1"/>
<path d="M14.8315 27.1933L15.3498 27.991C17.1277 31.7373 17.4081 35.2896 16.1909 38.6481C19.4348 31.7332 18.9878 27.8922 14.8498 27.125L14.8315 27.1933Z" fill="#F0C49A"/>
<path d="M9.26269 42.648L16.1909 38.6481C17.4081 35.2896 17.1277 31.7373 15.3498 27.991L14.8315 27.1933L14.8498 27.125C14.3287 26.1557 13.737 25.1309 13.0749 24.0506L12.8999 23.7475C12.4165 22.9103 11.5164 22.7179 10.1995 23.1703C8.19308 23.8283 6.36103 24.6551 4.70337 25.6506C0.447636 28.1461 1.96741 33.8119 9.26269 42.648Z" fill="#FFD7B1"/>
<path d="M54.0567 46.3316C50.3681 44.4616 45.8992 43.5267 40.65 43.5267C35.4008 43.5267 30.8846 44.4616 27.1014 46.3316C23.4128 48.2495 21.5685 50.5389 21.5685 53.2C21.5685 55.8611 23.4128 58.1266 27.1014 59.9965C30.8846 61.9144 35.4008 62.8734 40.65 62.8734C45.8992 62.8734 50.3681 61.9144 54.0567 59.9965C57.8399 58.1266 59.7315 55.8611 59.7315 53.2C59.7315 50.5389 57.8399 48.2495 54.0567 46.3316Z" fill="url(#paint0_radial_2026_4)"/>
<path d="M57.4523 23.9276C55.2569 24.0697 53.4292 24.9898 51.9692 26.6877C50.5092 28.3856 49.8513 30.3488 49.9957 32.5775C50.14 34.8062 51.0455 36.6682 52.7123 38.1636C54.3791 39.659 56.3102 40.3357 58.5056 40.1935C60.701 40.0513 62.5287 39.1313 63.9887 37.4334C65.4487 35.7355 66.1065 33.7722 65.9622 31.5436C65.8179 29.3149 64.9123 27.4529 63.2455 25.9575C61.5788 24.462 59.6477 23.7854 57.4523 23.9276ZM58.2956 36.9503C56.965 37.0365 55.8028 36.6274 54.809 35.723C53.8173 34.852 53.2773 33.7345 53.189 32.3707C53.105 31.0734 53.4963 29.8957 54.3631 28.8375C55.232 27.8125 56.3317 27.2569 57.6623 27.1708C58.9928 27.0846 60.1717 27.4926 61.1988 28.3948C62.1615 29.3346 62.6849 30.4531 62.7689 31.7504C62.8572 33.1142 62.4825 34.2908 61.6447 35.2804C60.7425 36.3075 59.6261 36.8641 58.2956 36.9503Z" fill="#FFD7B1"/>
<path d="M54.809 35.723C55.8028 36.6274 56.965 37.0365 58.2956 36.9503C59.6261 36.8641 60.7425 36.3075 61.6447 35.2804C62.4825 34.2908 62.8572 33.1142 62.7689 31.7504C62.6849 30.4531 62.1615 29.3346 61.1988 28.3948C60.1717 27.4926 58.9928 27.0846 57.6623 27.1708C56.3317 27.2569 55.232 27.8125 54.3631 28.8375C53.4963 29.8957 53.1049 31.0734 53.189 32.3707C53.2773 33.7345 53.8173 34.852 54.809 35.723Z" fill="#E7B687"/>
<path d="M15.0466 29.0787C13.5866 30.7766 12.9287 32.7398 13.073 34.9685C13.2174 37.1972 14.1229 39.0592 15.7897 40.5546C17.4565 42.05 19.3876 42.7267 21.583 42.5845C23.7451 42.4445 25.5728 41.5245 27.0661 39.8244C28.5261 38.1265 29.1839 36.1632 29.0396 33.9346C28.8953 31.7059 27.9897 29.8439 26.3229 28.3484C24.6229 26.8552 22.6918 26.1786 20.5297 26.3186C18.3343 26.4607 16.5066 27.3808 15.0466 29.0787ZM17.8864 38.114C16.9279 37.2408 16.4046 36.1223 16.3163 34.7585C16.2322 33.4612 16.607 32.2845 17.4405 31.2285C18.3094 30.2035 19.4091 29.6479 20.7397 29.5618C22.1035 29.4735 23.2657 29.8825 24.2263 30.789C25.2223 31.7266 25.7623 32.8441 25.8463 34.1414C25.9346 35.5052 25.5432 36.6829 24.6722 37.6746C23.8365 38.6974 22.7368 39.253 21.373 39.3413C20.0424 39.4275 18.8802 39.0184 17.8864 38.114Z" fill="#FFD7B1"/>
<path d="M16.3163 34.7585C16.4046 36.1223 16.928 37.2408 17.8864 38.114C18.8802 39.0184 20.0424 39.4274 21.373 39.3413C22.7368 39.253 23.8365 38.6974 24.6722 37.6746C25.5433 36.6829 25.9346 35.5051 25.8463 34.1413C25.7623 32.8441 25.2223 31.7266 24.2263 30.789C23.2657 29.8825 22.1035 29.4734 20.7397 29.5618C19.4092 29.6479 18.3094 30.2035 17.4405 31.2284C16.607 32.2845 16.2323 33.4612 16.3163 34.7585Z" fill="#E7B687"/>
<path d="M58.5731 39.6881L59.4014 16.8869L17.6389 19.5913L21.401 42.0952C23.0858 46.9632 26.7837 50.1643 32.4948 51.6984C35.3203 52.5175 38.0614 52.8077 40.7182 52.5688C43.4169 52.4609 46.1143 51.8185 48.8106 50.6419C54.2761 48.3839 57.5303 44.7327 58.5731 39.6881Z" fill="#FFD7B1"/>
<path d="M42.2796 39.5407C42.948 39.0298 43.2617 38.4583 43.2208 37.8263C43.182 37.2275 42.7972 36.7013 42.0663 36.2476C41.3731 35.8582 40.5441 35.6948 39.5794 35.7573C38.6813 35.8154 37.9136 36.0823 37.2764 36.5578C36.6434 37.0998 36.3463 37.6702 36.3851 38.2689C36.426 38.901 36.7942 39.4283 37.4896 39.8509C38.1872 40.3068 38.985 40.5056 39.8832 40.4474C40.8478 40.385 41.6466 40.0827 42.2796 39.5407Z" fill="#E7B687"/>
<path d="M27.0765 36.116C27.0678 35.9829 27.0603 35.8665 27.0538 35.7667C26.9763 34.5692 27.2931 33.5299 28.0043 32.6488C28.5933 31.9426 29.3325 31.4939 30.222 31.3027L24.484 31.6742C25.95 32.6482 26.8142 34.1288 27.0765 36.116ZM33.8515 37.8318C34.2741 37.1363 34.4531 36.2897 34.3885 35.2917C34.3239 34.2938 34.0361 33.4607 33.5252 32.7923C33.0142 32.1239 32.4095 31.8124 31.711 31.8576C31.079 31.8985 30.5527 32.2833 30.1323 33.012C29.7118 33.7407 29.5339 34.604 29.5985 35.6019C29.6631 36.5998 29.9498 37.4164 30.4586 38.0515C30.9717 38.7531 31.5442 39.0835 32.1762 39.0425C32.8748 38.9973 33.4332 38.5937 33.8515 37.8318Z" fill="#BF7958"/>
<path d="M30.618 31.2269C30.4849 31.2355 30.3529 31.2608 30.222 31.3027C29.3325 31.4939 28.5933 31.9426 28.0044 32.6488C27.2932 33.5299 26.9763 34.5692 27.0539 35.7667C27.0603 35.8665 27.0679 35.9829 27.0765 36.116C27.2076 37.1096 27.6473 37.9663 28.3953 38.6861C29.2518 39.5326 30.2788 39.917 31.4763 39.8394C32.574 39.7684 33.4763 39.259 34.1832 38.3113C34.9277 37.428 35.2622 36.4043 35.1868 35.2401C35.1093 34.0426 34.6444 33.0539 33.7922 32.274C32.9733 31.4919 32.015 31.1364 30.9173 31.2075C30.8175 31.214 30.7177 31.2205 30.618 31.2269ZM34.3885 35.2918C34.4531 36.2897 34.2741 37.1363 33.8515 37.8318C33.4332 38.5937 32.8748 38.9973 32.1763 39.0426C31.5443 39.0835 30.9717 38.7531 30.4586 38.0515C29.9499 37.4164 29.6632 36.5998 29.5985 35.6019C29.5339 34.604 29.7118 33.7407 30.1323 33.012C30.5528 32.2833 31.079 31.8985 31.711 31.8576C32.4095 31.8124 33.0143 32.1239 33.5252 32.7923C34.0361 33.4607 34.3239 34.2938 34.3885 35.2918Z" fill="white"/>
<path d="M52.1513 34.1415C52.1577 34.2413 52.1653 34.3577 52.1739 34.4908C52.1777 32.4863 52.827 30.9077 54.1219 29.755L48.4338 30.1233C49.3406 30.1982 50.1315 30.5478 50.8066 31.1722C51.6255 31.9542 52.0737 32.944 52.1513 34.1415ZM44.8166 34.6165C44.8813 35.6144 45.1679 36.4309 45.6767 37.066C46.1898 37.7676 46.779 38.0969 47.4442 38.0538C48.1095 38.0108 48.6513 37.6082 49.0696 36.8463C49.4922 36.1508 49.6712 35.3042 49.6066 34.3063C49.542 33.3084 49.2542 32.4752 48.7433 31.8068C48.2324 31.1385 47.6443 30.8258 46.979 30.8689C46.3137 30.912 45.7708 31.2979 45.3504 32.0265C44.9299 32.7552 44.752 33.6185 44.8166 34.6165Z" fill="#BF7958"/>
<path d="M48.4339 30.1233C48.2987 30.0987 48.1645 30.0906 48.0315 30.0993C47.9317 30.1057 47.8319 30.1122 47.7321 30.1187C46.6344 30.1897 45.73 30.6658 45.0187 31.547C44.2743 32.4303 43.9408 33.4707 44.0183 34.6681C44.0937 35.8324 44.5575 36.8044 45.4097 37.5843C46.2329 38.4329 47.1934 38.8217 48.2911 38.7506C49.4886 38.673 50.4574 38.1593 51.1976 37.2095C51.8466 36.3992 52.172 35.493 52.1739 34.4908C52.1653 34.3577 52.1578 34.2413 52.1513 34.1415C52.0738 32.944 51.6255 31.9542 50.8066 31.1722C50.1315 30.5478 49.3406 30.1982 48.4339 30.1233ZM45.6768 37.066C45.168 36.4309 44.8813 35.6144 44.8167 34.6165C44.7521 33.6185 44.93 32.7552 45.3504 32.0265C45.7709 31.2979 46.3138 30.912 46.979 30.8689C47.6443 30.8258 48.2324 31.1385 48.7433 31.8068C49.2542 32.4752 49.542 33.3084 49.6066 34.3063C49.6713 35.3042 49.4923 36.1508 49.0697 36.8463C48.6514 37.6082 48.1096 38.0108 47.4443 38.0538C46.779 38.0969 46.1898 37.7676 45.6768 37.066Z" fill="white"/>
<path d="M53.6947 27.0269L53.5364 24.582L44.1349 24.0885L44.2674 26.1342L53.6947 27.0269Z" fill="#BF7958"/>
<path d="M24.6297 28.5082L24.7881 30.9531L34.0216 28.852L33.8859 26.7564L24.6297 28.5082Z" fill="#BF7958"/>
<path d="M33.7339 43.7517C33.6781 43.9224 33.6921 44.1386 33.7759 44.4004C33.8307 44.7309 33.9697 45.0726 34.193 45.4256C34.3744 45.6476 34.5735 45.8853 34.7903 46.1385L42.574 45.6344L42.3672 42.4411L34.7332 42.9354C34.5004 42.9505 34.2895 43.0477 34.1007 43.2269C33.8743 43.3418 33.752 43.5167 33.7339 43.7517Z" fill="white"/>
<path d="M45.5106 42.2375L42.3672 42.4411L42.574 45.6344L34.7903 46.1384C35.0136 46.4914 35.2991 46.7736 35.6468 46.9849C37.0259 48.1649 38.6469 48.6946 40.5096 48.5739C42.3059 48.4576 43.8294 47.741 45.0802 46.4241L45.1768 46.3677C45.6456 45.8697 46.0259 45.294 46.3176 44.6404C46.4935 44.2616 46.6205 43.9026 46.6988 43.5635C46.7148 43.2953 46.6842 43.0801 46.6069 42.9181C46.5253 42.6896 46.3814 42.5319 46.1754 42.445C45.9651 42.2916 45.7435 42.2225 45.5106 42.2375Z" fill="#BF7958"/>
<path d="M59.0645 34.8963L59.6079 25.4916C51.9144 26.3572 43.636 24.1208 34.7725 18.7824C38.5507 28.1245 46.6481 33.4958 59.0645 34.8963Z" fill="#DB855C"/>
<path d="M59.6079 25.4916L60.1545 16.1367L16.8452 18.9413L17.9914 26.5832C25.1345 25.987 30.7282 23.3867 34.7724 18.7824C43.6359 24.1208 51.9144 26.3572 59.6079 25.4916Z" fill="#BF7958"/>
<path d="M56.0599 16.3517C55.4803 15.6544 54.7687 14.9823 53.9251 14.3355C50.0304 11.4478 44.74 10.2204 38.054 10.6534C31.368 11.0863 26.2957 12.9681 22.837 16.2985C22.6149 16.4799 22.4283 16.6924 22.2771 16.936C21.7085 17.4405 21.2606 18.004 20.9335 18.6264C20.5688 19.1845 20.5609 19.8363 20.9098 20.582C25.0414 17.8426 30.866 16.2295 38.3836 15.7427C45.8347 15.2602 51.8009 16.0931 56.2825 18.2413C56.5344 17.4901 56.4603 16.8603 56.0599 16.3517Z" fill="#71A2BE"/>
<defs>
<radialGradient id="paint0_radial_2026_4" cx="0" cy="0" r="1" gradientUnits="userSpaceOnUse" gradientTransform="translate(40.65 53.2) scale(19.2766 9.77224)">
<stop stop-opacity="0.301961"/>
<stop offset="1" stop-opacity="0"/>
</radialGradient>
</defs>
</svg>
